<svg width="234" height="78" fill="none" xmlns="http://www.w3.org/2000/svg"><g clip-path="url(#clip0)"><path d="M20.733 6.244a38.385 38.385 0 014.608-2.075l-1.095 1.018c-.46.519-.883 1.076-1.343 1.614l-.557.692c-.327.096-.653.172-.96.288a.844.844 0 01-.653-1.537zM49.011 3.17a34.533 34.533 0 00-6.181-1.25 38.04 38.04 0 00-10.79.365 25.863 25.863 0 00-4.127 3.593l-.25.269a50.184 50.184 0 018.083-.711c2.255-.003 4.504.21 6.719.634l1.094-.576c.98-.561 2-1.049 3.053-1.46l2.4-.865zm21.386 29.49a35.51 35.51 0 011.152 8.934v.999c.807-.577 1.613-1.115 2.38-1.691l2.458-1.287a39.474 39.474 0 00-.192-4.246 38.525 38.525 0 00-.921-4.976L72.72 31.47c-.811.32-1.59.719-2.323 1.191zm-8.12-22.593a38.081 38.081 0 00-9.599-5.668l-4.991 2.056a9.48 9.48 0 00-1.344.634 35.239 35.239 0 019.925 5.014l4.281-1.575 1.728-.461zm12.44 18.251a36.305 36.305 0 00-3.513-7.934l-1.613.5-3.647 1.517a36.97 36.97 0 013.84 7.973 12.91 12.91 0 012.11-.98l2.823-1.076zm-4.627-9.606a38.03 38.03 0 00-6.009-6.993l-2.86.884-2.841 1.21a37.024 37.024 0 016.297 6.782l4.242-1.575 1.171-.308zm1.363 27.396a48.873 48.873 0 01-1.305 9.606 1.172 1.172 0 002.188.826 37.293 37.293 0 003.84-14.12l-.96.557c-1.133 1.056-2.496 1.998-3.763 3.131z" fill="#fff" opacity=".39"/><path d="M75.14 28.146l-1.92.749a39.592 39.592 0 00-3.84-7.915l.269-.096 2.092-.654a37.33 37.33 0 013.398 7.916zM64.675 11.527l-2.783.865a38.986 38.986 0 016.258 6.82l.768-.288 1.69-.461a38.41 38.41 0 00-5.933-6.936zm11.02 18.732l-1.92.807a38.449 38.449 0 011.42 9.202l1.594-.883v-.308a37.857 37.857 0 00-1.094-8.895v.077zm-.5 12.949c0 1.21-.153 2.44-.306 3.63a.538.538 0 001.055.174c.326-1.566.55-3.151.672-4.746l-1.305.75-.115.192zM32.502 1.922l-1.785 1.44c1.994-.31 4.01-.464 6.028-.46a37.87 37.87 0 019.733 1.248h.173l3.09-1.172a37.928 37.928 0 00-10.616-1.537 37.312 37.312 0 00-6.623.48zm20.791 2.247l-.403.116-2.61 1.095a38.384 38.384 0 019.598 5.36l.595-.212 2.361-.614a36.91 36.91 0 00-9.54-5.745z" fill="#fff" opacity=".75"/><path d="M234 21.671v17.29a13.01 13.01 0 01-3.814 9.185 12.99 12.99 0 01-9.183 3.803H95.431a2.149 2.149 0 01-2.15-2.152v-17.29c0-3.445 1.367-6.748 3.801-9.184a12.973 12.973 0 019.177-3.803h125.572A2.168 2.168 0 01234 21.67z" fill="#39B54A"/><path d="M111.884 38.424h-2.937v6.993h-4.819V25.86h7.679a6.328 6.328 0 014.795 1.667 6.343 6.343 0 01-2.224 10.643c-.825.287-1.7.4-2.571.332l.077-.077zm-.211-8.3h-2.726v3.958h2.726a1.976 1.976 0 001.826-2.736 1.98 1.98 0 00-1.826-1.221zm19.639 15.37l-3.475-7.3h-1.632v7.3h-4.818V25.86h7.775a6.272 6.272 0 016.196 3.802 6.28 6.28 0 01.504 2.518 5.632 5.632 0 01-3.206 5.13l4.242 8.184h-5.586zm-2.361-15.37h-2.746v3.958h2.746a1.976 1.976 0 001.826-2.736 1.981 1.981 0 00-1.07-1.07c-.24-.1-.497-.151-.756-.151zm22.173 13.334a7.209 7.209 0 01-5.491 2.209 7.115 7.115 0 01-5.49-2.21c-2.074-2.074-1.92-4.822-1.92-7.78 0-2.959 0-5.764 1.92-7.685a7.116 7.116 0 015.471-2.21 7.19 7.19 0 015.49 2.21c2.055 2.056 1.92 4.822 1.92 7.685 0 2.862.154 5.706-1.9 7.78zm-3.552-12.603a2.457 2.457 0 00-1.92-.846 2.4 2.4 0 00-1.92.846c-.441.576-.729 1.248-.729 4.822 0 3.573.288 4.226.729 4.803a2.423 2.423 0 001.92.883 2.474 2.474 0 001.92-.883c.422-.577.71-1.21.71-4.803s-.288-4.246-.71-4.822zm21.367 12.717a7.288 7.288 0 01-5.279 1.922h-7.219V25.859h7.276a7.31 7.31 0 015.28 1.921c2.284 2.287 2.035 4.803 2.035 7.877s.249 5.63-2.093 7.915zm-3.302-12.295a2.516 2.516 0 00-2.323-1.114h-2.054V41.19h2.112a2.53 2.53 0 002.323-1.095c.384-.557.518-1.076.518-4.419 0-3.343-.134-3.861-.518-4.4h-.058zm15.819 14.39a7.003 7.003 0 01-6.858-4.272 7 7 0 01-.552-2.798V25.859h4.818v12.565a2.513 2.513 0 002.592 2.863 2.554 2.554 0 002.63-2.863V25.859h4.838v12.738a7.084 7.084 0 01-2.21 5.147 7.06 7.06 0 01-5.258 1.923zm17.911 0a7.288 7.288 0 01-5.471-2.21c-2.054-2.074-1.92-4.822-1.92-7.78 0-2.959 0-5.764 1.92-7.685a7.3 7.3 0 015.471-2.21 7.09 7.09 0 017.43 6.398h-4.915a2.401 2.401 0 00-2.495-2.094 2.319 2.319 0 00-1.92.826c-.442.576-.749 1.268-.749 4.842 0 3.573.307 4.284.749 4.86a2.36 2.36 0 001.92.826 2.416 2.416 0 002.495-2.094h4.915a7.106 7.106 0 01-7.43 6.32zm19.006-15.504v15.37h-4.838v-15.37h-4.819v-4.304h14.475v4.304h-4.818z" fill="#fff"/><path d="M107.871 15.178a5.102 5.102 0 01-3.954-1.441l1.363-1.383a3.566 3.566 0 002.63.922c1.247 0 1.919-.48 1.919-1.345a1.216 1.216 0 00-.103-.504 1.214 1.214 0 00-.3-.418 1.666 1.666 0 00-.96-.365l-1.324-.193a3.588 3.588 0 01-2.016-.845 2.796 2.796 0 01-.787-2.133 3.354 3.354 0 011.169-2.525 3.358 3.358 0 012.67-.779 4.644 4.644 0 013.514 1.268l-1.344 1.326a3.062 3.062 0 00-2.227-.75c-1.133 0-1.69.635-1.69 1.384a1.055 1.055 0 00.327.768c.288.245.642.398 1.017.442l1.286.173a3.644 3.644 0 012.016.826 3.055 3.055 0 01.826 2.306c0 2.074-1.747 3.266-4.032 3.266zm10.252 0a3.84 3.84 0 01-3.993-3.842V4.208h2.131v7.07a1.78 1.78 0 00.517 1.403 1.793 1.793 0 001.403.518 1.803 1.803 0 001.919-1.921v-7.07h2.112v7.147a3.835 3.835 0 01-4.089 3.823zm9.752 0a5.162 5.162 0 01-3.974-1.441l1.383-1.383a3.54 3.54 0 002.63.922c1.248 0 1.919-.48 1.919-1.345a1.237 1.237 0 00-.345-.922 1.67 1.67 0 00-.96-.365l-1.305-.192a3.589 3.589 0 01-2.112-.846 2.872 2.872 0 01-.768-2.132 3.337 3.337 0 011.162-2.534 3.346 3.346 0 012.677-.77 4.66 4.66 0 013.514 1.267l-1.344 1.326a3.062 3.062 0 00-2.227-.75c-1.133 0-1.69.635-1.69 1.384a1.055 1.055 0 00.327.768c.283.241.63.395.998.442l1.286.173c.742.06 1.446.349 2.016.826.292.306.517.668.662 1.065.146.397.208.819.183 1.24 0 2.076-1.766 3.267-4.032 3.267zm12.268-.096v-4.553h-3.725v4.553h-2.035V4.208h2.131v4.438h3.629V4.208h2.111v10.874h-2.111zm4.991 0V4.208h2.131v10.874h-2.131zm-38.069 48.433v-4.13h-1.92v4.13h-.998V58.52h3.935v4.995h-1.017zm6.623-.404a1.684 1.684 0 01-1.248.461 1.515 1.515 0 01-1.286-.576v2.536h-.998V58.52h.979v.518a1.55 1.55 0 011.305-.576 1.578 1.578 0 011.69 1.287c.048.428.048.86 0 1.287a2.806 2.806 0 01-.442 2.075zm-1.497-3.842a.885.885 0 00-.845.48 3.124 3.124 0 00-.192 1.23c0 1.133.307 1.613 1.056 1.613.749 0 1.037-.48 1.037-1.671s-.308-1.575-1.056-1.575v-.077zm7.238 3.707a2.086 2.086 0 01-1.498.596 1.918 1.918 0 01-1.478-.596 2.571 2.571 0 01-.493-.9c-.102-.33-.137-.677-.102-1.02a2.609 2.609 0 01.595-1.922 1.92 1.92 0 011.478-.577 2.05 2.05 0 011.498.577c.437.54.644 1.23.575 1.921a2.597 2.597 0 01-.575 1.921zm-.73-3.304a1.025 1.025 0 00-.768-.327.98.98 0 00-.768.346 2.156 2.156 0 00-.307 1.364c-.052.46.064.925.326 1.306a1.003 1.003 0 00.749.308 1.016 1.016 0 00.768-.327 1.92 1.92 0 00.307-1.306c.06-.477-.048-.96-.307-1.364zm6.892-1.152v4.11h.672v2.153h-.96v-1.268h-3.225v1.268h-.96V62.63h.537a5.766 5.766 0 00.557-2.843V58.52h3.379zm-2.419 1.671a5.313 5.313 0 01-.48 2.44h1.92v-3.247h-1.402l-.038.807zm6.239 4.303a1.324 1.324 0 01-1.382 1h-.403v-.903h.249c.403 0 .576-.116.711-.538l.288-.788-1.767-4.745h1.075l1.191 3.515 1.171-3.515h1.075l-2.208 5.974zm3.571-.979V58.52h1.017v2.382l1.92-2.383h1.21l-1.92 2.344 2.131 2.652h-1.229l-1.92-2.594v2.594h-1.209zm7.449-4.131v4.13h-.999v-4.13h-1.593v-.864h4.223v.864h-1.631zm6.066 4.131v-3.44l-2.131 3.44h-1.017V58.52h1.017v3.38l2.131-3.38h.998v4.995h-.998zm7.468.057a2.897 2.897 0 01-2.093-.73l.595-.634a1.92 1.92 0 001.363.5c.519 0 1.056-.25 1.056-.711 0-.461-.345-.673-.864-.673h-.749v-.749h.73c.48 0 .806-.25.806-.672 0-.423-.384-.634-.979-.634a2.108 2.108 0 00-1.209.384l-.557-.634a3.07 3.07 0 011.92-.557c.96 0 1.785.46 1.785 1.344a1.172 1.172 0 01-.729 1.096 1.208 1.208 0 01.806 1.152 1.721 1.721 0 01-.627 1.15 1.702 1.702 0 01-1.254.368zm8.178.922a1.308 1.308 0 01-1.382 1h-.403v-.903h.268c.403 0 .557-.116.711-.538l.268-.788-1.747-4.745h1.075l1.191 3.515 1.152-3.515h1.075l-2.208 5.974zm6.451-1.094a2.22 2.22 0 01-.903.172c-1.401 0-2.227-.96-2.227-2.593s.826-2.517 2.227-2.517c.308-.002.613.05.903.154.277.136.525.325.729.557l-.672.653a1.306 1.306 0 00-.979-.48c-.806 0-1.209.576-1.209 1.652s.403 1.671 1.209 1.671a1.212 1.212 0 00.979-.48l.672.672c-.204.227-.453.41-.729.538zm4.703.115h-2.323V58.52h.998v1.92h1.325a1.556 1.556 0 010 3.113v-.038zm-.173-2.287h-1.152v1.46h1.152a.729.729 0 100-1.46zm6.777 1.749a2.188 2.188 0 01-2.995 0 2.57 2.57 0 01-.576-1.922 2.615 2.615 0 01.576-1.92 2.227 2.227 0 012.995 0c.438.538.645 1.229.576 1.92a2.598 2.598 0 01-.576 1.922zm-.73-3.305a1.006 1.006 0 00-.768-.326.936.936 0 00-.767.345 2.15 2.15 0 00-.308 1.364c-.052.461.064.925.327 1.307a.962.962 0 00.748.307 1.015 1.015 0 00.768-.326 1.93 1.93 0 00.308-1.307c.06-.476-.049-.96-.308-1.364zm4.205-.288v4.13h-.999V58.52h3.226v.865h-2.227zm6.872 3.593a2.148 2.148 0 01-2.975 0 2.571 2.571 0 01-.493-.9c-.102-.33-.137-.678-.102-1.022a2.609 2.609 0 01.595-1.92 2.205 2.205 0 012.975 0 2.55 2.55 0 01.576 1.92 2.58 2.58 0 01-.095 1.019c-.098.33-.262.637-.481.903zm-.729-3.305a1.037 1.037 0 00-1.536 0 2.156 2.156 0 00-.307 1.364c-.044.46.071.921.326 1.307a1.095 1.095 0 001.536 0c.243-.39.351-.85.307-1.307a1.92 1.92 0 00-.326-1.364zm8.889 3.728c-.279.121-.58.18-.884.172-1.42 0-2.246-.96-2.246-2.593s.845-2.517 2.246-2.517a1.922 1.922 0 011.632.71l-.672.654a1.305 1.305 0 00-.979-.48c-.806 0-1.209.576-1.209 1.652s.403 1.671 1.209 1.671a1.208 1.208 0 00.979-.48l.672.672a2.305 2.305 0 01-.748.538zm4.876.114h-2.477V58.52h2.381a1.346 1.346 0 011.516 1.326 1.074 1.074 0 01-.71 1.076 1.193 1.193 0 01.787 1.172 1.37 1.37 0 01-.423 1.054 1.364 1.364 0 01-1.074.367zm-.308-4.207h-1.171v1.249h1.171c.48 0 .749-.211.749-.634 0-.423-.23-.615-.749-.615zm0 2.037h-1.228v1.383h1.228a.675.675 0 00.716-.404.676.676 0 00.052-.288c.058-.442-.249-.691-.71-.691h-.058zm3.648-4.861h1.075v.884h-1.075v-.884zm0 2.132h.998v4.9h-.998v-4.9zm5.01.769v4.13h-.998v-4.13h-1.574v-.864h4.031v.864h-1.459zm4.493 5.11a1.324 1.324 0 01-1.382 1h-.404v-.903h.25c.422 0 .576-.116.73-.538l.268-.788-1.747-4.745h1.171l1.191 3.515 1.151-3.515h1.076l-2.304 5.974zM107.89 68.625v4.111h.692v2.19h-.96V73.66h-3.245v1.267h-.94v-2.19h.518a5.478 5.478 0 00.576-2.843v-1.268h3.359zm-2.303 1.671a5.312 5.312 0 01-.48 2.44h1.919V69.49h-1.439v.806zm7.429 3.324v-4.13h-1.44v1.46c0 2.113-.614 2.67-1.593 2.67h-.557v-.884h.173c.422 0 .941-.115.941-2.036v-2.075h3.494v4.995h-1.018zm2.726 0l1.075-2.056a1.38 1.38 0 01-1.036-1.422 1.49 1.49 0 01.471-1.115 1.504 1.504 0 011.141-.402h2.362v4.995h-1.018v-1.922h-.902l-.941 1.922h-1.152zm3.014-4.189h-1.171a.766.766 0 00-.818 1.081.757.757 0 00.489.418c.107.03.219.037.329.02h1.171v-1.52zm9.964 4.189v-3.074h-2.86v3.074h-1.075v-7.013h1.056v2.998h2.86v-2.998h1.056v7.013h-1.037zm6.585-.615a2.152 2.152 0 01-2.976 0 2.613 2.613 0 01-.595-1.921 2.543 2.543 0 01.595-1.921 2.148 2.148 0 012.976 0 2.543 2.543 0 01.595 1.921 2.628 2.628 0 01-.595 1.921zm-.749-3.343a1.094 1.094 0 00-1.478 0 1.92 1.92 0 00-.327 1.364c-.06.486.055.977.327 1.384a1.094 1.094 0 001.478 0c.288-.4.412-.895.345-1.384a1.922 1.922 0 00-.345-1.287v-.077zm7.18 3.958l-1.478-2.959h-1.325v2.959h-1.075v-7.012h2.726a1.917 1.917 0 012.041 1.202c.104.265.148.55.128.834a1.917 1.917 0 01-1.401 1.921l1.612 3.113-1.228-.058zm-1.229-6.07h-1.574v2.209h1.574a1.078 1.078 0 001.105-.65c.06-.14.089-.292.085-.446a1.067 1.067 0 00-.734-1.065c-.146-.049-.302-.066-.456-.049zm4.915 3.86a1.25 1.25 0 00.745 1.302c.165.07.343.105.522.101a1.515 1.515 0 001.21-.519l.633.596a2.287 2.287 0 01-1.92.788c-1.247 0-2.246-.673-2.246-2.575 0-1.613.845-2.535 2.112-2.535a2.13 2.13 0 012.131 2.4v.443h-3.187zm2.112-1.382a1.076 1.076 0 00-.998-.634 1.04 1.04 0 00-.98.633 1.313 1.313 0 00-.134.692h2.246a1.927 1.927 0 00-.134-.691zm5.317 3.649a2.571 2.571 0 01-1.919-.749c-.672-.691-.672-1.48-.672-2.824 0-1.345 0-2.113.672-2.805a2.571 2.571 0 011.919-.75 2.418 2.418 0 012.515 2.153h-1.094a1.443 1.443 0 00-1.758-1.169 1.439 1.439 0 00-.68.38c-.346.385-.442.789-.442 2.191 0 1.403 0 1.825.442 2.19a1.344 1.344 0 001.017.423 1.44 1.44 0 001.44-1.191h1.075a2.459 2.459 0 01-2.515 2.151zm6.988-.057v-.461a1.653 1.653 0 01-1.344.518 1.725 1.725 0 01-1.324-.46 1.49 1.49 0 01-.403-1.076c0-.827.575-1.422 1.727-1.422h1.325v-.365c0-.634-.326-.942-1.094-.942a1.17 1.17 0 00-1.095.48l-.672-.614a2.063 2.063 0 011.805-.71c1.363 0 2.054.576 2.054 1.709v3.343h-.979zm0-2.21h-1.171c-.595 0-.902.27-.902.711 0 .442.288.711.921.711a1.115 1.115 0 00.922-.288.934.934 0 00.23-.73v-.403z" fill="#242424"/><path d="M66.72 11.52c2.114 2.108 3.845 4.216 5.383 6.707-.961.192-1.923.575-3.076.767-1.73.575-3.461 1.342-5.576 2.108-.962.383-1.923.958-3.077 1.533-.961.575-2.115 1.15-3.269 1.725-1.922 1.533-4.23 2.875-6.152 4.791-.577.384-.962.959-1.538 1.342-.385.575-.962 1.15-1.346 1.533-.962 1.15-1.73 2.108-2.5 3.45-1.73 2.3-3.076 4.79-4.614 7.09l-2.308 3.45c-.769 1.15-1.538 2.3-2.5 3.258-1.73 2.108-3.653 3.833-5.575 5.366-2.115 1.342-4.038 2.875-6.153 3.833-.962.575-2.115.958-3.076 1.533-.962.575-1.923.767-2.885 1.15-1.922.767-3.653 1.533-5.191 1.917-1.538.383-3.076.766-4.23 1.15a37.424 37.424 0 01-3.269-4.408c.193 0 .385-.192.577-.192 1.73-.575 3.461-1.533 5.576-2.3.961-.383 2.115-.766 3.076-1.533.962-.575 2.115-1.15 3.27-1.916 2.306-1.15 4.23-2.875 6.536-4.6 2.115-1.916 4.23-3.833 5.96-6.324.962-1.15 1.731-2.3 2.5-3.642.77-1.15 1.539-2.49 2.308-3.64 1.538-2.492 2.692-4.984 4.23-7.092.769-1.15 1.538-2.3 2.307-3.258.385-.575.77-.958 1.154-1.533l1.346-1.341c1.73-1.917 3.653-3.258 5.576-4.791l2.884-1.725c.961-.575 1.922-1.15 2.884-1.534a68.927 68.927 0 005.191-2.3c1.538-.574 3.077-.957 4.23-1.34.193 0 .577-.192.77-.192.384.575.576.766.576.958zM4.806 43.14c.961-.575 1.923-.958 3.076-1.533 2.115-.958 4.038-2.491 6.153-3.833 1.923-1.724 3.845-3.258 5.576-5.366.961-.958 1.73-2.108 2.5-3.258l2.307-3.45c1.538-2.3 2.884-4.79 4.614-7.09.77-1.15 1.73-2.3 2.5-3.45.385-.575.961-1.15 1.346-1.533l1.538-1.533c1.923-2.108 4.23-3.45 6.153-4.791 1.154-.575 2.115-1.15 3.269-1.725a22.984 22.984 0 013.076-1.533c1.923-.767 3.653-1.342 5.191-1.917C46.723.213 41.146-.362 35.571.213c-.577.383-1.154.766-1.73.958-1.731 1.533-3.846 2.875-5.577 4.791l-1.346 1.342c-.384.575-.769.958-1.153 1.533-.77.958-1.538 2.108-2.308 3.258-1.538 2.3-2.691 4.79-4.23 7.09-.769 1.15-1.346 2.492-2.307 3.642-.769 1.15-1.538 2.491-2.5 3.45-2.114 2.491-4.23 4.407-6.152 6.324-2.307 1.533-4.23 3.45-6.538 4.6-.576.383-1.153.574-1.73.958 0 2.3 0 4.6.385 6.707.384-.191.96-.383 1.538-.575.961-.383 1.922-.575 2.884-1.15zm65.18-10.348c-.96.575-1.922 1.15-3.075 1.724-1.73 1.533-3.846 2.875-5.576 4.791L59.99 40.65c-.385.575-.77.958-1.154 1.533-.77.959-1.538 2.108-2.307 3.258-1.539 2.3-2.884 4.791-4.23 7.091-.77 1.15-1.346 2.492-2.308 3.641-.769 1.15-1.538 2.492-2.5 3.45-1.73 2.3-3.845 4.216-5.767 6.133-2.308 1.533-4.23 3.45-6.538 4.6-1.153.574-2.115 1.15-3.268 1.724-.962.575-2.115.958-3.077 1.341l-4.038 1.725c3.27 1.342 6.922 2.108 10.383 2.492h.193c.96-.384 1.922-.575 2.884-1.15.961-.575 1.922-.958 3.076-1.533 2.115-.959 4.038-2.492 6.153-3.833 1.923-1.725 3.845-3.258 5.576-5.366.961-.959 1.73-2.108 2.5-3.258l2.307-3.45c1.538-2.3 2.884-4.791 4.614-7.09.77-1.15 1.73-2.3 2.5-3.45.384-.575.961-1.15 1.346-1.534.577-.575.961-.958 1.538-1.341 1.923-1.917 4.23-3.45 6.153-4.791 1.153-.575 2.115-1.15 3.268-1.725.385-.192.577-.383.962-.575 0-3.066-.385-6.133-1.154-9.007-1.346.575-2.692 1.15-4.23 1.724-.961.384-1.923 1.15-2.884 1.534zM10.96 23.977c.961-.958 1.73-2.108 2.5-3.258l2.306-3.45c1.539-2.3 2.885-4.79 4.615-7.09.77-1.15 1.73-2.3 2.5-3.45.384-.575.961-1.15 1.346-1.534.576-.574.961-.958 1.538-1.341.769-.767 1.73-1.533 2.5-2.3-6.153 1.725-11.922 4.983-16.729 9.966C5.577 17.46 1.924 24.935.576 32.6c1.731-.957 3.27-2.107 5-3.257 1.73-1.725 3.845-3.45 5.384-5.366zM69.796 47.74l-1.346 1.342c-.385.574-.77.958-1.154 1.533-.769.958-1.538 2.108-2.307 3.258-1.538 2.3-2.692 4.79-4.23 7.09-.77 1.15-1.346 2.492-2.307 3.642-.77 1.15-1.539 2.491-2.5 3.45-1.73 2.3-3.846 4.216-5.96 6.132-1.346.958-2.692 2.108-4.038 3.066 7.498-1.341 14.805-4.982 20.765-10.732 7.114-7.09 10.768-16.098 11.345-25.297-.962.575-1.731.958-2.692 1.533-1.73 1.725-3.846 3.066-5.576 4.983zm-5.384-24.722c-.961.383-1.923.958-2.884 1.533l-2.884 1.725c-1.73 1.533-3.846 2.874-5.576 4.79l-1.346 1.342c-.385.575-.77.959-1.154 1.533-.769.959-1.538 2.108-2.307 3.258-1.538 2.3-2.692 4.792-4.23 7.091-.77 1.15-1.346 2.492-2.307 3.642-.77 1.15-1.539 2.491-2.5 3.45-1.73 2.299-3.845 4.215-5.96 6.132-2.308 1.533-4.23 3.45-6.538 4.6-1.153.574-2.115 1.15-3.268 1.724-.962.575-2.115.959-3.077 1.342-2.115.766-3.845 1.725-5.576 2.3l-1.73.575c1.73 1.533 3.653 2.874 5.576 4.216.961-.192 1.922-.575 3.076-.959 1.538-.575 3.269-1.15 5.191-1.916.962-.383 1.923-.575 2.885-1.15.96-.575 1.922-.958 3.076-1.533 2.115-.958 4.038-2.492 6.153-3.833 1.923-1.725 3.845-3.258 5.576-5.366.961-.958 1.73-2.108 2.5-3.258l2.307-3.45c1.538-2.3 2.884-4.79 4.614-7.09.77-1.15 1.73-2.3 2.5-3.45.384-.575.961-1.15 1.346-1.533.577-.575.961-.959 1.538-1.342 1.923-2.108 4.23-3.45 6.153-4.791 1.153-.575 2.115-1.15 3.268-1.725.962-.575 1.923-1.15 3.077-1.533a59.94 59.94 0 004.614-1.725 31.602 31.602 0 00-3.46-7.857c-.962.383-2.116.575-3.462 1.15-1.538.574-3.268 1.341-5.191 2.108zM10.191 52.532c.96-.383 1.922-.575 2.884-1.15.961-.575 1.922-.958 3.076-1.533 2.115-.958 4.038-2.491 6.153-3.833 1.923-1.725 3.845-3.258 5.576-5.366.961-.958 1.73-2.108 2.5-3.066l2.307-3.45c1.538-2.3 2.884-4.791 4.614-7.09.77-1.15 1.73-2.3 2.692-3.45.385-.575.962-1.15 1.346-1.534.577-.575.961-.958 1.538-1.341 1.923-1.917 4.23-3.45 6.345-4.791 1.154-.575 2.115-1.15 3.269-1.725.961-.575 2.115-1.15 3.076-1.342 2.115-.766 3.846-1.341 5.576-2.108 1.538-.383 2.884-.766 4.038-.958-2.884-2.491-5.96-4.408-9.23-5.941-1.345 0-2.114.192-2.883.383-1.538.575-3.269 1.342-5.192 2.108-.961.384-1.922.959-2.884 1.534l-2.884 1.724c-1.73 1.534-3.845 2.683-5.576 4.6l-1.346 1.341c-.577.575-.961 1.15-1.346 1.725-.769.958-1.538 2.108-2.307 3.258-1.538 2.3-2.692 4.791-4.23 7.091-.77 1.15-1.346 2.492-2.307 3.641-.77 1.15-1.538 2.492-2.5 3.45-1.73 2.3-3.845 4.216-5.96 6.133-2.308 1.533-4.23 3.45-6.538 4.6-1.153.574-2.115 1.15-3.268 1.724-.962.767-1.923 1.15-3.077 1.533-.769.384-1.538.575-2.307.958.577 1.725 1.154 3.45 1.923 5.175.576-.192 1.153-.383 1.73-.383 1.73-.575 3.269-1.342 5.192-1.917z" fill="url(#paint0_linear)"/><path opacity=".39" d="M20.765 6.346c1.539-.767 3.077-1.534 4.615-2.109-.384.384-.769.767-1.153.959-.385.575-.962 1.15-1.346 1.533a2.646 2.646 0 00-.577.766c-.192.192-.577.192-.962.192-.961.383-1.538-.958-.576-1.341zM49.03 3.088c-1.923-.575-4.038-.959-6.153-1.15-3.653-.384-7.306-.192-10.767.383-1.346 1.15-2.884 2.108-4.038 3.641l-.192.192c2.692-.383 5.383-.767 8.075-.767 2.308 0 4.615.192 6.73.575l1.154-.575a22.986 22.986 0 013.076-1.533c.577 0 1.346-.383 2.115-.766zM70.565 32.6c.769 2.875 1.153 5.941 1.153 9.008v.958l2.308-1.725c.769-.383 1.73-.958 2.5-1.342 0-1.341 0-2.874-.193-4.216-.192-1.725-.577-3.258-.962-4.983-.769.384-1.73.767-2.499 1.15-.77.192-1.538.575-2.307 1.15zM62.297 9.987c-2.884-2.3-6.153-4.216-9.614-5.75-1.538.575-3.076 1.342-4.999 2.109-.385.191-.961.383-1.346.574 3.653 1.15 6.922 2.875 9.998 4.983 1.538-.575 3.077-1.15 4.23-1.533.77 0 1.154-.191 1.73-.383zm12.498 18.206c-.962-2.875-2.115-5.366-3.461-7.857-.577.191-.962.383-1.538.575-1.154.383-2.308.958-3.654 1.533 1.538 2.491 2.885 5.174 3.846 7.857.769-.383 1.346-.766 2.115-.958.769-.383 1.73-.767 2.692-1.15zm-4.615-9.582c-1.73-2.492-3.653-4.983-5.96-6.9-.77.192-1.73.576-2.884.959l-2.885 1.15c2.308 1.916 4.423 4.216 6.345 6.707 1.539-.575 2.884-1.15 4.23-1.533.385-.191.77-.383 1.154-.383zm1.346 27.405c-.192 3.45-.577 6.708-1.346 9.583-.384 1.341 1.538 2.108 2.115.766 2.115-4.216 3.461-9.007 3.846-13.99-.385.192-.577.383-.962.575-.961.958-2.307 1.916-3.653 3.066z" fill="#fff"/><path opacity=".75" d="M75.18 28.193c-.577.191-1.347.575-1.923.766-.962-2.874-2.308-5.366-3.846-7.857 0 0 .192 0 .192-.192.77-.191 1.539-.383 2.116-.575 1.538 2.3 2.691 4.983 3.46 7.858zM64.797 11.52c-.77.191-1.73.575-2.884.958a54.082 54.082 0 016.345 6.9c.192 0 .576-.193.769-.384.576-.192 1.153-.384 1.73-.384-1.73-2.683-3.653-5.174-5.96-7.09zm10.96 18.59c-.578.19-1.347.574-1.924.766.77 2.875 1.347 5.94 1.347 9.199.576-.192.96-.575 1.538-.767v-.383c.192-3.066-.193-5.941-.962-8.816zm-.385 12.84c0 1.15-.192 2.49-.385 3.64 0 .767.962.767 1.154.192.384-1.533.577-3.066.769-4.6-.577.193-.961.576-1.538.767zM32.495 1.937c-.577.384-1.154.958-1.923 1.342 1.923-.384 4.037-.384 5.96-.384 3.269 0 6.538.384 9.806 1.15h.193a52.654 52.654 0 003.076-1.15c-3.461-.958-6.922-1.533-10.575-1.533a37.67 37.67 0 00-6.537.575zm20.957 2.3c-.192 0-.192 0-.384.192-.77.383-1.73.766-2.692 1.15 3.461 1.341 6.73 3.066 9.614 5.366.192 0 .384-.192.577-.192.769-.192 1.73-.383 2.307-.575-2.692-2.683-5.96-4.6-9.422-5.941z" fill="#fff"/></g><defs><linearGradient id="paint0_linear" x1="78.531" y1="39.101" x2=".295" y2="39.1" gradientUnits="userSpaceOnUse"><stop stop-color="#E54E26"/><stop offset="0" stop-color="#E54E26"/><stop offset="1" stop-color="#F9A980"/></linearGradient><clipPath id="clip0"><path fill="#fff" d="M0 0h234v78H0z"/></clipPath></defs></svg>