<svg width="1631" height="42" viewBox="0 0 1631 42" fill="none" xmlns="http://www.w3.org/2000/svg">
<path d="M8.85955 18.7252V12.93H10.6191L10.8806 10.6611H8.85955V9.21585C8.85955 8.56111 9.02373 8.11283 9.86945 8.11283H10.9411V6.08992C10.4197 6.02783 9.89558 5.99785 9.37118 6.00012C7.81591 6.00012 6.74809 7.05506 6.74809 8.99171V10.6568H5V12.9258H6.75191V18.7252H8.85955Z" fill="white"/>
<path d="M22 18L27 12L22 6" stroke="#F3F6FA" stroke-width="2" stroke-linecap="round" stroke-linejoin="round"/>
<path d="M45 18L40 12L45 6" stroke="#242424" stroke-width="2" stroke-linecap="round" stroke-linejoin="round"/>
<path fill-rule="evenodd" clip-rule="evenodd" d="M56.2 6.5H65.8C66.46 6.5 67 7.00625 67 7.625V14.375C67 14.9937 66.46 15.5 65.8 15.5H56.2C55.54 15.5 55 14.9937 55 14.375V7.625C55 7.00625 55.54 6.5 56.2 6.5Z" fill="#FA4616"/>
<path d="M66 7.5L61 11.5L56 7.5" stroke="#1D1D1B" stroke-linecap="round" stroke-linejoin="round"/>
<path fill-rule="evenodd" clip-rule="evenodd" d="M88.9996 13.9843V15.7908C89.001 16.1299 88.8591 16.4539 88.6087 16.6831C88.3583 16.9124 88.0227 17.0256 87.6843 16.9951C85.8277 16.7938 84.0443 16.1606 82.4773 15.1465C81.0195 14.2219 79.7836 12.9884 78.8572 11.5335C77.8375 9.96259 77.2029 8.17405 77.0049 6.31277C76.9744 5.97609 77.0871 5.64211 77.3155 5.39244C77.5439 5.14276 77.8669 5.00038 78.2056 5.00006H80.0157C80.6213 4.99411 81.1376 5.43721 81.2224 6.03578C81.2988 6.61389 81.4404 7.18152 81.6447 7.72785C81.8105 8.16795 81.7044 8.66409 81.3732 8.99841L80.6069 9.76315C81.4659 11.2707 82.7165 12.5189 84.2271 13.3761L84.9933 12.6114C85.3283 12.2808 85.8254 12.175 86.2664 12.3404C86.8138 12.5443 87.3826 12.6857 87.9619 12.7619C88.5686 12.8473 89.0148 13.373 88.9996 13.9843Z" fill="#FA4616"/>
<path d="M111.707 13.0711C112.098 12.6805 112.098 12.0474 111.707 11.6569L105.343 5.29289C104.953 4.90237 104.319 4.90237 103.929 5.29289C103.538 5.68342 103.538 6.31658 103.929 6.70711L109.586 12.364L103.929 18.0209C103.538 18.4114 103.538 19.0445 103.929 19.4351C104.319 19.8256 104.953 19.8256 105.343 19.4351L111.707 13.0711ZM99 13.364H111V11.364H99V13.364Z" fill="white"/>
<path d="M133.312 6.06689L122.566 10.2105C121.833 10.5051 121.837 10.9142 122.432 11.0966L125.191 11.9572L131.574 7.92992C131.876 7.74628 132.151 7.84507 131.925 8.04628L126.753 12.7136H126.752L126.753 12.7142L126.563 15.5578C126.842 15.5578 126.965 15.4299 127.121 15.279L128.461 13.976L131.248 16.0348C131.762 16.3178 132.131 16.1723 132.259 15.559L134.089 6.93598C134.276 6.18507 133.802 5.84508 133.312 6.06689Z" fill="white"/>
<path d="M158 6L152 11L146 6" stroke="#242424" stroke-linecap="round" stroke-linejoin="round"/>
<path d="M172 11C173.657 11 175 9.65685 175 8C175 6.34315 173.657 5 172 5C170.343 5 169 6.34315 169 8C169 9.65685 170.343 11 172 11Z" fill="white"/>
<path d="M180 11C181.657 11 183 9.65685 183 8C183 6.34315 181.657 5 180 5C178.343 5 177 6.34315 177 8C177 9.65685 178.343 11 180 11Z" fill="white"/>
<path d="M180 19C181.657 19 183 17.6569 183 16C183 14.3431 181.657 13 180 13C178.343 13 177 14.3431 177 16C177 17.6569 178.343 19 180 19Z" fill="white"/>
<path d="M172 19C173.657 19 175 17.6569 175 16C175 14.3431 173.657 13 172 13C170.343 13 169 14.3431 169 16C169 17.6569 170.343 19 172 19Z" fill="white"/>
<path d="M200 5C196.134 5 193 8.35826 193 12.5C193 16.6417 196.134 20 200 20C203.866 20 207 16.6417 207 12.5C207 8.35826 203.866 5 200 5ZM203.023 10.0508L199.733 14.9392C199.687 15.008 199.626 15.064 199.556 15.1027C199.486 15.1413 199.408 15.1615 199.329 15.1615C199.25 15.1615 199.172 15.1413 199.102 15.1027C199.032 15.064 198.971 15.008 198.925 14.9392L196.977 12.0463C196.917 11.9576 196.977 11.8337 197.078 11.8337H197.811C197.97 11.8337 198.122 11.9157 198.216 12.0564L199.328 13.7104L201.784 10.0608C201.878 9.92187 202.028 9.83817 202.189 9.83817H202.922C203.023 9.83817 203.083 9.96205 203.023 10.0508Z" fill="#39B54A"/>
<path d="M224 7.40454L223.373 6.75967C221.9 5.24592 219.2 5.7683 218.225 7.67142C217.767 8.56654 217.664 9.85892 218.5 11.5083C219.305 13.0964 220.979 14.9987 224 17.0707C227.02 14.9987 228.694 13.0964 229.5 11.5083C230.336 9.85804 230.233 8.56654 229.775 7.67142C228.8 5.7683 226.1 5.24505 224.627 6.75879L224 7.40454ZM224 18.125C210.584 9.25954 219.869 2.34004 223.846 6.00017C223.898 6.04829 223.95 6.09817 224 6.14979C224.049 6.09821 224.101 6.04859 224.154 6.00104C228.13 2.33829 237.416 9.25867 224 18.125Z" fill="#464646"/>
<path d="M247.25 5.26607C247.681 4.91131 248.319 4.91131 248.75 5.26607L254.602 10.0922C255.404 10.753 254.913 12.0064 253.853 12.0064H242.147C241.087 12.0064 240.596 10.753 241.398 10.0922L247.25 5.26607Z" fill="#C5C5C5"/>
<path fill-rule="evenodd" clip-rule="evenodd" d="M244.565 10.0987C243.301 10.0987 242.275 11.0748 242.275 12.2789V18.8197C242.275 20.0239 243.301 21 244.565 21H246.855V16.6395H249.145V21H251.435C252.699 21 253.725 20.0239 253.725 18.8197V12.2789C253.725 11.0748 252.699 10.0987 251.435 10.0987H244.565Z" fill="#C5C5C5"/>
<path d="M272.362 9.09848C270.555 9.09848 269.097 10.5567 269.097 12.3636C269.097 14.1705 270.555 15.6288 272.362 15.6288C274.169 15.6288 275.627 14.1705 275.627 12.3636C275.627 10.5567 274.169 9.09848 272.362 9.09848ZM272.362 14.4857C271.193 14.4857 270.24 13.5321 270.24 12.3636C270.24 11.1951 271.193 10.2415 272.362 10.2415C273.53 10.2415 274.484 11.1951 274.484 12.3636C274.484 13.5321 273.53 14.4857 272.362 14.4857ZM275.761 8.20378C275.339 8.20378 274.998 8.54447 274.998 8.96634C274.998 9.38822 275.339 9.7289 275.761 9.7289C276.183 9.7289 276.523 9.38981 276.523 8.96634C276.523 8.86616 276.504 8.76695 276.465 8.67437C276.427 8.5818 276.371 8.49768 276.3 8.42685C276.229 8.35601 276.145 8.29985 276.053 8.26157C275.96 8.22329 275.861 8.20365 275.761 8.20378ZM278.727 12.3636C278.727 11.4849 278.735 10.614 278.685 9.73686C278.636 8.71799 278.403 7.81374 277.658 7.0687C276.912 6.32205 276.009 6.09122 274.99 6.04187C274.111 5.99251 273.241 6.00047 272.364 6.00047C271.485 6.00047 270.614 5.99251 269.737 6.04187C268.718 6.09122 267.814 6.32365 267.069 7.0687C266.322 7.81534 266.091 8.71799 266.042 9.73686C265.993 10.6156 266 11.4864 266 12.3636C266 13.2408 265.993 14.1132 266.042 14.9904C266.091 16.0093 266.324 16.9136 267.069 17.6586C267.815 18.4052 268.718 18.6361 269.737 18.6854C270.616 18.7348 271.486 18.7268 272.364 18.7268C273.242 18.7268 274.113 18.7348 274.99 18.6854C276.009 18.6361 276.913 18.4037 277.658 17.6586C278.405 16.912 278.636 16.0093 278.685 14.9904C278.736 14.1132 278.727 13.2424 278.727 12.3636ZM277.326 16.1176C277.209 16.4073 277.069 16.6238 276.845 16.8467C276.62 17.0712 276.405 17.2113 276.116 17.3275C275.278 17.6602 273.29 17.5854 272.362 17.5854C271.434 17.5854 269.444 17.6602 268.606 17.3291C268.317 17.2129 268.1 17.0728 267.877 16.8483C267.653 16.6238 267.513 16.4089 267.397 16.1192C267.065 15.2801 267.14 13.2918 267.14 12.3636C267.14 11.4355 267.065 9.44553 267.397 8.60814C267.513 8.3184 267.653 8.10189 267.877 7.87902C268.102 7.65614 268.317 7.51445 268.606 7.39824C269.444 7.0671 271.434 7.14193 272.362 7.14193C273.29 7.14193 275.28 7.0671 276.117 7.39824C276.407 7.51445 276.624 7.65455 276.846 7.87902C277.071 8.10349 277.211 8.3184 277.327 8.60814C277.658 9.44553 277.584 11.4355 277.584 12.3636C277.584 13.2918 277.658 15.2801 277.326 16.1176Z" fill="white"/>
<path d="M302 12C302 16.6667 296 20.6667 296 20.6667C296 20.6667 290 16.6667 290 12C290 10.4087 290.632 8.88258 291.757 7.75736C292.883 6.63214 294.409 6 296 6C297.591 6 299.117 6.63214 300.243 7.75736C301.368 8.88258 302 10.4087 302 12Z" stroke="#FA4616" stroke-linecap="round" stroke-linejoin="round"/>
<path d="M296 14C297.105 14 298 13.1046 298 12C298 10.8954 297.105 10 296 10C294.895 10 294 10.8954 294 12C294 13.1046 294.895 14 296 14Z" stroke="#FA4616" stroke-linecap="round" stroke-linejoin="round"/>
<path d="M321.07 7.8316L323.898 10.6649L321.07 7.8316ZM321.07 7.8316L322.691 6.20739C322.824 6.0746 323.003 6 323.191 6C323.378 6 323.558 6.0746 323.691 6.20739L325.519 8.03914C325.652 8.17197 325.726 8.3521 325.726 8.53993C325.726 8.72775 325.652 8.90789 325.519 9.04072L323.898 10.6649L321.07 7.8316ZM321.07 7.8316L314.207 14.7074C314.075 14.8402 314 15.0203 314 15.2081V17.0399C314 17.2278 314.074 17.4079 314.207 17.5408C314.34 17.6736 314.519 17.7482 314.707 17.7482H316.535C316.723 17.7482 316.903 17.6735 317.035 17.5407L323.898 10.6649L321.07 7.8316Z" stroke="black" stroke-linecap="round" stroke-linejoin="round"/>
<path fill-rule="evenodd" clip-rule="evenodd" d="M350 14.9843V16.7908C350.001 17.1299 349.859 17.4539 349.609 17.6831C349.358 17.9124 349.023 18.0256 348.684 17.9951C346.828 17.7938 345.044 17.1606 343.477 16.1465C342.02 15.2219 340.784 13.9884 339.857 12.5335C338.838 10.9626 338.203 9.17405 338.005 7.31277C337.974 6.97609 338.087 6.64211 338.315 6.39244C338.544 6.14277 338.867 6.00038 339.206 6.00006H341.016C341.621 5.99411 342.138 6.43721 342.222 7.03578C342.299 7.61389 342.44 8.18152 342.645 8.72785C342.81 9.16795 342.704 9.66409 342.373 9.99841L341.607 10.7632C342.466 12.2707 343.717 13.5189 345.227 14.3761L345.993 13.6114C346.328 13.2808 346.825 13.175 347.266 13.3404C347.814 13.5443 348.383 13.6857 348.962 13.7619C349.569 13.8473 350.015 14.373 350 14.9843Z" stroke="#FA4616" stroke-linecap="round" stroke-linejoin="round"/>
<path fill-rule="evenodd" clip-rule="evenodd" d="M363.666 8.16663H374.333C375.066 8.16663 375.666 8.76663 375.666 9.49996V17.5C375.666 18.2333 375.066 18.8333 374.333 18.8333H363.666C362.933 18.8333 362.333 18.2333 362.333 17.5V9.49996C362.333 8.76663 362.933 8.16663 363.666 8.16663Z" stroke="#FA4616" stroke-linecap="round" stroke-linejoin="round"/>
<path d="M375.666 9.5L369 14.1667L362.333 9.5" stroke="#FA4616" stroke-linecap="round" stroke-linejoin="round"/>
<path fill-rule="evenodd" clip-rule="evenodd" d="M387.5 12.1579C387.5 8.2047 390.705 5 394.658 5C398.611 5 401.816 8.2047 401.816 12.1579C401.816 16.1111 398.611 19.3158 394.658 19.3158C390.705 19.3158 387.5 16.1111 387.5 12.1579ZM394.658 5.8421C391.17 5.8421 388.342 8.66978 388.342 12.1579C388.342 15.646 391.17 18.4737 394.658 18.4737C398.146 18.4737 400.974 15.646 400.974 12.1579C400.974 8.66978 398.146 5.8421 394.658 5.8421Z" fill="#E7590E"/>
<path fill-rule="evenodd" clip-rule="evenodd" d="M399.118 16.6181C399.282 16.4536 399.549 16.4536 399.713 16.6181L403.377 20.2812C403.541 20.4456 403.541 20.7122 403.377 20.8767C403.212 21.0411 402.946 21.0411 402.781 20.8767L399.118 17.2135C398.954 17.0491 398.954 16.7825 399.118 16.6181Z" fill="#E7590E"/>
<path d="M422.522 6.34549C422.671 5.88484 423.323 5.88484 423.473 6.34549L425.018 11.1008C425.085 11.3068 425.277 11.4463 425.493 11.4463H430.493C430.978 11.4463 431.179 12.0661 430.787 12.3508L426.742 15.2898C426.567 15.4171 426.494 15.6428 426.56 15.8488L428.106 20.6041C428.255 21.0648 427.728 21.4479 427.336 21.1632L423.291 18.2242C423.116 18.0969 422.879 18.0969 422.703 18.2242L418.658 21.1632C418.266 21.4479 417.739 21.0648 417.889 20.6041L419.434 15.8488C419.501 15.6428 419.427 15.4171 419.252 15.2898L415.207 12.3508C414.815 12.0661 415.017 11.4463 415.501 11.4463H420.501C420.718 11.4463 420.91 11.3068 420.977 11.1008L422.522 6.34549Z" fill="#FFC700"/>
<path d="M447.375 11.375H448.438V17.75H447.375V11.375Z" fill="#FA4616"/>
<path d="M450.562 11.375H451.625V17.75H450.562V11.375Z" fill="#FA4616"/>
<path d="M443.125 8.1875V9.25H444.188V19.875C444.188 20.1568 444.299 20.427 444.499 20.6263C444.698 20.8256 444.968 20.9375 445.25 20.9375H453.75C454.032 20.9375 454.302 20.8256 454.501 20.6263C454.701 20.427 454.812 20.1568 454.812 19.875V9.25H455.875V8.1875H443.125ZM445.25 19.875V9.25H453.75V19.875H445.25Z" fill="#FA4616"/>
<path d="M447.375 6.0625H451.625V7.125H447.375V6.0625Z" fill="#FA4616"/>
<path d="M474.375 11.375H475.438V17.75H474.375V11.375Z" fill="#555555"/>
<path d="M477.562 11.375H478.625V17.75H477.562V11.375Z" fill="#555555"/>
<path d="M470.125 8.1875V9.25H471.188V19.875C471.188 20.1568 471.299 20.427 471.499 20.6263C471.698 20.8256 471.968 20.9375 472.25 20.9375H480.75C481.032 20.9375 481.302 20.8256 481.501 20.6263C481.701 20.427 481.812 20.1568 481.812 19.875V9.25H482.875V8.1875H470.125ZM472.25 19.875V9.25H480.75V19.875H472.25Z" fill="#555555"/>
<path d="M474.375 6.0625H478.625V7.125H474.375V6.0625Z" fill="#555555"/>
<path d="M470.125 8.1875V9.25H471.188V19.875C471.188 20.1568 471.299 20.427 471.499 20.6263C471.698 20.8256 471.968 20.9375 472.25 20.9375H480.75C481.032 20.9375 481.302 20.8256 481.501 20.6263C481.701 20.427 481.812 20.1568 481.812 19.875V9.25H482.875V8.1875H470.125ZM472.25 19.875V9.25H480.75V19.875H472.25Z" fill="#555555"/>
<path d="M474.375 6.0625H478.625V7.125H474.375V6.0625Z" fill="#555555"/>
<path d="M503 6L496 13L503 20" stroke="#FA4616" stroke-width="2" stroke-linecap="round" stroke-linejoin="round"/>
<path d="M496 13H512" stroke="#FA4616" stroke-width="2" stroke-linecap="round" stroke-linejoin="round"/>
<path d="M540.05 10H523.95C523.425 10 523 10.4253 523 10.95V11.05C523 11.5747 523.425 12 523.95 12H540.05C540.575 12 541 11.5747 541 11.05V10.95C541 10.4253 540.575 10 540.05 10Z" fill="#FA4616"/>
<path d="M540.05 15H523.95C523.425 15 523 15.4253 523 15.95V16.05C523 16.5747 523.425 17 523.95 17H540.05C540.575 17 541 16.5747 541 16.05V15.95C541 15.4253 540.575 15 540.05 15Z" fill="#FA4616"/>
<path d="M540.05 5H523.95C523.425 5 523 5.42533 523 5.95V6.05C523 6.57467 523.425 7 523.95 7H540.05C540.575 7 541 6.57467 541 6.05V5.95C541 5.42533 540.575 5 540.05 5Z" fill="#FA4616"/>
<path d="M552 12.9943L558 18.9885L568 7" stroke="#FA4616" stroke-width="2" stroke-linecap="round" stroke-linejoin="round"/>
<path d="M580 13.9375C580 13.7552 580.072 13.5803 580.201 13.4514C580.33 13.3224 580.505 13.25 580.688 13.25H584.812C584.995 13.25 585.17 13.3224 585.299 13.4514C585.428 13.5803 585.5 13.7552 585.5 13.9375C585.5 14.1198 585.428 14.2947 585.299 14.4236C585.17 14.5526 584.995 14.625 584.812 14.625H580.688C580.505 14.625 580.33 14.5526 580.201 14.4236C580.072 14.2947 580 14.1198 580 13.9375ZM580 9.8125C580 9.63016 580.072 9.4553 580.201 9.32636C580.33 9.19743 580.505 9.125 580.688 9.125H590.312C590.495 9.125 590.67 9.19743 590.799 9.32636C590.928 9.4553 591 9.63016 591 9.8125C591 9.99484 590.928 10.1697 590.799 10.2986C590.67 10.4276 590.495 10.5 590.312 10.5H580.688C580.505 10.5 580.33 10.4276 580.201 10.2986C580.072 10.1697 580 9.99484 580 9.8125ZM580 5.6875C580 5.50516 580.072 5.33029 580.201 5.20136C580.33 5.07243 580.505 5 580.688 5H595.812C595.995 5 596.17 5.07243 596.299 5.20136C596.428 5.33029 596.5 5.50516 596.5 5.6875C596.5 5.86984 596.428 6.0447 596.299 6.17364C596.17 6.30257 595.995 6.375 595.812 6.375H580.688C580.505 6.375 580.33 6.30257 580.201 6.17364C580.072 6.0447 580 5.86984 580 5.6875Z" fill="white"/>
<path d="M630 6H609C608.448 6 608 6.44772 608 7V20C608 20.5523 608.448 21 609 21H630C630.552 21 631 20.5523 631 20V7C631 6.44772 630.552 6 630 6Z" fill="white" stroke="black" stroke-width="2"/>
<path d="M630 9H608V14H630V9Z" fill="black"/>
<path d="M666.93 14.8807L664.305 8.53699C664.238 8.37319 664.126 8.23343 663.983 8.13512C663.84 8.03682 663.672 7.98432 663.5 7.98418H660.875V6.17168C660.875 5.93133 660.783 5.70082 660.619 5.53087C660.455 5.36091 660.232 5.26543 660 5.26543H643.375C643.143 5.26543 642.92 5.36091 642.756 5.53087C642.592 5.70082 642.5 5.93133 642.5 6.17168V21.5779C642.5 21.8183 642.592 22.0488 642.756 22.2187C642.92 22.3887 643.143 22.4841 643.375 22.4841H645.247C645.449 23.2521 645.889 23.93 646.499 24.4133C647.11 24.8966 647.857 25.1585 648.625 25.1585C649.393 25.1585 650.14 24.8966 650.751 24.4133C651.361 23.93 651.801 23.2521 652.002 22.4841H657.498C657.699 23.2521 658.139 23.93 658.749 24.4133C659.36 24.8966 660.107 25.1585 660.875 25.1585C661.643 25.1585 662.39 24.8966 663.001 24.4133C663.611 23.93 664.051 23.2521 664.253 22.4841H666.125C666.357 22.4841 666.58 22.3887 666.744 22.2187C666.908 22.0488 667 21.8183 667 21.5779V15.2341C667 15.1127 666.976 14.9925 666.93 14.8807ZM660.875 9.79669H662.923L664.795 14.3279H660.875V9.79669ZM648.625 23.3904C648.279 23.3904 647.941 23.2841 647.653 23.0849C647.365 22.8858 647.141 22.6027 647.008 22.2715C646.876 21.9403 646.841 21.5759 646.909 21.2243C646.976 20.8727 647.143 20.5498 647.388 20.2963C647.632 20.0428 647.944 19.8702 648.284 19.8002C648.623 19.7303 648.975 19.7662 649.295 19.9034C649.614 20.0406 649.888 20.2729 650.08 20.5709C650.272 20.869 650.375 21.2194 650.375 21.5779C650.375 22.0586 650.191 22.5196 649.862 22.8595C649.534 23.1994 649.089 23.3904 648.625 23.3904ZM657.498 20.6716H652.002C651.801 19.9037 651.361 19.2258 650.751 18.7425C650.14 18.2592 649.393 17.9973 648.625 17.9973C647.857 17.9973 647.11 18.2592 646.499 18.7425C645.889 19.2258 645.449 19.9037 645.247 20.6716H644.25V7.07793H659.125V18.4604C658.727 18.6999 658.378 19.0185 658.098 19.398C657.819 19.7774 657.615 20.2103 657.498 20.6716ZM660.875 23.3904C660.529 23.3904 660.19 23.2841 659.903 23.0849C659.615 22.8858 659.391 22.6027 659.258 22.2715C659.126 21.9403 659.091 21.5759 659.159 21.2243C659.226 20.8727 659.393 20.5498 659.638 20.2963C659.882 20.0428 660.194 19.8702 660.534 19.8002C660.873 19.7303 661.225 19.7662 661.545 19.9034C661.865 20.0406 662.138 20.2729 662.33 20.5709C662.522 20.869 662.625 21.2194 662.625 21.5779C662.625 22.0586 662.441 22.5196 662.112 22.8595C661.784 23.1994 661.339 23.3904 660.875 23.3904ZM665.25 20.6716H664.253C664.059 19.8955 663.623 19.2076 663.011 18.7157C662.4 18.2238 661.649 17.9555 660.875 17.9529V16.1404H665.25V20.6716Z" fill="black"/>
<path fill-rule="evenodd" clip-rule="evenodd" d="M687.167 29.9166C688.363 29.9166 689.333 28.9465 689.333 27.7499C689.333 26.5533 688.363 25.5833 687.167 25.5833C685.97 25.5833 685 26.5533 685 27.7499C685 28.9465 685.97 29.9166 687.167 29.9166Z" stroke="white" stroke-width="2" stroke-linecap="round" stroke-linejoin="round"/>
<path fill-rule="evenodd" clip-rule="evenodd" d="M700.167 29.9166C701.363 29.9166 702.333 28.9465 702.333 27.7499C702.333 26.5533 701.363 25.5833 700.167 25.5833C698.97 25.5833 698 26.5533 698 27.7499C698 28.9465 698.97 29.9166 700.167 29.9166Z" stroke="white" stroke-width="2" stroke-linecap="round" stroke-linejoin="round"/>
<path d="M684.643 11.4999H703.417L701.597 20.5891C701.392 21.6185 700.48 22.3534 699.43 22.3333H687.979C686.885 22.3425 685.955 21.5337 685.813 20.4483L684.166 7.96825C684.025 6.89098 683.107 6.0849 682.021 6.08325H679.583" stroke="white" stroke-width="2" stroke-linecap="round" stroke-linejoin="round"/>
<path fill-rule="evenodd" clip-rule="evenodd" d="M741.722 9.1491C740.346 7.77309 738.481 7 736.535 7C734.59 7 732.724 7.77309 731.348 9.1491L729.935 10.5624L728.522 9.1491C725.657 6.28458 721.013 6.28458 718.148 9.1491C715.284 12.0136 715.284 16.6579 718.148 19.5224L719.562 20.9357L729.935 31.3091L740.308 20.9357L741.722 19.5224C743.098 18.147 743.871 16.2812 743.871 14.3358C743.871 12.3903 743.098 10.5245 741.722 9.1491Z" stroke="#FA4616" stroke-width="2" stroke-linecap="round" stroke-linejoin="round"/>
<path fill-rule="evenodd" clip-rule="evenodd" d="M781.722 9.1491C780.346 7.77309 778.481 7 776.535 7C774.59 7 772.724 7.77309 771.348 9.1491L769.935 10.5624L768.522 9.1491C765.657 6.28458 761.013 6.28458 758.148 9.1491C755.284 12.0136 755.284 16.6579 758.148 19.5224L759.562 20.9357L769.935 31.3091L780.308 20.9357L781.722 19.5224C783.098 18.147 783.871 16.2812 783.871 14.3358C783.871 12.3903 783.098 10.5245 781.722 9.1491Z" stroke="#979797" stroke-width="2" stroke-linecap="round" stroke-linejoin="round"/>
<path fill-rule="evenodd" clip-rule="evenodd" d="M805.667 35.6668C807.139 35.6668 808.333 34.4729 808.333 33.0002C808.333 31.5274 807.139 30.3335 805.667 30.3335C804.194 30.3335 803 31.5274 803 33.0002C803 34.4729 804.194 35.6668 805.667 35.6668Z" stroke="#FA4616" stroke-width="2" stroke-linecap="round" stroke-linejoin="round"/>
<path fill-rule="evenodd" clip-rule="evenodd" d="M821.667 35.6668C823.139 35.6668 824.333 34.4729 824.333 33.0002C824.333 31.5274 823.139 30.3335 821.667 30.3335C820.194 30.3335 819 31.5274 819 33.0002C819 34.4729 820.194 35.6668 821.667 35.6668Z" stroke="#FA4616" stroke-width="2" stroke-linecap="round" stroke-linejoin="round"/>
<path d="M802.56 13.0002H825.667L823.427 24.1868C823.175 25.4538 822.052 26.3582 820.76 26.3335H806.667C805.319 26.3449 804.175 25.3495 804 24.0135L801.973 8.6535C801.8 7.32762 800.671 6.33552 799.333 6.3335H796.333" stroke="#FA4616" stroke-width="2" stroke-linecap="round" stroke-linejoin="round"/>
<path d="M849.025 32.9998C842.384 32.9998 837 27.6158 837 20.9998C837 14.3838 842.384 8.99976 849 8.99976C852.205 8.99976 855.219 10.2491 857.484 12.5158C858.512 13.5438 859.343 14.7478 859.953 16.0971C860.181 16.5998 859.957 17.1931 859.455 17.4211C858.949 17.6465 858.359 17.4251 858.131 16.9225C857.62 15.7931 856.925 14.7864 856.069 13.9304C854.181 12.0398 851.671 10.9998 849 10.9998C843.485 10.9998 839 15.4851 839 20.9998C839 26.5145 843.485 30.9998 849 30.9998C849.552 30.9998 850.013 31.4478 850.013 31.9998C850.013 32.5518 849.577 32.9998 849.025 32.9998Z" fill="#FA4616"/>
<path d="M848.386 28.2931C848.354 28.2931 848.323 28.2917 848.29 28.2891C844.511 27.9317 841.66 24.7971 841.66 20.9984C841.66 16.9558 844.949 13.6664 848.992 13.6664C850.943 13.6664 852.786 14.425 854.179 15.8051C854.638 16.2638 855.034 16.7878 855.36 17.3678C855.632 17.8478 855.462 18.4584 854.98 18.7291C854.5 18.9984 853.888 18.8304 853.619 18.3491C853.382 17.9291 853.095 17.5491 852.77 17.2224C851.756 16.2211 850.414 15.6664 848.992 15.6664C846.052 15.6664 843.66 18.0584 843.66 20.9984C843.66 23.7597 845.732 26.0384 848.479 26.2984C849.028 26.3504 849.432 26.8384 849.38 27.3877C849.331 27.9051 848.896 28.2931 848.386 28.2931Z" fill="#FA4616"/>
<path d="M849.015 21.9997C848.759 21.9997 848.503 21.9024 848.309 21.7064C847.918 21.3157 847.918 20.6824 848.309 20.2917L856.975 11.625C857.366 11.2344 857.999 11.2344 858.39 11.625C858.781 12.0157 858.781 12.649 858.39 13.0397L849.723 21.7064C849.527 21.9024 849.271 21.9997 849.015 21.9997Z" fill="#FA4616"/>
<path d="M861.349 12.9998H858.016C857.464 12.9998 857.016 12.5518 857.016 11.9998V8.66648C857.016 8.40115 857.121 8.14648 857.309 7.95981L859.976 5.29314C860.262 5.00781 860.693 4.92114 861.065 5.07581C861.438 5.23048 861.682 5.59581 861.682 5.99981V8.33315H864.016C864.42 8.33315 864.785 8.57715 864.94 8.95048C865.094 9.32381 865.009 9.75448 864.722 10.0398L862.056 12.7065C861.869 12.8945 861.614 12.9998 861.349 12.9998ZM859.016 10.9998H860.934L861.601 10.3331H860.682C860.13 10.3331 859.682 9.88515 859.682 9.33315V8.41448L859.016 9.08115V10.9998Z" fill="#FA4616"/>
<path d="M860.35 36.9997C855.572 36.9997 851.684 33.1117 851.684 28.3331C851.684 23.5544 855.572 19.6664 860.35 19.6664C865.129 19.6664 869.017 23.5544 869.017 28.3331C869.017 33.1117 865.129 36.9997 860.35 36.9997ZM860.35 21.6664C856.674 21.6664 853.684 24.6571 853.684 28.3331C853.684 32.0091 856.674 34.9997 860.35 34.9997C864.026 34.9997 867.017 32.0091 867.017 28.3331C867.017 24.6571 864.026 21.6664 860.35 21.6664Z" fill="#FA4616"/>
<path d="M859.017 31.6665C858.786 31.6665 858.554 31.5865 858.366 31.4251L856.033 29.4251C855.614 29.0651 855.565 28.4345 855.925 28.0145C856.285 27.5945 856.914 27.5451 857.335 27.9065L858.939 29.2811L862.617 25.3198C862.993 24.9144 863.625 24.8918 864.03 25.2665C864.435 25.6425 864.458 26.2758 864.083 26.6798L859.75 31.3465C859.553 31.5585 859.285 31.6665 859.017 31.6665Z" fill="#FA4616"/>
<path d="M895 15.9375C897.998 15.9375 900.438 13.4983 900.438 10.5C900.438 7.50175 897.998 5.0625 895 5.0625C892.002 5.0625 889.562 7.50175 889.562 10.5C889.562 13.4983 892.002 15.9375 895 15.9375ZM895 6.9375C896.964 6.9375 898.562 8.53562 898.562 10.5C898.562 12.4644 896.964 14.0625 895 14.0625C893.036 14.0625 891.438 12.4644 891.438 10.5C891.438 8.53562 893.036 6.9375 895 6.9375Z" fill="#FA4616"/>
<path d="M906 15.9375C907.895 15.9375 909.438 14.3954 909.438 12.5C909.438 10.6046 907.895 9.0625 906 9.0625C904.105 9.0625 902.562 10.6046 902.562 12.5C902.562 14.3954 904.105 15.9375 906 15.9375ZM906 10.9375C906.862 10.9375 907.562 11.6384 907.562 12.5C907.562 13.3616 906.862 14.0625 906 14.0625C905.138 14.0625 904.438 13.3616 904.438 12.5C904.438 11.6384 905.138 10.9375 906 10.9375Z" fill="#FA4616"/>
<path d="M906.756 18.0625H905.306C903.598 18.0625 902.123 19.072 901.45 20.522C900.067 19.0114 898.079 18.0625 895.874 18.0625H894.126C891.921 18.0625 889.933 19.0114 888.55 20.522C887.877 19.072 886.402 18.0625 884.694 18.0625H883.244C880.904 18.0625 879 19.9547 879 22.2806V29.1063C879 30.116 879.825 30.9375 880.838 30.9375H886.571C886.667 32.0562 887.608 32.9375 888.751 32.9375H901.249C902.392 32.9375 903.333 32.0562 903.429 30.9375H909.096C910.146 30.9375 911 30.0869 911 29.0413V22.2806C911 19.9547 909.096 18.0625 906.756 18.0625ZM880.875 22.2806C880.875 20.9886 881.938 19.9375 883.244 19.9375H884.694C886 19.9375 887.062 20.9886 887.062 22.2806V22.9226C886.432 24.5641 886.562 25.5478 886.562 29.0625H880.875V22.2806ZM901.562 30.7487C901.562 30.9218 901.422 31.0625 901.249 31.0625H888.751C888.578 31.0625 888.438 30.9217 888.438 30.7487V25.6264C888.438 22.4895 890.989 19.9375 894.126 19.9375H895.874C899.01 19.9375 901.562 22.4895 901.562 25.6263V30.7487ZM909.125 29.0413C909.125 29.0736 909.475 29.0625 903.438 29.0625C903.438 25.5218 903.567 24.5614 902.938 22.9226V22.2806C902.938 20.9886 904 19.9375 905.306 19.9375H906.756C908.062 19.9375 909.125 20.9886 909.125 22.2806V29.0413Z" fill="#FA4616"/>
<path d="M884 15.9375C885.895 15.9375 887.438 14.3954 887.438 12.5C887.438 10.6046 885.895 9.0625 884 9.0625C882.105 9.0625 880.562 10.6046 880.562 12.5C880.562 14.3954 882.105 15.9375 884 15.9375ZM884 10.9375C884.862 10.9375 885.562 11.6384 885.562 12.5C885.562 13.3616 884.862 14.0625 884 14.0625C883.138 14.0625 882.438 13.3616 882.438 12.5C882.438 11.6384 883.138 10.9375 884 10.9375Z" fill="#FA4616"/>
<path d="M952.994 12.8918C952.956 12.5476 952.743 12.243 952.423 12.0938L937.423 5.0938C937.155 4.96873 936.845 4.96873 936.577 5.0938L921.577 12.0938C921.257 12.243 921.044 12.5475 921.006 12.8918C921.005 12.899 921 12.9947 921 13V30C921 30.4089 921.249 30.7767 921.629 30.9285L936.629 36.9285C936.748 36.9762 936.874 37 937 37C937.126 37 937.252 36.9762 937.371 36.9285L952.371 30.9285C952.751 30.7767 953 30.4089 953 30V13C953 12.9947 952.995 12.8989 952.994 12.8918ZM937 7.10349L949.484 12.9294L944.677 14.8522L931.958 9.45649L937 7.10349ZM929.519 10.5945L942.041 15.9066L937 17.923L924.516 12.9294L929.519 10.5945ZM923 14.477L936 19.677V34.523L923 29.323V14.477ZM938 34.523V19.677L951 14.477V29.323L938 34.523Z" fill="#FA4616"/>
<path d="M994.377 13.5556L979.504 6.11903C979.187 5.96032 978.813 5.96032 978.496 6.11903L963.623 13.5556C963.241 13.7466 963 14.1366 963 14.5635V35.0142C963 35.6364 963.504 36.1409 964.127 36.1409H967.845C968.467 36.1409 968.972 35.6365 968.972 35.0142V17.5494H989.028V35.0142C989.028 35.6364 989.533 36.1409 990.155 36.1409H993.873C994.496 36.1409 995 35.6365 995 35.0142V14.5635C995 14.1366 994.759 13.7466 994.377 13.5556ZM992.747 33.8874H991.282V16.4226C991.282 15.8004 990.777 15.2958 990.155 15.2958H967.845C967.223 15.2958 966.718 15.8003 966.718 16.4226V33.8874H965.253V15.2598L979 8.38661L992.747 15.2598V33.8874Z" fill="#FA4616"/>
<path d="M1005 21C1005 29.8091 1012.19 36.9994 1021 37C1029.81 36.9999 1037 29.8094 1037 21C1037 12.1901 1029.81 5 1021 5C1012.2 5 1005 12.1824 1005 21ZM1006.88 21C1006.88 18.196 1007.7 15.5803 1009.11 13.3806L1010.89 13.8142C1011.2 13.8924 1011.46 14.1068 1011.59 14.4023C1011.72 14.6974 1011.7 15.0297 1011.54 15.314C1010.87 16.5489 1011.27 18.1422 1012.47 18.9413L1016.52 21.6418L1017.45 23.5043C1017.77 24.1386 1017.65 24.9017 1017.15 25.4032L1016.59 25.962C1016.22 26.3281 1016.22 26.9217 1016.59 27.2878L1017.71 28.4064C1018.02 28.7171 1018.19 29.1301 1018.19 29.5695C1018.19 31.4745 1018.62 33.3628 1019.44 35.0385C1012.38 34.2604 1006.88 28.2618 1006.88 21ZM1019.13 22.6659L1018.77 21.9375H1018.9C1019.84 21.9375 1020.68 22.4574 1021.1 23.2943C1021.84 24.7704 1023.32 25.6875 1024.97 25.6875H1025.69V26.625C1025.69 27.383 1025.39 28.0938 1024.85 28.6264C1023.12 30.335 1021.83 32.0425 1020.93 33.8008C1020.37 32.4943 1020.06 31.0121 1020.06 29.5696C1020.06 28.6294 1019.7 27.7456 1019.03 27.0807L1018.57 26.6229C1019.56 25.5503 1019.79 23.9791 1019.13 22.6659ZM1022.41 35.0548C1023.21 33.3369 1024.45 31.6591 1026.17 29.9607C1027.07 29.073 1027.56 27.8884 1027.56 26.625V24.75C1027.56 24.2323 1027.14 23.8125 1026.62 23.8125H1024.97C1024.04 23.8125 1023.19 23.2926 1022.78 22.4557C1022.04 20.9796 1020.55 20.0625 1018.9 20.0625H1017.83L1017.54 19.4923C1017.04 18.482 1017.5 17.2527 1018.59 16.6936C1019.48 16.2341 1020.06 15.2286 1020.06 14.1321V13.5C1020.06 12.9831 1020.48 12.5625 1021 12.5625H1022.13C1024.06 12.5625 1025.41 10.6607 1024.8 8.84931L1024.26 7.2565C1026.37 7.75581 1028.29 8.72625 1029.91 10.0499L1029.63 10.9086C1029.58 11.046 1029.5 11.1727 1029.4 11.2751L1028.39 12.2879C1027.86 12.8191 1027.56 13.5254 1027.56 14.2767V15.375C1027.56 16.9258 1028.82 18.1875 1030.38 18.1875C1030.89 18.1875 1031.31 18.6081 1031.31 19.125V20.5574C1031.31 20.7021 1031.28 20.8471 1031.21 20.9766L1030.89 21.6173C1030.45 22.4955 1030.5 23.5184 1031.02 24.3536C1031.53 25.1889 1032.43 25.6869 1033.41 25.6869H1034.32C1032.54 30.7531 1027.94 34.5044 1022.41 35.0548ZM1035.12 21C1035.12 21.9628 1035.03 22.9033 1034.84 23.8125H1033.41C1032.94 23.8125 1032.69 23.5016 1032.61 23.3679C1032.53 23.2342 1032.36 22.8777 1032.57 22.4557L1032.89 21.8151C1033.08 21.4266 1033.19 20.9917 1033.19 20.5574V19.125C1033.19 17.5742 1031.93 16.3125 1030.38 16.3125C1029.86 16.3125 1029.44 15.8919 1029.44 15.375V14.2766C1029.44 14.0262 1029.53 13.7908 1029.71 13.6138L1030.72 12.6009C1031.03 12.2939 1031.27 11.9138 1031.4 11.5016L1031.42 11.469C1033.72 13.9831 1035.12 17.3302 1035.12 21ZM1021 6.875C1021.4 6.875 1021.79 6.89225 1022.18 6.92444L1023.02 9.44788C1023.23 10.0569 1022.77 10.6875 1022.13 10.6875H1021C1019.45 10.6875 1018.19 11.9492 1018.19 13.4999V14.132C1018.19 14.5265 1018 14.8854 1017.73 15.0253C1016.27 15.7756 1015.44 17.2086 1015.46 18.6801L1013.51 17.3813C1013.12 17.1174 1012.97 16.6058 1013.19 16.2166C1013.63 15.4187 1013.67 14.4839 1013.3 13.6518C1012.94 12.8192 1012.23 12.2154 1011.34 11.9938L1010.33 11.7488C1012.93 8.76488 1016.75 6.875 1021 6.875Z" fill="#FA4616"/>
<path d="M1079 13.8961C1079 13.6449 1078.9 13.4039 1078.72 13.2269L1070.71 5.27199C1070.34 4.90837 1069.75 4.90943 1069.38 5.27462L1067.05 7.6045C1065.69 7.47556 1064.3 7.61887 1063 8.02306C1061.7 7.61837 1060.31 7.47519 1058.95 7.6045L1056.62 5.27468C1056.25 4.90956 1055.66 4.90837 1055.29 5.27206L1047.28 13.2269C1047.1 13.4039 1047 13.6449 1047 13.8961C1047 14.1472 1047.1 14.3875 1047.28 14.563L1049.67 16.8921C1049.53 18.2916 1049.69 19.7206 1050.12 21.0541C1050.39 21.8965 1050.77 22.6867 1051.24 23.4196L1050.82 23.8361C1049.72 24.9327 1049.72 26.717 1050.82 27.8136C1051.08 28.0725 1051.38 28.2693 1051.69 28.406C1051.08 29.48 1051.23 30.8752 1052.15 31.7911C1053.07 32.7123 1054.46 32.8581 1055.53 32.2448C1055.67 32.5661 1055.87 32.8618 1056.12 33.1169C1057.22 34.2143 1059.01 34.2126 1060.1 33.1169L1060.35 32.8699L1060.92 33.4423C1060.95 33.4739 1060.99 33.5027 1061.02 33.5288C1061.55 34.0544 1062.25 34.3438 1063 34.3438C1063.75 34.3438 1064.45 34.0533 1064.98 33.5257C1065.51 33.0178 1065.32 33.2001 1065.65 32.87C1065.98 33.1955 1066.63 33.9407 1067.89 33.9407C1068.64 33.9407 1069.35 33.6481 1069.88 33.117C1070.13 32.8617 1070.33 32.5658 1070.47 32.2441C1071.55 32.8595 1072.94 32.7042 1073.85 31.7911C1074.77 30.8753 1074.92 29.48 1074.31 28.406C1074.62 28.2694 1074.92 28.0725 1075.18 27.8136C1076.28 26.7145 1076.28 24.9354 1075.18 23.8361L1074.76 23.4178C1075.99 21.4933 1076.55 19.1765 1076.33 16.8921L1078.72 14.5629C1078.9 14.3875 1079 14.1472 1079 13.8961ZM1052.15 26.4878C1051.78 26.1223 1051.78 25.5275 1052.15 25.162L1052.4 24.9106C1052.48 24.9954 1052.56 25.0793 1052.64 25.162L1053.72 26.2408L1053.47 26.4878C1053.11 26.8533 1052.51 26.8534 1052.15 26.4878ZM1054.8 30.4653C1054.43 30.8317 1053.84 30.8317 1053.47 30.4653C1053.11 30.0988 1053.11 29.506 1053.47 29.1395L1055.05 27.5666L1056.37 28.8925L1054.8 30.4653ZM1058.78 31.7911C1058.41 32.1566 1057.82 32.1566 1057.45 31.7911C1057.27 31.6141 1057.18 31.3786 1057.18 31.1283C1057.18 30.8778 1057.27 30.6425 1057.45 30.4653C1057.45 30.4653 1057.45 30.4653 1057.45 30.4652L1057.7 30.2183L1059.02 31.5441L1058.78 31.7911ZM1073.85 26.488C1073.49 26.8535 1072.89 26.8535 1072.53 26.488C1072.53 26.488 1072.53 26.488 1072.53 26.4879L1065.9 19.8587C1065.53 19.4926 1064.94 19.4926 1064.57 19.8587C1064.21 20.2248 1064.21 20.8184 1064.57 21.1845L1072.53 29.1395C1072.89 29.505 1072.89 30.0998 1072.53 30.4653C1072.16 30.8309 1071.57 30.8308 1071.2 30.4653C1070.76 30.027 1063.72 22.9785 1063.25 22.5103C1062.88 22.1442 1062.29 22.1442 1061.92 22.5103C1061.55 22.8765 1061.55 23.47 1061.92 23.8361L1068.55 30.4659C1068.92 30.8323 1068.92 31.4246 1068.55 31.7911C1068.18 32.1575 1067.59 32.1575 1067.22 31.7911L1060.6 25.162C1060.23 24.7959 1059.64 24.7959 1059.27 25.162C1058.9 25.5281 1058.9 26.1217 1059.27 26.4878L1064.33 31.5441C1064.02 31.8485 1064.16 31.7136 1063.67 32.1838C1063.67 32.1873 1063.67 32.1907 1063.66 32.1942C1063.49 32.3713 1063.25 32.4688 1063 32.4688C1062.75 32.4688 1062.51 32.3713 1062.34 32.1943C1062.33 32.1908 1062.33 32.1873 1062.33 32.1839C1061.77 31.6435 1054.56 24.4342 1053.97 23.8362C1052.07 21.9418 1051.2 19.3319 1051.58 16.6756C1051.62 16.38 1051.52 16.0819 1051.31 15.8731L1049.27 13.8873L1055.95 7.26075L1057.94 9.25162C1058.15 9.46012 1058.45 9.55843 1058.74 9.51686C1059.2 9.45143 1059.66 9.42537 1060.13 9.43631C1059.65 9.77431 1059.2 10.1548 1058.78 10.5779C1057.62 11.7351 1054.49 14.8659 1053.47 15.8813C1052.37 16.9805 1052.37 18.7595 1053.47 19.8588C1054.02 20.4071 1054.74 20.6812 1055.46 20.6812C1056.18 20.6812 1056.9 20.4071 1057.45 19.8588L1061.21 16.0976C1062.44 16.5346 1063.75 16.5874 1064.98 16.2863L1073.85 25.1621C1074.22 25.5286 1074.22 26.1215 1073.85 26.488ZM1074.69 15.8731C1074.48 16.0818 1074.38 16.3798 1074.42 16.6756C1074.68 18.5323 1074.31 20.4393 1073.4 22.0526L1066.85 15.5061C1067.28 15.2411 1067.69 14.9243 1068.06 14.5554C1068.42 14.1892 1068.42 13.5957 1068.06 13.2296C1067.69 12.8634 1067.1 12.8634 1066.73 13.2296C1065.33 14.6322 1063.18 15.0006 1061.39 14.1461C1061.04 13.9749 1060.61 14.0481 1060.33 14.3291L1056.12 18.533C1055.76 18.8985 1055.16 18.8986 1054.8 18.533C1054.62 18.3559 1054.52 18.1205 1054.52 17.87C1054.52 17.6196 1054.62 17.3842 1054.8 17.2071C1055.89 16.1106 1059.02 12.9887 1060.1 11.9038C1060.1 11.9037 1060.1 11.9036 1060.1 11.9036C1061.98 10.0216 1064.59 9.1373 1067.26 9.51686C1067.55 9.55836 1067.85 9.46012 1068.06 9.25162L1070.05 7.26075L1076.73 13.8873L1074.69 15.8731Z" fill="#FA4616"/>
<path d="M1115.67 33V30.3333C1115.67 27.3878 1113.28 25 1110.33 25H1099.67C1096.72 25 1094.33 27.3878 1094.33 30.3333V33" stroke="#FA4616" stroke-width="2" stroke-linecap="round" stroke-linejoin="round"/>
<path fill-rule="evenodd" clip-rule="evenodd" d="M1105 19.6667C1107.95 19.6667 1110.33 17.2789 1110.33 14.3333C1110.33 11.3878 1107.95 9 1105 9C1102.05 9 1099.67 11.3878 1099.67 14.3333C1099.67 17.2789 1102.05 19.6667 1105 19.6667Z" stroke="#FA4616" stroke-width="2" stroke-linecap="round" stroke-linejoin="round"/>
<path d="M1211 27.5L1206 21.5L1211 15.5" stroke="#FA4616" stroke-width="2" stroke-linecap="round" stroke-linejoin="round"/>
<path d="M1173.07 11C1170.82 11 1169 12.824 1169 15.0741C1169 17.3242 1170.82 19.1482 1173.07 19.1482C1175.32 19.1482 1177.15 17.3242 1177.15 15.0741C1177.15 12.824 1175.32 11 1173.07 11Z" fill="#FA4616"/>
<path d="M1173.07 22.8516C1170.82 22.8516 1169 24.6756 1169 26.9257C1169 29.1758 1170.82 30.9998 1173.07 30.9998C1175.32 30.9998 1177.15 29.1758 1177.15 26.9257C1177.15 24.6756 1175.32 22.8516 1173.07 22.8516Z" fill="#FA4616"/>
<path d="M1184.93 22.8521C1182.68 22.8521 1180.85 24.6761 1180.85 26.9262C1180.85 29.1763 1182.68 31.0003 1184.93 31.0003C1187.18 31.0003 1189 29.1763 1189 26.9262C1189 24.6761 1187.18 22.8521 1184.93 22.8521Z" fill="#FA4616"/>
<path d="M1184.93 11C1182.68 11 1180.85 12.824 1180.85 15.0741C1180.85 17.3242 1182.68 19.1482 1184.93 19.1482C1187.18 19.1482 1189 17.3242 1189 15.0741C1189 12.824 1187.18 11 1184.93 11Z" fill="#FA4616"/>
<path d="M1238.22 13.7595L1239.94 15.4834L1234.54 20.8849L1240.05 26.4013L1238.22 28.2401L1232.7 22.7237L1227.21 28.2113L1225.49 26.4875L1230.98 20.9998L1225.49 15.5121L1227.33 13.6733L1232.81 19.161L1238.22 13.7595Z" fill="white"/>
<path d="M1267.22 13.7595L1268.94 15.4834L1263.54 20.8849L1269.05 26.4013L1267.22 28.2401L1261.7 22.7237L1256.21 28.2113L1254.49 26.4875L1259.98 20.9998L1254.49 15.5121L1256.33 13.6733L1261.81 19.161L1267.22 13.7595Z" fill="#242424"/>
<path fill-rule="evenodd" clip-rule="evenodd" d="M1131 19.7368C1131 13.8071 1135.81 9 1141.74 9C1147.67 9 1152.47 13.8071 1152.47 19.7368C1152.47 25.6666 1147.67 30.4737 1141.74 30.4737C1135.81 30.4737 1131 25.6666 1131 19.7368ZM1141.74 10.2632C1136.5 10.2632 1132.26 14.5047 1132.26 19.7368C1132.26 24.969 1136.5 29.2105 1141.74 29.2105C1146.97 29.2105 1151.21 24.969 1151.21 19.7368C1151.21 14.5047 1146.97 10.2632 1141.74 10.2632Z" fill="#E7590E"/>
<path fill-rule="evenodd" clip-rule="evenodd" d="M1148.43 26.4271C1148.67 26.1804 1149.07 26.1804 1149.32 26.4271L1154.81 31.9218C1155.06 32.1685 1155.06 32.5684 1154.81 32.815C1154.57 33.0617 1154.17 33.0617 1153.92 32.815L1148.43 27.3203C1148.18 27.0736 1148.18 26.6737 1148.43 26.4271Z" fill="#E7590E"/>
<path fill-rule="evenodd" clip-rule="evenodd" d="M1131 19.7368C1131 13.8071 1135.81 9 1141.74 9C1147.67 9 1152.47 13.8071 1152.47 19.7368C1152.47 25.6666 1147.67 30.4737 1141.74 30.4737C1135.81 30.4737 1131 25.6666 1131 19.7368ZM1141.74 10.2632C1136.5 10.2632 1132.26 14.5047 1132.26 19.7368C1132.26 24.969 1136.5 29.2105 1141.74 29.2105C1146.97 29.2105 1151.21 24.969 1151.21 19.7368C1151.21 14.5047 1146.97 10.2632 1141.74 10.2632Z" stroke="#FA4616" stroke-linecap="round" stroke-linejoin="round"/>
<path fill-rule="evenodd" clip-rule="evenodd" d="M1148.43 26.4271C1148.67 26.1804 1149.07 26.1804 1149.32 26.4271L1154.81 31.9218C1155.06 32.1685 1155.06 32.5684 1154.81 32.815C1154.57 33.0617 1154.17 33.0617 1153.92 32.815L1148.43 27.3203C1148.18 27.0736 1148.18 26.6737 1148.43 26.4271Z" stroke="#FA4616" stroke-linecap="round" stroke-linejoin="round"/>
<path d="M1306 14.9189C1305.97 14.6607 1305.81 14.4323 1305.57 14.3204L1294.32 9.07035C1294.12 8.97655 1293.88 8.97655 1293.68 9.07035L1282.43 14.3204C1282.19 14.4323 1282.03 14.6606 1282 14.9189C1282 14.9243 1282 14.996 1282 15V27.75C1282 28.0567 1282.19 28.3325 1282.47 28.4464L1293.72 32.9464C1293.81 32.9822 1293.91 33 1294 33C1294.09 33 1294.19 32.9822 1294.28 32.9464L1305.53 28.4464C1305.81 28.3325 1306 28.0567 1306 27.75V15C1306 14.996 1306 14.9242 1306 14.9189ZM1294 10.5776L1303.36 14.9471L1299.76 16.3892L1290.22 12.3424L1294 10.5776ZM1288.39 13.1959L1297.78 17.18L1294 18.6923L1284.64 14.9471L1288.39 13.1959ZM1283.5 16.1078L1293.25 20.0078V31.1423L1283.5 27.2423V16.1078ZM1294.75 31.1423V20.0078L1304.5 16.1078V27.2423L1294.75 31.1423Z" fill="black"/>
<path d="M1324.25 19.3125H1325.31V25.6875H1324.25V19.3125Z" fill="#F8F8F8"/>
<path d="M1327.44 19.3125H1328.5V25.6875H1327.44V19.3125Z" fill="#F8F8F8"/>
<path d="M1320 16.125V17.1875H1321.06V27.8125C1321.06 28.0943 1321.17 28.3645 1321.37 28.5638C1321.57 28.7631 1321.84 28.875 1322.12 28.875H1330.62C1330.91 28.875 1331.18 28.7631 1331.38 28.5638C1331.58 28.3645 1331.69 28.0943 1331.69 27.8125V17.1875H1332.75V16.125H1320ZM1322.12 27.8125V17.1875H1330.62V27.8125H1322.12Z" fill="#F8F8F8"/>
<path d="M1324.25 14H1328.5V15.0625H1324.25V14Z" fill="#F8F8F8"/>
<path fill-rule="evenodd" clip-rule="evenodd" d="M1370.72 11.1491C1369.35 9.77309 1367.48 9 1365.53 9C1363.59 9 1361.72 9.77309 1360.35 11.1491L1358.93 12.5624L1357.52 11.1491C1354.66 8.28458 1350.01 8.28458 1347.15 11.1491C1344.28 14.0136 1344.28 18.6579 1347.15 21.5224L1348.56 22.9357L1358.93 33.3091L1369.31 22.9357L1370.72 21.5224C1372.1 20.147 1372.87 18.2812 1372.87 16.3358C1372.87 14.3903 1372.1 12.5245 1370.72 11.1491Z" stroke="#39B54A" stroke-width="2" stroke-linecap="round" stroke-linejoin="round"/>
<path d="M1398.06 13.9691C1398.06 13.2726 1398.31 12.5982 1398.75 12.0639C1399.2 11.5296 1399.82 11.1695 1400.51 11.0466C1401.19 10.9237 1401.9 11.0457 1402.5 11.3914C1403.11 11.7371 1403.57 12.2844 1403.82 12.9376C1404.06 13.5908 1404.06 14.3082 1403.83 14.9645C1403.59 15.6207 1403.14 16.1738 1402.54 16.5272C1401.94 16.8805 1401.23 17.0115 1400.54 16.8973C1399.86 16.7831 1399.23 16.4309 1398.78 15.9024L1390.8 19.6074C1390.98 20.1886 1390.98 20.8122 1390.8 21.3934L1398.78 25.0984C1399.26 24.5406 1399.93 24.1808 1400.66 24.0886C1401.39 23.9964 1402.13 24.1784 1402.73 24.5993C1403.33 25.0202 1403.76 25.65 1403.92 26.3668C1404.09 27.0835 1403.98 27.8361 1403.62 28.4787C1403.27 29.1213 1402.68 29.6081 1401.99 29.8448C1401.29 30.0815 1400.53 30.0512 1399.85 29.7598C1399.18 29.4684 1398.64 28.9367 1398.33 28.2677C1398.02 27.5986 1397.98 26.8399 1398.2 26.1386L1390.22 22.4336C1389.83 22.8939 1389.3 23.2221 1388.71 23.3742C1388.13 23.5263 1387.51 23.495 1386.94 23.2844C1386.37 23.0739 1385.88 22.6942 1385.53 22.1965C1385.19 21.6987 1385 21.1068 1385 20.5004C1385 19.8939 1385.19 19.302 1385.53 18.8043C1385.88 18.3065 1386.37 17.9269 1386.94 17.7163C1387.51 17.5057 1388.13 17.4744 1388.71 17.6265C1389.3 17.7786 1389.83 18.1069 1390.22 18.5671L1398.2 14.8621C1398.11 14.5732 1398.06 14.272 1398.06 13.9691Z" fill="white"/>
<path d="M1426.02 12.4635C1426.17 12.0029 1426.83 12.0029 1426.98 12.4635L1428.52 17.2188C1428.59 17.4249 1428.78 17.5643 1429 17.5643H1434C1434.48 17.5643 1434.68 18.1841 1434.29 18.4688L1430.24 21.4078C1430.07 21.5351 1430 21.7608 1430.06 21.9668L1431.61 26.7221C1431.76 27.1828 1431.23 27.5659 1430.84 27.2812L1426.79 24.3422C1426.62 24.2149 1426.38 24.2149 1426.21 24.3422L1422.16 27.2812C1421.77 27.5659 1421.24 27.1828 1421.39 26.7221L1422.94 21.9668C1423 21.7608 1422.93 21.5351 1422.76 21.4078L1418.71 18.4688C1418.32 18.1841 1418.52 17.5643 1419 17.5643H1424C1424.22 17.5643 1424.41 17.4249 1424.48 17.2188L1426.02 12.4635Z" fill="#C4C4C4"/>
<path d="M1590.51 23.39L1591.4 17.599H1585.84V13.841C1585.84 12.257 1586.62 10.712 1589.11 10.712H1591.63V5.782C1591.63 5.782 1589.34 5.391 1587.15 5.391C1582.57 5.391 1579.58 8.165 1579.58 13.186V17.6H1574.49V23.391H1579.58V37.391H1585.84V23.391L1590.51 23.39Z" fill="white"/>
<path d="M1474.71 13.1895C1473.87 13.5595 1472.97 13.8095 1472.03 13.9225C1473 13.3403 1473.73 12.424 1474.08 11.3445C1473.16 11.8875 1472.16 12.2697 1471.12 12.4745C1470.42 11.7254 1469.49 11.2288 1468.48 11.062C1467.46 10.8951 1466.43 11.0673 1465.52 11.5518C1464.62 12.0362 1463.9 12.8059 1463.47 13.7412C1463.05 14.6766 1462.95 15.7253 1463.18 16.7245C1461.33 16.6315 1459.52 16.1501 1457.86 15.3114C1456.21 14.4728 1454.75 13.2957 1453.58 11.8565C1453.18 12.5465 1452.95 13.3465 1452.95 14.1985C1452.95 14.9655 1453.14 15.7208 1453.5 16.3973C1453.86 17.0737 1454.39 17.6506 1455.02 18.0765C1454.28 18.053 1453.56 17.8531 1452.91 17.4935V17.5535C1452.91 18.6293 1453.29 19.6719 1453.97 20.5045C1454.65 21.3371 1455.6 21.9084 1456.65 22.1215C1455.96 22.3072 1455.24 22.3346 1454.55 22.2015C1454.84 23.1271 1455.42 23.9365 1456.2 24.5164C1456.98 25.0963 1457.93 25.4177 1458.9 25.4355C1457.25 26.7309 1455.21 27.4336 1453.11 27.4305C1452.74 27.4306 1452.37 27.4089 1452 27.3655C1454.13 28.7347 1456.61 29.4613 1459.14 29.4585C1467.71 29.4585 1472.4 22.3605 1472.4 16.2045C1472.4 16.0045 1472.39 15.8025 1472.38 15.6025C1473.29 14.9435 1474.08 14.1274 1474.7 13.1925L1474.71 13.1895V13.1895Z" fill="white"/>
<path d="M1513.13 7.99499C1512.81 8.01835 1512.5 8.09366 1512.2 8.21799H1512.2C1511.91 8.33099 1510.56 8.90099 1508.5 9.76499L1501.11 12.874C1495.82 15.104 1490.61 17.3 1490.61 17.3L1490.67 17.276C1490.67 17.276 1490.31 17.394 1489.94 17.651C1489.71 17.7984 1489.51 17.9913 1489.35 18.218C1489.17 18.488 1489.02 18.901 1489.07 19.328C1489.16 20.05 1489.63 20.483 1489.97 20.722C1490.31 20.964 1490.63 21.077 1490.63 21.077H1490.64L1495.52 22.722C1495.74 23.425 1497.01 27.597 1497.32 28.558C1497.5 29.132 1497.67 29.491 1497.89 29.765C1498 29.905 1498.12 30.022 1498.27 30.116C1498.35 30.161 1498.43 30.1966 1498.52 30.222L1498.47 30.21C1498.48 30.214 1498.49 30.226 1498.5 30.23C1498.54 30.241 1498.57 30.245 1498.62 30.253C1499.39 30.487 1500.02 30.007 1500.02 30.007L1500.05 29.979L1502.93 27.354L1507.77 31.061L1507.88 31.108C1508.88 31.55 1509.9 31.304 1510.44 30.87C1510.98 30.433 1511.2 29.874 1511.2 29.874L1511.23 29.784L1514.96 10.655C1515.07 10.183 1515.1 9.74099 1514.98 9.31199C1514.86 8.87782 1514.58 8.5044 1514.2 8.26499C1513.88 8.0701 1513.51 7.97604 1513.13 7.99499ZM1513.03 10.045C1513.03 10.108 1513.04 10.101 1513.01 10.222V10.233L1509.31 29.163C1509.3 29.19 1509.27 29.249 1509.2 29.308C1509.12 29.37 1509.06 29.409 1508.73 29.28L1502.82 24.749L1499.25 28.003L1500 23.213L1509.66 14.213C1510.05 13.843 1509.92 13.765 1509.92 13.765C1509.95 13.311 1509.32 13.632 1509.32 13.632L1497.14 21.175L1497.14 21.155L1491.3 19.19V19.186L1491.29 19.183C1491.3 19.1796 1491.31 19.1756 1491.32 19.171L1491.35 19.155L1491.38 19.144C1491.38 19.144 1496.59 16.948 1501.89 14.718C1504.54 13.601 1507.21 12.476 1509.27 11.608C1511.32 10.745 1512.84 10.112 1512.93 10.078C1513.01 10.046 1512.97 10.045 1513.03 10.045Z" fill="white"/>
<path d="M1549 27V29C1549 29.5304 1548.79 30.0391 1548.41 30.4142C1548.04 30.7893 1547.53 31 1547 31H1539C1538.47 31 1537.96 30.7893 1537.59 30.4142C1537.21 30.0391 1537 29.5304 1537 29V18C1537 17.4696 1537.21 16.9609 1537.59 16.5858C1537.96 16.2107 1538.47 16 1539 16H1541L1549 27ZM1547.69 11H1543C1542.47 11 1541.96 11.2107 1541.59 11.5858C1541.21 11.9609 1541 12.4696 1541 13V25C1541 25.5304 1541.21 26.0391 1541.59 26.4142C1541.96 26.7893 1542.47 27 1543 27H1551C1551.53 27 1552.04 26.7893 1552.41 26.4142C1552.79 26.0391 1553 25.5304 1553 25V16.242C1553 15.9756 1552.95 15.7118 1552.84 15.4662C1552.74 15.2207 1552.59 14.9982 1552.4 14.812L1549.08 11.57C1548.71 11.2047 1548.21 11.0001 1547.69 11V11Z" stroke="black" stroke-width="2" stroke-linecap="round" stroke-linejoin="round"/>
<path d="M1626 27V29C1626 29.5304 1625.79 30.0391 1625.41 30.4142C1625.04 30.7893 1624.53 31 1624 31H1616C1615.47 31 1614.96 30.7893 1614.59 30.4142C1614.21 30.0391 1614 29.5304 1614 29V18C1614 17.4696 1614.21 16.9609 1614.59 16.5858C1614.96 16.2107 1615.47 16 1616 16H1618L1626 27ZM1624.69 11H1620C1619.47 11 1618.96 11.2107 1618.59 11.5858C1618.21 11.9609 1618 12.4696 1618 13V25C1618 25.5304 1618.21 26.0391 1618.59 26.4142C1618.96 26.7893 1619.47 27 1620 27H1628C1628.53 27 1629.04 26.7893 1629.41 26.4142C1629.79 26.0391 1630 25.5304 1630 25V16.242C1630 15.9756 1629.95 15.7118 1629.84 15.4662C1629.74 15.2207 1629.59 14.9982 1629.4 14.812L1626.08 11.57C1625.71 11.2047 1625.21 11.0001 1624.69 11V11Z" stroke="#52B44E" stroke-width="2" stroke-linecap="round" stroke-linejoin="round"/>
</svg>
