<svg width="234" height="75" viewBox="0 0 234 75" fill="none" xmlns="http://www.w3.org/2000/svg">
<g style="mix-blend-mode:screen" opacity="0.39">
<g style="mix-blend-mode:screen" opacity="0.39">
<path d="M20.7331 6.00354C22.2218 5.24191 23.7609 4.57546 25.3406 4.00851L24.2463 4.98755C23.7856 5.4863 23.3632 6.02201 22.9025 6.53924L22.3457 7.20424C22.0194 7.29661 21.693 7.3705 21.3859 7.48133C21.1907 7.52838 20.9845 7.50683 20.8043 7.42056C20.6242 7.33431 20.4819 7.189 20.4032 7.01081C20.3245 6.83263 20.3145 6.63326 20.375 6.44859C20.4355 6.26393 20.5625 6.1061 20.7331 6.00354ZM49.0113 3.04794C46.9931 2.46724 44.9239 2.06533 42.8296 1.84723C39.2342 1.47048 35.6013 1.58866 32.0406 2.1982C30.5417 3.206 29.1581 4.36392 27.9131 5.65256L27.6635 5.91118C30.334 5.47397 33.0369 5.2454 35.7457 5.22769C38.0005 5.22475 40.2504 5.42887 42.4649 5.83728L43.5591 5.2831C44.5397 4.74414 45.5599 4.27492 46.6116 3.8792L49.0113 3.04794ZM70.3974 31.4032C71.159 34.2078 71.5461 37.0942 71.5493 39.9929C71.5493 40.3254 71.5493 40.6394 71.5493 40.9535C72.3556 40.3993 73.1619 39.8821 73.9298 39.3279L76.3871 38.0903C76.3994 36.7271 76.3353 35.3643 76.1951 34.0078C75.9973 32.3953 75.6895 30.7971 75.2736 29.2235L72.7204 30.2579C71.9089 30.5653 71.1308 30.949 70.3974 31.4032ZM62.2768 9.67958C59.3722 7.42006 56.138 5.58394 52.678 4.23018L47.6866 6.20674C47.2228 6.3758 46.7735 6.57962 46.3428 6.81633C49.8954 7.90806 53.2455 9.53541 56.268 11.6376L60.549 10.1229L62.2768 9.67958ZM74.7169 27.2284C73.8672 24.5593 72.6877 21.9979 71.2037 19.5993L69.5911 20.0795L65.9436 21.5389C67.5379 23.937 68.827 26.5108 69.7831 29.205C70.4563 28.8307 71.163 28.5154 71.8949 28.2629L74.7169 27.2284ZM70.0903 17.9922C68.3782 15.5246 66.3604 13.2667 64.0814 11.2682L61.221 12.1179L58.3797 13.2817C60.7538 15.1934 62.8693 17.384 64.6765 19.8025L68.9192 18.2877L70.0903 17.9922ZM71.4533 44.334C71.3376 47.4467 70.9003 50.5407 70.1479 53.5702C70.0564 53.8453 70.0783 54.1437 70.209 54.4038C70.3396 54.6638 70.5691 54.8657 70.85 54.9677C71.1309 55.0696 71.4417 55.0639 71.7183 54.9516C71.995 54.8394 72.2162 54.6292 72.3364 54.3645C74.5361 50.1273 75.8411 45.5126 76.1759 40.7872L75.216 41.3229C74.0834 42.3389 72.7204 43.2441 71.4533 44.334Z" fill="white"/>
</g>
</g>
<g style="mix-blend-mode:screen" opacity="0.75">
<g style="mix-blend-mode:screen" opacity="0.75">
<path d="M75.1392 27.0625L73.2194 27.7829C72.2375 25.1166 70.9497 22.564 69.3799 20.1723L69.6486 20.0799L71.7412 19.4519C73.1754 21.854 74.3157 24.4079 75.1392 27.0625ZM64.6764 11.0839L61.8928 11.9151C64.2422 13.8541 66.3431 16.0555 68.1512 18.4728L68.9191 18.1957L70.6085 17.7524C68.9136 15.3106 66.9222 13.0719 64.6764 11.0839ZM75.6959 29.0945L73.7761 29.8704C74.6207 32.7535 75.0978 35.7247 75.1968 38.7186L76.7902 37.8689V37.5734C76.7789 34.6908 76.4116 31.8197 75.6959 29.0206V29.0945ZM75.1968 41.5449C75.1968 42.7087 75.0432 43.8909 74.8896 45.0363C74.881 45.1644 74.9223 45.2911 75.0054 45.3915C75.0885 45.492 75.2075 45.5591 75.3392 45.5799C75.4709 45.6007 75.6059 45.5735 75.718 45.5037C75.8301 45.4339 75.9111 45.3266 75.9455 45.2025C76.2714 43.6971 76.4958 42.173 76.6174 40.6398L75.3119 41.3602L75.1968 41.5449ZM32.5012 1.84759L30.7158 3.23302C32.7102 2.93505 34.7256 2.78682 36.7439 2.78969C40.0286 2.78233 43.3005 3.18596 46.4771 3.99039H46.6499L49.7407 2.86357C46.2925 1.88984 42.718 1.39228 39.1244 1.38578C36.9068 1.35014 34.6903 1.50468 32.5012 1.84759ZM53.2922 4.00887L52.8891 4.11971L50.2782 5.17263C53.7182 6.4387 56.9509 8.17442 59.877 10.3265L60.4722 10.1232L62.8335 9.53214C59.9616 7.23747 56.7446 5.3752 53.2922 4.00887Z" fill="white"/>
</g>
</g>
<path d="M234 20.8373V37.4625C233.995 40.7761 232.623 43.9522 230.186 46.2935C227.75 48.6348 224.447 49.9499 221.003 49.9499H95.4314C94.8611 49.9499 94.3142 49.7319 93.911 49.3439C93.5078 48.9559 93.2812 48.4296 93.2812 47.8809V31.2557C93.2812 27.9439 94.6485 24.7677 97.0823 22.4258C99.5161 20.084 102.817 18.7683 106.259 18.7683H231.831C232.403 18.7683 232.952 18.9857 233.358 19.3732C233.764 19.7607 233.995 20.2868 234 20.8373Z" fill="#39B54A"/>
<path d="M111.884 36.9454H108.947V43.6694H104.128V24.8643H111.807C112.678 24.7989 113.553 24.9076 114.378 25.1834C115.204 25.4591 115.96 25.8961 116.602 26.4668C117.243 27.0375 117.755 27.7297 118.104 28.4998C118.454 29.2699 118.635 30.1013 118.635 30.9418C118.635 31.7823 118.454 32.6137 118.104 33.3838C117.755 34.1539 117.243 34.8461 116.602 35.4168C115.96 35.9875 115.204 36.4245 114.378 36.7003C113.553 36.9761 112.678 37.0846 111.807 37.0192L111.884 36.9454ZM111.673 28.9653H108.947V32.7706H111.673C111.932 32.7706 112.189 32.7214 112.429 32.6258C112.669 32.5301 112.887 32.39 113.071 32.2133C113.254 32.0367 113.4 31.8269 113.499 31.596C113.599 31.3652 113.65 31.1177 113.65 30.8679C113.65 30.618 113.599 30.3706 113.499 30.1398C113.4 29.9089 113.254 29.6992 113.071 29.5226C112.887 29.3459 112.669 29.2057 112.429 29.1101C112.189 29.0145 111.932 28.9653 111.673 28.9653Z" fill="white"/>
<path d="M131.312 43.7431L127.837 36.7237H126.205V43.7431H121.387V24.8643H129.162C130.024 24.8083 130.889 24.9243 131.703 25.2051C132.517 25.4858 133.261 25.9252 133.89 26.4957C134.519 27.0663 135.019 27.7557 135.358 28.5207C135.698 29.2858 135.869 30.11 135.862 30.9418C135.871 31.9722 135.574 32.9838 135.006 33.8575C134.438 34.7312 133.623 35.4307 132.656 35.8739L136.898 43.7431H131.312ZM128.951 28.9652H126.205V32.7705H128.951C129.21 32.7705 129.467 32.7213 129.707 32.6257C129.947 32.5301 130.165 32.3899 130.349 32.2132C130.532 32.0366 130.678 31.8268 130.777 31.596C130.877 31.3651 130.928 31.1177 130.928 30.8678C130.928 30.6179 130.877 30.3705 130.777 30.1397C130.678 29.9089 130.532 29.6991 130.349 29.5225C130.165 29.3458 129.947 29.2057 129.707 29.11C129.467 29.0144 129.21 28.9652 128.951 28.9652Z" fill="white"/>
<path d="M151.124 41.7851C150.417 42.4933 149.562 43.049 148.616 43.4152C147.669 43.7815 146.652 43.9499 145.633 43.9095C144.613 43.9547 143.595 43.7885 142.648 43.422C141.7 43.0554 140.846 42.4972 140.143 41.7851C138.069 39.79 138.223 37.1485 138.223 34.3037C138.223 31.459 138.223 28.762 140.143 26.9147C140.844 26.2051 141.695 25.6482 142.639 25.2818C143.583 24.9154 144.597 24.7478 145.614 24.7904C146.633 24.7499 147.65 24.9184 148.596 25.2846C149.543 25.6508 150.398 26.2065 151.104 26.9147C153.159 28.8913 153.024 31.5514 153.024 34.3037C153.024 37.0561 153.178 39.79 151.124 41.7851ZM147.572 29.6672C147.334 29.4037 147.039 29.1943 146.707 29.0537C146.375 28.9133 146.015 28.8451 145.652 28.8543C145.289 28.8411 144.928 28.9075 144.595 29.0483C144.263 29.189 143.968 29.4007 143.732 29.6672C143.291 30.2213 143.003 30.8678 143.003 34.3037C143.003 37.7396 143.291 38.3677 143.732 38.9219C143.965 39.194 144.258 39.412 144.591 39.5591C144.923 39.7063 145.286 39.779 145.652 39.7716C146.018 39.7749 146.379 39.7005 146.711 39.5536C147.043 39.4068 147.337 39.191 147.572 38.9219C147.994 38.3677 148.282 37.7581 148.282 34.3037C148.282 30.8494 147.994 30.2213 147.572 29.6672Z" fill="white"/>
<path d="M168.939 41.8956C168.23 42.5239 167.398 43.0107 166.492 43.3277C165.585 43.6449 164.623 43.7859 163.66 43.7428H156.441V24.8639H163.717C164.68 24.8218 165.643 24.9634 166.549 25.2805C167.455 25.5975 168.287 26.0837 168.997 26.7112C171.281 28.9094 171.032 31.3293 171.032 34.2849C171.032 37.2405 171.281 39.6973 168.939 41.8956ZM165.637 30.0732C165.386 29.7097 165.038 29.4182 164.629 29.2296C164.22 29.041 163.766 28.9622 163.314 29.0017H161.26V39.6049H163.372C163.821 39.6445 164.274 39.5677 164.682 39.3826C165.09 39.1975 165.44 38.9107 165.695 38.5521C166.079 38.0163 166.213 37.5176 166.213 34.3033C166.213 31.0892 166.079 30.5904 165.695 30.0732H165.637Z" fill="white"/>
<path d="M181.456 43.9094C180.498 43.9625 179.538 43.8256 178.637 43.5072C177.736 43.1888 176.912 42.6955 176.217 42.0582C175.523 41.4207 174.971 40.6527 174.598 39.8018C174.224 38.9508 174.036 38.0352 174.046 37.1114V24.8642H178.864V36.9452C178.813 37.2961 178.843 37.6534 178.952 37.9919C179.06 38.3305 179.244 38.642 179.491 38.9045C179.739 39.167 180.043 39.3741 180.382 39.5111C180.722 39.6481 181.088 39.7119 181.456 39.6976C181.825 39.7109 182.193 39.647 182.534 39.5102C182.875 39.3734 183.181 39.1671 183.431 38.9053C183.681 38.6437 183.869 38.333 183.982 37.9945C184.095 37.656 184.131 37.2981 184.086 36.9452V24.8642H188.924V37.1114C188.925 38.0378 188.73 38.9546 188.35 39.8057C187.97 40.6568 187.414 41.4242 186.714 42.0608C186.015 42.6974 185.188 43.1898 184.284 43.5076C183.379 43.8255 182.417 43.9622 181.456 43.9094Z" fill="white"/>
<path d="M199.367 43.9094C198.352 43.9414 197.341 43.769 196.399 43.4032C195.457 43.0374 194.604 42.4862 193.896 41.7851C191.842 39.79 191.976 37.1485 191.976 34.3037C191.976 31.459 191.976 28.7619 193.896 26.9147C194.604 26.2135 195.457 25.6624 196.399 25.2965C197.341 24.9308 198.352 24.7584 199.367 24.7904C201.191 24.6965 202.982 25.2839 204.366 26.4302C205.751 27.5763 206.621 29.1926 206.797 30.9417H201.882C201.806 30.3655 201.506 29.8384 201.044 29.4652C200.581 29.092 199.99 28.9003 199.387 28.9282C199.024 28.9071 198.662 28.968 198.329 29.106C197.995 29.2438 197.7 29.455 197.467 29.7225C197.025 30.2767 196.718 30.9417 196.718 34.3776C196.718 37.8135 197.025 38.497 197.467 39.0511C197.702 39.3164 197.998 39.526 198.331 39.6638C198.663 39.8015 199.025 39.8637 199.387 39.8454C199.989 39.8691 200.578 39.6758 201.039 39.3034C201.501 38.931 201.802 38.4063 201.882 37.8319H206.797C206.599 39.5659 205.719 41.1613 204.337 42.2912C202.956 43.4211 201.178 44 199.367 43.9094Z" fill="white"/>
<path d="M218.373 29.002V43.78H213.535V29.002H208.716V24.8642H223.191V29.002H218.373Z" fill="white"/>
<path d="M107.871 14.5935C107.148 14.6463 106.421 14.55 105.739 14.3111C105.057 14.0722 104.436 13.6962 103.917 13.2082L105.28 11.8781C105.634 12.188 106.049 12.4262 106.501 12.5786C106.953 12.7309 107.432 12.7942 107.91 12.7648C109.157 12.7648 109.829 12.303 109.829 11.4717C109.831 11.3049 109.796 11.1396 109.726 10.9869C109.657 10.834 109.555 10.6971 109.426 10.585C109.153 10.3739 108.817 10.2511 108.466 10.234L107.142 10.0493C106.398 9.9866 105.694 9.70247 105.126 9.23653C104.853 8.96653 104.642 8.64462 104.507 8.29147C104.371 7.93833 104.314 7.56179 104.339 7.18608C104.342 6.72441 104.448 6.26878 104.65 5.84985C104.851 5.4309 105.144 5.05839 105.508 4.75735C105.872 4.45632 106.298 4.23376 106.759 4.10464C107.219 3.97552 107.703 3.94285 108.178 4.00881C108.82 3.96709 109.463 4.05391 110.068 4.26377C110.673 4.47363 111.225 4.80196 111.692 5.228L110.348 6.5026C110.044 6.24692 109.691 6.05162 109.309 5.92797C108.927 5.80431 108.523 5.75476 108.121 5.78217C106.988 5.78217 106.431 6.39177 106.431 7.11219C106.43 7.25039 106.458 7.38744 106.514 7.51463C106.57 7.64182 106.653 7.7564 106.758 7.85109C107.046 8.08596 107.4 8.23374 107.775 8.27595L109.061 8.44221C109.802 8.50325 110.505 8.78037 111.077 9.23653C111.366 9.53122 111.589 9.88025 111.731 10.2618C111.873 10.6433 111.931 11.049 111.903 11.4532C111.903 13.4482 110.156 14.5935 107.871 14.5935Z" fill="#242424"/>
<path d="M118.123 14.5939C117.606 14.6138 117.09 14.5329 116.606 14.3562C116.123 14.1795 115.681 13.9105 115.308 13.5655C114.935 13.2204 114.639 12.8063 114.436 12.3482C114.234 11.89 114.129 11.3972 114.13 10.8994V4.04607H116.261V10.844C116.241 11.0915 116.276 11.3403 116.366 11.5732C116.455 11.8062 116.596 12.0177 116.778 12.1933C116.961 12.3688 117.181 12.5043 117.423 12.5903C117.665 12.6762 117.923 12.7107 118.181 12.6911C118.437 12.7075 118.694 12.671 118.935 12.5838C119.175 12.4968 119.394 12.3612 119.576 12.1863C119.758 12.0114 119.898 11.8013 119.989 11.5697C120.079 11.3382 120.117 11.0907 120.1 10.844V4.04607H122.212V10.9178C122.211 11.4223 122.102 11.9212 121.892 12.3837C121.683 12.8461 121.377 13.2624 120.994 13.6068C120.611 13.9512 120.158 14.2165 119.665 14.3862C119.171 14.556 118.646 14.6267 118.123 14.5939Z" fill="#242424"/>
<path d="M127.875 14.5936C127.149 14.6454 126.419 14.5488 125.734 14.3101C125.049 14.0713 124.425 13.6957 123.901 13.2082L125.284 11.8782C125.637 12.1889 126.052 12.4278 126.504 12.5801C126.956 12.7325 127.436 12.7954 127.914 12.7649C129.162 12.7649 129.833 12.3031 129.833 11.4718C129.841 11.3092 129.815 11.1468 129.755 10.9943C129.696 10.8419 129.605 10.7026 129.488 10.5851C129.214 10.374 128.878 10.2512 128.528 10.2342L127.223 10.0494C126.446 10.0059 125.705 9.72064 125.111 9.23662C124.845 8.96254 124.641 8.63953 124.509 8.2871C124.377 7.93467 124.32 7.56015 124.343 7.18618C124.343 6.72355 124.447 6.2664 124.648 5.84597C124.848 5.42553 125.141 5.05172 125.505 4.75007C125.87 4.44841 126.298 4.22604 126.76 4.09812C127.222 3.97021 127.707 3.93978 128.182 4.00891C128.824 3.96832 129.467 4.05566 130.071 4.26546C130.676 4.47526 131.229 4.80298 131.696 5.2281L130.352 6.50269C130.048 6.24703 129.695 6.05171 129.313 5.92806C128.931 5.80441 128.527 5.75485 128.125 5.78227C126.992 5.78227 126.435 6.39186 126.435 7.11228C126.434 7.25048 126.462 7.38753 126.518 7.51473C126.574 7.64193 126.657 7.7565 126.762 7.85119C127.045 8.08277 127.392 8.23036 127.76 8.27606L129.046 8.4423C129.788 8.49981 130.492 8.77736 131.062 9.23662C131.354 9.53042 131.579 9.8789 131.724 10.2602C131.87 10.6417 131.932 11.0478 131.907 11.4533C131.907 13.4483 130.141 14.5936 127.875 14.5936Z" fill="#242424"/>
<path d="M140.143 14.5015V10.1235H136.418V14.5015H134.383V4.04607H136.514V8.31321H140.143V4.04607H142.254V14.5015H140.143Z" fill="#242424"/>
<path d="M145.134 14.5015V4.04607H147.265V14.5015H145.134Z" fill="#242424"/>
<path d="M107.065 61.0703V57.0988H105.145V61.0703H104.147V56.2674H108.082V61.0703H107.065Z" fill="#242424"/>
<path d="M113.688 60.6823C113.522 60.8337 113.326 60.951 113.111 61.0271C112.897 61.1034 112.669 61.1369 112.44 61.1257C112.195 61.1404 111.95 61.0976 111.726 61.0011C111.502 60.9045 111.306 60.7571 111.154 60.5716V63.0099H110.156V56.2674H111.135V56.7662C111.291 56.5803 111.49 56.4329 111.718 56.3366C111.945 56.2401 112.192 56.1974 112.44 56.212C112.832 56.1783 113.222 56.2865 113.534 56.5155C113.847 56.7445 114.059 57.0777 114.13 57.4497C114.178 57.861 114.178 58.276 114.13 58.6873C114.26 59.3823 114.101 60.0986 113.688 60.6823ZM112.191 56.9879C112.018 56.9769 111.847 57.0149 111.696 57.0969C111.546 57.179 111.424 57.3016 111.346 57.4497C111.2 57.8274 111.135 58.2294 111.154 58.6319C111.154 59.7218 111.461 60.1836 112.21 60.1836C112.959 60.1836 113.247 59.7218 113.247 58.5765C113.247 57.4312 112.939 57.0617 112.191 57.0617V56.9879Z" fill="#242424"/>
<path d="M119.429 60.5527C119.231 60.7394 118.997 60.8864 118.74 60.9847C118.483 61.0831 118.208 61.1309 117.931 61.1253C117.656 61.1373 117.382 61.0923 117.127 60.9936C116.872 60.8947 116.642 60.7444 116.453 60.5527C116.23 60.299 116.062 60.0047 115.96 59.6873C115.858 59.37 115.823 59.036 115.858 58.7055C115.825 58.375 115.861 58.0415 115.963 57.7245C116.065 57.4074 116.232 57.113 116.453 56.8582C116.644 56.6698 116.875 56.5229 117.13 56.4273C117.385 56.3318 117.658 56.2896 117.931 56.304C118.207 56.295 118.481 56.3394 118.738 56.4346C118.996 56.5298 119.23 56.6739 119.429 56.8582C119.866 57.3766 120.073 58.0407 120.004 58.7055C120.041 59.0347 120.008 59.3677 119.91 59.6848C119.811 60.002 119.647 60.297 119.429 60.5527ZM118.699 57.3754C118.601 57.2739 118.482 57.1933 118.35 57.1391C118.218 57.085 118.075 57.0586 117.931 57.0614C117.785 57.0584 117.641 57.0866 117.508 57.1441C117.375 57.2016 117.257 57.287 117.163 57.3939C116.912 57.786 116.804 58.2476 116.856 58.7055C116.804 59.1483 116.92 59.5945 117.182 59.9616C117.279 60.0584 117.395 60.1348 117.524 60.1856C117.653 60.2365 117.792 60.2609 117.931 60.2572C118.075 60.2599 118.218 60.2335 118.35 60.1794C118.482 60.1252 118.601 60.0447 118.699 59.9431C118.955 59.5735 119.064 59.1276 119.006 58.687C119.066 58.2286 118.958 57.7646 118.699 57.3754Z" fill="#242424"/>
<path d="M125.591 56.2674V60.2206H126.263V62.2895H125.303V61.0703H122.078V62.2895H121.118V60.2206H121.655C122.08 59.3698 122.271 58.4287 122.212 57.4866V56.2674H125.591ZM123.172 57.8746C123.207 58.6821 123.043 59.4862 122.692 60.2206H124.612V57.0988H123.21L123.172 57.8746Z" fill="#242424"/>
<path d="M129.411 62.0124C129.335 62.3035 129.155 62.5594 128.902 62.7351C128.649 62.9108 128.34 62.9951 128.029 62.973H127.626V62.1048H127.875C128.278 62.1048 128.451 61.9939 128.586 61.5875L128.874 60.8301L127.107 56.2674H128.182L129.373 59.6479L130.544 56.2674H131.619L129.411 62.0124Z" fill="#242424"/>
<path d="M132.982 61.0703V56.2674H133.999V58.5581L135.919 56.2674H137.129L135.209 58.5211L137.34 61.0703H136.111L134.191 58.5765V61.0703H132.982Z" fill="#242424"/>
<path d="M140.431 57.0988V61.0703H139.432V57.0988H137.839V56.2674H142.062V57.0988H140.431Z" fill="#242424"/>
<path d="M146.497 61.0703V57.7638L144.366 61.0703H143.349V56.2674H144.366V59.5186L146.497 56.2674H147.495V61.0703H146.497Z" fill="#242424"/>
<path d="M153.965 61.1256C153.198 61.1675 152.445 60.915 151.872 60.4236L152.467 59.814C152.839 60.1396 153.328 60.3121 153.83 60.2943C154.349 60.2943 154.886 60.0542 154.886 59.6108C154.886 59.1675 154.541 58.9643 154.022 58.9643H153.273V58.2438H154.003C154.483 58.2438 154.809 58.0037 154.809 57.5973C154.809 57.1909 154.425 56.9877 153.83 56.9877C153.397 56.9887 152.975 57.1176 152.621 57.3572L152.064 56.7476C152.624 56.368 153.3 56.1795 153.984 56.2119C154.944 56.2119 155.769 56.6552 155.769 57.5049C155.771 57.7306 155.703 57.9515 155.573 58.1392C155.442 58.327 155.257 58.4729 155.04 58.5579C155.277 58.6387 155.483 58.789 155.627 58.9878C155.772 59.1865 155.848 59.4237 155.846 59.6662C155.822 59.8809 155.754 60.089 155.647 60.2785C155.539 60.468 155.394 60.6353 155.219 60.7709C155.045 60.9064 154.844 61.0074 154.629 61.0683C154.413 61.1291 154.188 61.1487 153.965 61.1256Z" fill="#242424"/>
<path d="M162.143 62.0124C162.07 62.3054 161.891 62.5635 161.637 62.7398C161.384 62.9161 161.072 62.9989 160.761 62.973H160.358V62.1048H160.626C161.029 62.1048 161.183 61.9939 161.337 61.5875L161.605 60.8301L159.858 56.2674H160.933L162.124 59.6479L163.276 56.2674H164.351L162.143 62.0124Z" fill="#242424"/>
<path d="M168.594 60.9596C168.308 61.0747 168.001 61.1314 167.691 61.1258C166.29 61.1258 165.464 60.2022 165.464 58.632C165.464 57.0619 166.29 56.2122 167.691 56.2122C167.999 56.21 168.304 56.26 168.594 56.36C168.871 56.4909 169.119 56.6729 169.323 56.8956L168.651 57.5237C168.532 57.3834 168.383 57.2694 168.214 57.1897C168.045 57.11 167.86 57.0664 167.672 57.0619C166.866 57.0619 166.463 57.6161 166.463 58.6505C166.463 59.685 166.866 60.2576 167.672 60.2576C167.861 60.2598 168.049 60.2191 168.219 60.1389C168.389 60.0587 168.537 59.9412 168.651 59.7958L169.323 60.4424C169.119 60.6602 168.87 60.8362 168.594 60.9596Z" fill="#242424"/>
<path d="M173.297 61.0703H170.974V56.2674H171.972V58.1147H173.297C173.501 58.1147 173.703 58.1535 173.892 58.2286C174.081 58.3038 174.252 58.414 174.397 58.553C174.541 58.6919 174.656 58.8569 174.734 59.0384C174.812 59.22 174.852 59.4145 174.852 59.611C174.852 59.8075 174.812 60.0021 174.734 60.1836C174.656 60.3651 174.541 60.53 174.397 60.669C174.252 60.8079 174.081 60.9182 173.892 60.9934C173.703 61.0686 173.501 61.1072 173.297 61.1072V61.0703ZM173.124 58.8721H171.972V60.276H173.124C173.318 60.276 173.503 60.2021 173.64 60.0704C173.777 59.9388 173.854 59.7602 173.854 59.574C173.854 59.3878 173.777 59.2093 173.64 59.0777C173.503 58.946 173.318 58.8721 173.124 58.8721Z" fill="#242424"/>
<path d="M179.901 60.553C179.495 60.9193 178.96 61.1231 178.403 61.1231C177.847 61.1231 177.312 60.9193 176.906 60.553C176.686 60.2978 176.522 60.0028 176.423 59.6855C176.325 59.3682 176.293 59.0351 176.33 58.7058C176.295 58.3765 176.328 58.0438 176.427 57.7268C176.525 57.4098 176.688 57.1147 176.906 56.8585C177.316 56.5002 177.85 56.3018 178.403 56.3018C178.957 56.3018 179.491 56.5002 179.901 56.8585C180.339 57.3769 180.546 58.041 180.477 58.7058C180.513 59.0351 180.481 59.368 180.382 59.6852C180.283 60.0023 180.12 60.2973 179.901 60.553ZM179.171 57.3757C179.074 57.2742 178.955 57.1936 178.822 57.1394C178.69 57.0854 178.547 57.0589 178.403 57.0617C178.257 57.0559 178.112 57.0829 177.979 57.1407C177.845 57.1984 177.728 57.2852 177.636 57.3942C177.384 57.7863 177.276 58.2479 177.328 58.7058C177.276 59.1486 177.392 59.5948 177.655 59.9619C177.75 60.0606 177.866 60.1382 177.995 60.1893C178.124 60.2403 178.264 60.2636 178.403 60.2575C178.547 60.2603 178.69 60.2338 178.822 60.1797C178.955 60.1255 179.074 60.0451 179.171 59.9434C179.427 59.5738 179.536 59.1279 179.479 58.6873C179.539 58.229 179.43 57.7649 179.171 57.3757Z" fill="#242424"/>
<path d="M183.376 57.0988V61.0703H182.377V56.2674H185.603V57.0988H183.376Z" fill="#242424"/>
<path d="M190.248 60.553C189.848 60.9221 189.315 61.1283 188.761 61.1283C188.206 61.1283 187.673 60.9221 187.273 60.553C187.05 60.2993 186.882 60.0049 186.78 59.6876C186.678 59.3703 186.643 59.0363 186.678 58.7057C186.645 58.3753 186.681 58.0418 186.783 57.7248C186.885 57.4077 187.052 57.1133 187.273 56.8585C187.679 56.5015 188.21 56.3036 188.761 56.3036C189.311 56.3036 189.842 56.5015 190.248 56.8585C190.469 57.1131 190.634 57.408 190.733 57.7255C190.832 58.0429 190.863 58.3763 190.824 58.7057C190.861 59.035 190.828 59.3679 190.729 59.685C190.631 60.0023 190.467 60.2972 190.248 60.553ZM189.519 57.3757C189.422 57.2726 189.303 57.1902 189.171 57.1339C189.039 57.0774 188.896 57.0483 188.751 57.0483C188.606 57.0483 188.463 57.0774 188.331 57.1339C188.199 57.1902 188.08 57.2726 187.983 57.3757C187.732 57.7678 187.624 58.2293 187.676 58.6873C187.632 59.1296 187.747 59.573 188.002 59.9434C188.207 60.1374 188.483 60.2462 188.77 60.2462C189.058 60.2462 189.333 60.1374 189.538 59.9434C189.781 59.5684 189.889 59.1271 189.845 58.6873C189.912 58.2261 189.796 57.7577 189.519 57.3757Z" fill="#242424"/>
<path d="M198.408 60.9596C198.129 61.0765 197.828 61.1332 197.524 61.1258C196.104 61.1258 195.278 60.2022 195.278 58.632C195.278 57.0619 196.123 56.2121 197.524 56.2121C197.834 56.1908 198.143 56.2419 198.428 56.3609C198.712 56.4799 198.962 56.6634 199.156 56.8956L198.484 57.5237C198.365 57.3833 198.216 57.2693 198.047 57.1896C197.878 57.1099 197.693 57.0664 197.505 57.0619C196.699 57.0619 196.296 57.616 196.296 58.6505C196.296 59.6849 196.699 60.2575 197.505 60.2575C197.695 60.2597 197.882 60.2191 198.052 60.1388C198.222 60.0586 198.37 59.9411 198.484 59.7957L199.156 60.4423C198.945 60.6615 198.691 60.8373 198.408 60.9596Z" fill="#242424"/>
<path d="M203.284 61.0702H200.807V56.2675H203.188C203.376 56.2439 203.568 56.2592 203.751 56.3124C203.933 56.3655 204.101 56.4553 204.244 56.5759C204.388 56.6964 204.503 56.8448 204.582 57.0114C204.662 57.1779 204.703 57.3589 204.704 57.542C204.718 57.7651 204.656 57.9866 204.528 58.173C204.4 58.3594 204.213 58.5011 203.994 58.5764C204.233 58.659 204.438 58.8129 204.58 59.0156C204.721 59.2183 204.792 59.4593 204.781 59.7033C204.79 59.8916 204.757 60.0796 204.684 60.2545C204.611 60.4293 204.5 60.587 204.358 60.7168C204.216 60.8465 204.046 60.9452 203.861 61.0062C203.675 61.0672 203.479 61.0891 203.284 61.0702ZM202.976 57.0248H201.805V58.2255H202.976C203.456 58.2255 203.725 58.0223 203.725 57.6159C203.725 57.2095 203.495 57.0248 202.976 57.0248ZM202.976 58.9829H201.748V60.3129H202.976C203.074 60.3265 203.174 60.3193 203.268 60.2918C203.362 60.2643 203.449 60.2171 203.522 60.1536C203.596 60.0902 203.654 60.012 203.692 59.9246C203.73 59.8372 203.748 59.7427 203.744 59.6479C203.802 59.2231 203.495 58.9829 203.034 58.9829H202.976Z" fill="#242424"/>
<path d="M206.624 54.3092H207.699V55.159H206.624V54.3092ZM206.624 56.3597H207.622V61.0702H206.624V56.3597Z" fill="#242424"/>
<path d="M211.634 57.0988V61.0703H210.636V57.0988H209.062V56.2674H213.093V57.0988H211.634Z" fill="#242424"/>
<path d="M216.127 62.0124C216.051 62.3035 215.871 62.5594 215.618 62.7351C215.365 62.9108 215.056 62.9951 214.745 62.973H214.341V62.1048H214.591C215.013 62.1048 215.167 61.9939 215.321 61.5875L215.589 60.8301L213.842 56.2674H215.013L216.204 59.6479L217.355 56.2674H218.431L216.127 62.0124Z" fill="#242424"/>
<path d="M107.89 65.984V69.9371H108.582V72.043H107.622V70.8238H104.377V72.043H103.437V69.9371H103.955C104.399 69.0922 104.598 68.1477 104.531 67.2032V65.984H107.89ZM105.587 67.5911C105.622 68.3987 105.458 69.2028 105.107 69.9371H107.026V66.8153H105.587V67.5911Z" fill="#242424"/>
<path d="M113.016 70.7869V66.8153H111.576V68.2192C111.576 70.2512 110.962 70.7869 109.983 70.7869H109.426V69.9371H109.599C110.021 69.9371 110.54 69.8264 110.54 67.9791V65.984H114.034V70.7869H113.016Z" fill="#242424"/>
<path d="M115.742 70.7864L116.817 68.8099C116.506 68.7333 116.233 68.5549 116.044 68.3055C115.855 68.0561 115.762 67.7511 115.781 67.443C115.777 67.2425 115.818 67.0435 115.899 66.8589C115.98 66.6743 116.1 66.508 116.252 66.3706C116.404 66.2333 116.584 66.1279 116.78 66.0613C116.977 65.9946 117.185 65.9682 117.393 65.9837H119.755V70.7864H118.737V68.9393H117.835L116.894 70.7864H115.742ZM118.756 66.7595H117.585C117.475 66.7426 117.363 66.7488 117.256 66.7778C117.149 66.8067 117.05 66.8576 116.966 66.927C116.881 66.9963 116.813 67.0826 116.767 67.1796C116.72 67.2766 116.696 67.3823 116.696 67.4891C116.696 67.596 116.72 67.7016 116.767 67.7987C116.813 67.8957 116.881 67.9819 116.966 68.0513C117.05 68.1206 117.149 68.1716 117.256 68.2004C117.363 68.2294 117.475 68.2356 117.585 68.2188H118.756V66.7595Z" fill="#242424"/>
<path d="M128.72 70.7865V67.831H125.86V70.7865H124.785V64.0441H125.841V66.9259H128.701V64.0441H129.757V70.7865H128.72Z" fill="#242424"/>
<path d="M135.305 70.1956C134.904 70.5648 134.371 70.7709 133.817 70.7709C133.262 70.7709 132.729 70.5648 132.329 70.1956C132.108 69.9408 131.941 69.6464 131.839 69.3293C131.737 69.0122 131.701 68.6788 131.734 68.3484C131.697 68.0177 131.731 67.6832 131.833 67.3656C131.935 67.0479 132.104 66.7537 132.329 66.5012C132.729 66.1319 133.262 65.9259 133.817 65.9259C134.371 65.9259 134.904 66.1319 135.305 66.5012C135.529 66.7537 135.698 67.0479 135.801 67.3656C135.903 67.6832 135.937 68.0177 135.9 68.3484C135.932 68.6788 135.896 69.0122 135.794 69.3293C135.692 69.6464 135.526 69.9408 135.305 70.1956ZM134.556 66.9814C134.352 66.8011 134.084 66.7022 133.807 66.7043C133.536 66.705 133.276 66.8039 133.078 66.9814C132.801 67.3633 132.684 67.8318 132.751 68.2929C132.691 68.7597 132.806 69.2318 133.078 69.623C133.276 69.8004 133.536 69.8993 133.807 69.9C134.084 69.9022 134.352 69.8032 134.556 69.623C134.844 69.2387 134.968 68.7625 134.901 68.2929C134.943 67.8539 134.821 67.415 134.556 67.0553V66.9814Z" fill="#242424"/>
<path d="M141.736 70.7868L140.258 67.9421H138.933V70.7868H137.858V64.0444H140.584C140.866 64.0081 141.153 64.0327 141.424 64.1164C141.695 64.2001 141.944 64.3407 142.152 64.5281C142.359 64.7156 142.521 64.9451 142.625 65.2001C142.729 65.4551 142.773 65.7292 142.753 66.0025C142.769 66.4171 142.64 66.8248 142.385 67.1599C142.131 67.495 141.767 67.738 141.352 67.8498L142.964 70.8423L141.736 70.7868ZM140.507 64.9496H138.933V67.0739H140.507C140.659 67.0897 140.813 67.0741 140.959 67.0281C141.104 66.982 141.238 66.9066 141.35 66.8069C141.463 66.7073 141.552 66.5856 141.612 66.45C141.672 66.3145 141.701 66.1682 141.697 66.021C141.704 65.8722 141.677 65.7239 141.618 65.5861C141.56 65.4483 141.471 65.3243 141.358 65.2225C141.245 65.1208 141.11 65.0438 140.963 64.9967C140.817 64.9496 140.661 64.9335 140.507 64.9496Z" fill="#242424"/>
<path d="M145.422 68.6626C145.4 68.8338 145.416 69.0076 145.47 69.1721C145.524 69.3367 145.615 69.488 145.735 69.616C145.855 69.744 146.003 69.8455 146.167 69.9137C146.332 69.9818 146.51 70.0151 146.689 70.0112C146.917 70.0207 147.144 69.9809 147.353 69.8945C147.562 69.8082 147.749 69.6775 147.899 69.5123L148.532 70.085C148.297 70.3481 148 70.5538 147.667 70.6855C147.333 70.8171 146.972 70.8709 146.612 70.8424C145.365 70.8424 144.366 70.1959 144.366 68.3671C144.366 66.8154 145.211 65.9288 146.478 65.9288C146.782 65.9264 147.083 65.9866 147.361 66.1055C147.638 66.2243 147.887 66.3989 148.088 66.6176C148.29 66.8363 148.441 67.094 148.531 67.3734C148.621 67.653 148.647 67.9477 148.609 68.2377V68.6626H145.422ZM147.534 67.3326C147.448 67.1482 147.307 66.9923 147.13 66.8839C146.952 66.7756 146.746 66.7196 146.536 66.7231C146.328 66.7185 146.123 66.7741 145.948 66.8828C145.774 66.9915 145.637 67.1482 145.556 67.3326C145.449 67.5382 145.403 67.7683 145.422 67.9977H147.668C147.666 67.7699 147.621 67.5444 147.534 67.3326Z" fill="#242424"/>
<path d="M152.851 70.8421C152.497 70.8558 152.144 70.7989 151.813 70.6749C151.483 70.551 151.183 70.3626 150.932 70.1216C150.26 69.4566 150.26 68.6993 150.26 67.4062C150.26 66.1132 150.26 65.3742 150.932 64.7093C151.183 64.4683 151.483 64.2799 151.813 64.156C152.144 64.032 152.497 63.975 152.851 63.9888C153.465 63.9618 154.067 64.1605 154.534 64.5448C155.001 64.9291 155.299 65.47 155.366 66.0577H154.272C154.229 65.8063 154.115 65.5709 153.943 65.3777C153.77 65.1844 153.545 65.0408 153.293 64.9625C153.041 64.8843 152.772 64.8744 152.514 64.934C152.257 64.9936 152.021 65.1203 151.834 65.3003C151.488 65.6698 151.392 66.0577 151.392 67.4062C151.392 68.7547 151.392 69.1611 151.834 69.512C151.964 69.6451 152.122 69.7502 152.297 69.8202C152.473 69.8903 152.662 69.9238 152.851 69.9185C153.194 69.9235 153.527 69.8109 153.791 69.601C154.054 69.3911 154.232 69.0976 154.291 68.7732H155.366C155.29 69.3574 154.99 69.8933 154.525 70.276C154.06 70.6586 153.463 70.8605 152.851 70.8421Z" fill="#242424"/>
<path d="M159.839 70.7867V70.3434C159.669 70.5188 159.459 70.6548 159.227 70.7412C158.994 70.8276 158.744 70.8621 158.495 70.8421C158.255 70.8614 158.012 70.832 157.784 70.7556C157.556 70.6792 157.347 70.5577 157.171 70.3988C157.036 70.2604 156.931 70.0977 156.862 69.9202C156.793 69.7427 156.761 69.5538 156.768 69.3644C156.768 68.57 157.343 67.9974 158.495 67.9974H159.82V67.6464C159.82 67.0368 159.494 66.7412 158.726 66.7412C158.517 66.7166 158.305 66.7465 158.113 66.8278C157.92 66.909 157.754 67.0386 157.631 67.2031L156.959 66.6119C157.179 66.3638 157.458 66.1716 157.773 66.0524C158.087 65.9332 158.428 65.8906 158.764 65.9285C160.127 65.9285 160.818 66.4826 160.818 67.5725V70.7867H159.839ZM159.839 68.6624H158.668C158.073 68.6624 157.766 68.921 157.766 69.3459C157.766 69.7707 158.054 70.0293 158.687 70.0293C158.853 70.0527 159.021 70.0398 159.181 69.9919C159.34 69.944 159.487 69.862 159.609 69.7522C159.696 69.6573 159.762 69.5458 159.801 69.4248C159.841 69.3039 159.854 69.1763 159.839 69.0503V68.6624Z" fill="#242424"/>
<path d="M66.7193 11.0765C68.8343 13.1034 70.5648 15.1304 72.103 17.5259C71.1416 17.7103 70.1802 18.0788 69.0266 18.263C67.2961 18.8159 65.5656 19.553 63.4506 20.29C62.4892 20.6586 61.5279 21.2114 60.3742 21.7642C59.4128 22.317 58.2592 22.8699 57.1055 23.4226C55.1828 24.8968 52.8755 26.1867 50.9528 28.0294C50.3759 28.398 49.9914 28.9508 49.4146 29.3193C49.03 29.8721 48.4532 30.425 48.0686 30.7935C47.1073 31.8991 46.3382 32.8205 45.5691 34.1104C43.8386 36.3217 42.4927 38.7172 40.9545 40.9284C40.1854 42.034 39.4163 43.1397 38.6472 44.2452C37.8781 45.3509 37.109 46.4565 36.1476 47.3778C34.4171 49.4048 32.4944 51.0633 30.5716 52.5374C28.4566 53.8273 26.5339 55.3015 24.4189 56.2228C23.4575 56.7757 22.3038 57.1443 21.3425 57.697C20.3811 58.2499 19.4197 58.4341 18.4584 58.8027C16.5356 59.5398 14.8051 60.2769 13.2669 60.6454C11.7287 61.0139 10.1905 61.3824 9.0369 61.751C7.88326 60.4611 6.72961 58.9869 5.76824 57.5128C5.96051 57.5128 6.15278 57.3285 6.34506 57.3285C8.07553 56.7757 9.806 55.8544 11.921 55.1173C12.8824 54.7487 14.036 54.3802 14.9974 53.6431C15.9588 53.0903 17.1124 52.5374 18.2661 51.8003C20.5734 50.6948 22.4961 49.0363 24.8034 47.3778C26.9184 45.5352 29.0335 43.6924 30.7639 41.2969C31.7253 40.1913 32.4944 39.0856 33.2635 37.7958C34.0326 36.6901 34.8017 35.4002 35.5708 34.2946C37.109 31.8991 38.2626 29.5035 39.8008 27.4766C40.5699 26.371 41.339 25.2654 42.1081 24.344C42.4927 23.7912 42.8772 23.4226 43.2618 22.8699C43.6463 22.5013 44.2231 21.9485 44.6077 21.58C46.3382 19.7372 48.2609 18.4474 50.1837 16.9732C51.145 16.4204 52.1064 15.8675 53.0678 15.3147C54.0291 14.7619 54.9905 14.2091 55.9519 13.8405C57.8746 13.1034 59.6051 12.3663 61.1433 11.6293C62.6815 11.0765 64.2197 10.7079 65.3733 10.3394C65.5656 10.3394 65.9502 10.1551 66.1424 10.1551C66.527 10.7079 66.7193 10.8922 66.7193 11.0765ZM4.80686 41.4812C5.76824 40.9284 6.72961 40.5598 7.88326 40.0071C9.99828 39.0856 11.921 37.6115 14.036 36.3217C15.9588 34.6631 17.8815 33.189 19.612 31.1621C20.5734 30.2406 21.3425 29.1351 22.1116 28.0294C22.8807 26.9238 23.6498 25.8181 24.4189 24.7125C25.9571 22.5013 27.303 20.1058 29.0335 17.8945C29.8026 16.7889 30.7639 15.6833 31.533 14.5776C31.9176 14.0249 32.4944 13.472 32.8789 13.1034C33.4558 12.5507 33.8403 12.1821 34.4171 11.6293C36.3399 9.60233 38.6472 8.31243 40.5699 7.02254C41.7236 6.46972 42.6849 5.91691 43.8386 5.3641C44.8 4.81128 45.9536 4.25847 46.915 3.88993C48.8377 3.15285 50.5682 2.60004 52.1064 2.04722C46.7227 0.204513 41.1468 -0.348301 35.5708 0.204512C34.994 0.573054 34.4171 0.941595 33.8403 1.12587C32.1098 2.60004 29.9948 3.88993 28.2644 5.73264C27.8798 6.10119 27.303 6.65399 26.9184 7.02254C26.5339 7.57535 26.1493 7.94389 25.7648 8.49671C24.9957 9.41806 24.2266 10.5237 23.4575 11.6293C21.9193 13.8405 20.7656 16.2361 19.2275 18.4474C18.4584 19.553 17.8815 20.8429 16.9202 21.9485C16.1511 23.0541 15.382 24.3441 14.4206 25.2654C12.3056 27.6609 10.1906 29.5035 8.26781 31.3463C5.96051 32.8205 4.03777 34.6631 1.73047 35.7688C1.15365 36.1373 0.576824 36.3217 0 36.6901C0 38.9014 0 41.1127 0.384549 43.1397C0.769098 42.9553 1.34592 42.7711 1.92275 42.5868C2.88412 42.2183 3.84549 42.034 4.80686 41.4812ZM69.9879 31.5306C69.0266 32.0834 68.0652 32.6362 66.9115 33.189C65.1811 34.6631 63.066 35.9531 61.3356 37.7958C60.951 38.1643 60.3742 38.7172 59.9897 39.0857C59.6051 39.6385 59.2206 40.0071 58.836 40.5598C58.0669 41.4812 57.2978 42.5868 56.5287 43.6924C54.9905 45.9037 53.6446 48.2993 52.2987 50.5105C51.5296 51.6161 50.9528 52.906 49.9914 54.0116C49.2223 55.1173 48.4532 56.4072 47.4918 57.3285C45.7613 59.5398 43.6463 61.3824 41.7236 63.2252C39.4163 64.6994 37.4935 66.542 35.1862 67.6477C34.0326 68.2004 33.0712 68.7533 31.9176 69.3061C30.9562 69.859 29.8026 70.2275 28.8412 70.596C27.4953 71.1488 26.1493 71.7016 24.8034 72.2545C28.0721 73.5444 31.7253 74.2815 35.1862 74.65H35.3785C36.3399 74.2815 37.3013 74.0971 38.2626 73.5444C39.224 72.9916 40.1854 72.623 41.339 72.0702C43.454 71.1488 45.3768 69.6746 47.4918 68.3848C49.4146 66.7263 51.3373 65.2521 53.0678 63.2252C54.0291 62.3038 54.7982 61.1982 55.5673 60.0925C56.3364 58.9869 57.1055 57.8813 57.8746 56.7757C59.4128 54.5644 60.7588 52.1689 62.4892 49.9577C63.2583 48.852 64.2197 47.7464 64.9888 46.6407C65.3733 46.088 65.9502 45.5352 66.3347 45.1666C66.9115 44.6138 67.2961 44.2452 67.8729 43.8768C69.7957 42.034 72.103 40.5598 74.0257 39.27C75.1793 38.7172 76.1407 38.1643 77.2944 37.6115C77.6789 37.4272 77.8712 37.243 78.2557 37.0587C78.2557 34.1104 77.8712 31.1621 77.1021 28.398C75.7562 28.9508 74.4102 29.5035 72.8721 30.0564C71.9107 30.425 70.9493 31.1621 69.9879 31.5306ZM10.9596 23.0541C11.921 22.1328 12.6901 21.0271 13.4592 19.9215C14.2283 18.8159 14.9974 17.7103 15.7665 16.6046C17.3047 14.3934 18.6506 11.9979 20.3811 9.7866C21.1502 8.68097 22.1116 7.57535 22.8807 6.46972C23.2652 5.91691 23.842 5.3641 24.2266 4.99556C24.8034 4.44274 25.188 4.0742 25.7648 3.70566C26.5339 2.96858 27.4953 2.2315 28.2644 1.49441C22.1116 3.15285 16.3433 6.28545 11.5365 11.0765C5.57596 16.7889 1.92275 23.9755 0.576824 31.3463C2.30729 30.425 3.84549 29.3193 5.57596 28.2137C7.30643 26.5552 9.42145 24.8968 10.9596 23.0541ZM69.7957 45.9037C69.4111 46.2723 68.8343 46.8251 68.4497 47.1936C68.0652 47.7464 67.6806 48.1149 67.2961 48.6678C66.527 49.5891 65.7579 50.6948 64.9888 51.8003C63.4506 54.0116 62.297 56.4072 60.7588 58.6184C59.9897 59.724 59.4128 61.014 58.4515 62.1195C57.6824 63.2252 56.9133 64.515 55.9519 65.4365C54.2214 67.6477 52.1064 69.4904 49.9914 71.3331C48.6455 72.2545 47.2995 73.36 45.9536 74.2815C53.4523 72.9915 60.7588 69.4904 66.7193 63.9623C73.8334 57.1443 77.4866 48.4835 78.0635 39.6385C77.1021 40.1913 76.333 40.5598 75.3716 41.1127C73.6412 42.7711 71.5261 44.061 69.7957 45.9037ZM64.412 22.1328C63.4506 22.5013 62.4892 23.0541 61.5279 23.607C60.5665 24.1597 59.6051 24.7125 58.6437 25.2654C56.9133 26.7396 54.7982 28.0294 53.0678 29.8721C52.6832 30.2406 52.1064 30.7935 51.7218 31.1621C51.3373 31.7148 50.9528 32.0834 50.5682 32.6362C49.7991 33.5576 49.03 34.6631 48.2609 35.7688C46.7227 37.9801 45.5691 40.3756 44.0309 42.5868C43.2618 43.6924 42.6849 44.9823 41.7236 46.088C40.9545 47.1936 40.1854 48.4835 39.224 49.4048C37.4935 51.6161 35.3785 53.4589 33.2635 55.3015C30.9562 56.7757 29.0335 58.6184 26.7262 59.724C25.5725 60.2769 24.6111 60.8296 23.4575 61.3824C22.4961 61.9353 21.3425 62.3038 20.3811 62.6724C18.2661 63.4094 16.5356 64.3308 14.8051 64.8836C14.2283 65.0679 13.6515 65.2521 13.0747 65.4365C14.8051 66.9106 16.7279 68.2005 18.6506 69.4904C19.612 69.3061 20.5734 68.9375 21.727 68.569C23.2652 68.0162 24.9957 67.4634 26.9184 66.7263C27.8798 66.3578 28.8412 66.1735 29.8026 65.6207C30.7639 65.0679 31.7253 64.6994 32.8789 64.1465C34.994 63.2252 36.9167 61.751 39.0317 60.4611C40.9545 58.8027 42.8772 57.3285 44.6077 55.3015C45.5691 54.3802 46.3382 53.2745 47.1073 52.1689C47.8764 51.0633 48.6455 49.9577 49.4146 48.852C50.9528 46.6407 52.2987 44.2452 54.0291 42.034C54.7982 40.9284 55.7596 39.8227 56.5287 38.7172C56.9133 38.1643 57.4901 37.6115 57.8746 37.243C58.4515 36.6901 58.836 36.3217 59.4128 35.9531C61.3356 33.9261 63.6429 32.6362 65.5656 31.3463C66.7193 30.7935 67.6806 30.2406 68.8343 29.6879C69.7957 29.1351 70.757 28.5822 71.9107 28.2137C73.6412 27.6609 75.1793 27.108 76.5253 26.5552C75.7562 23.9755 74.6025 21.3957 73.0643 19.0001C72.103 19.3687 70.9493 19.553 69.6034 20.1058C68.0652 20.6586 66.3347 21.3957 64.412 22.1328ZM10.1906 50.5105C11.1519 50.1419 12.1133 49.9577 13.0747 49.4048C14.036 48.852 14.9974 48.4835 16.1511 47.9307C18.2661 47.0093 20.1888 45.5352 22.3038 44.2452C24.2266 42.5868 26.1493 41.1127 27.8798 39.0857C28.8412 38.1643 29.6103 37.0587 30.3794 36.1373C31.1485 35.0317 31.9176 33.9261 32.6867 32.8205C34.2249 30.6092 35.5708 28.2137 37.3013 26.0025C38.0704 24.8968 39.0317 23.7912 39.9931 22.6855C40.3777 22.1328 40.9545 21.58 41.339 21.2114C41.9158 20.6586 42.3004 20.29 42.8772 19.9215C44.8 18.0788 47.1073 16.6046 49.2223 15.3147C50.3759 14.7619 51.3373 14.2091 52.4909 13.6563C53.4523 13.1034 54.606 12.5507 55.5673 12.3663C57.6824 11.6293 59.4128 11.0765 61.1433 10.3394C62.6815 9.97083 64.0274 9.60232 65.1811 9.41806C62.297 7.02254 59.2206 5.17983 55.9519 3.70566C54.606 3.70566 53.8369 3.88993 53.0678 4.0742C51.5296 4.62702 49.7991 5.3641 47.8764 6.10119C46.915 6.46972 45.9536 7.02254 44.9922 7.57535C44.0309 8.12816 43.0695 8.68097 42.1081 9.23379C40.3777 10.7079 38.2626 11.8136 36.5322 13.6563C36.1476 14.0249 35.5708 14.5776 35.1862 14.9462C34.6094 15.499 34.2249 16.0518 33.8403 16.6046C33.0712 17.5259 32.3021 18.6316 31.533 19.7372C29.9948 21.9485 28.8412 24.344 27.303 26.5552C26.5339 27.6609 25.9571 28.9508 24.9957 30.0564C24.2266 31.1621 23.4575 32.4519 22.4961 33.3733C20.7656 35.5846 18.6506 37.4272 16.5356 39.27C14.2283 40.7442 12.3056 42.5868 9.99828 43.6924C8.84463 44.2452 7.88326 44.7981 6.72961 45.3509C5.76824 46.088 4.80686 46.4565 3.65322 46.8251C2.88412 47.1936 2.11502 47.3778 1.34592 47.7464C1.92275 49.4048 2.49957 51.0633 3.26867 52.7218C3.84549 52.5374 4.42231 52.3532 4.99914 52.3532C6.72961 51.8003 8.26781 51.0633 10.1906 50.5105Z" fill="url(#paint0_linear)"/>
<path opacity="0.39" d="M20.7655 6.10136C22.3037 5.36427 23.8419 4.62719 25.3801 4.07438C24.9956 4.44292 24.611 4.81146 24.2265 4.99573C23.8419 5.54855 23.2651 6.10136 22.8806 6.4699C22.6883 6.65416 22.496 6.83844 22.3037 7.20698C22.1115 7.39125 21.7269 7.39125 21.3424 7.39125C20.381 7.75979 19.8042 6.4699 20.7655 6.10136ZM49.0299 2.96875C47.1072 2.41594 44.9921 2.0474 42.8771 1.86312C39.2239 1.49458 35.5707 1.67886 32.1098 2.23167C30.7638 3.33729 29.2256 4.25864 28.072 5.73281L27.8797 5.91708C30.5716 5.54855 33.2634 5.18 35.9552 5.18C38.2625 5.18 40.5698 5.36427 42.6849 5.73281C43.0694 5.54854 43.4539 5.36427 43.8385 5.18C44.7999 4.62719 45.9535 4.07438 46.9149 3.70583C47.4917 3.70583 48.2608 3.33729 49.0299 2.96875ZM70.5647 31.3465C71.3338 34.1106 71.7183 37.0589 71.7183 40.0072C71.7183 40.3758 71.7183 40.56 71.7183 40.9286C72.4874 40.3758 73.2565 39.8229 74.0256 39.2701C74.7947 38.9016 75.7561 38.3487 76.5252 37.9803C76.5252 36.6903 76.5252 35.2162 76.3329 33.9262C76.1406 32.2678 75.7561 30.7936 75.3715 29.1352C74.6024 29.5037 73.6411 29.8723 72.872 30.2408C72.1029 30.4252 71.3338 30.7936 70.5647 31.3465ZM62.2969 9.6025C59.4127 7.39125 56.1441 5.54855 52.6831 4.07438C51.1449 4.62719 49.6067 5.36427 47.684 6.10136C47.2994 6.28562 46.7226 6.4699 46.3381 6.65416C49.9913 7.75979 53.26 9.41823 56.3363 11.4452C57.8745 10.8924 59.4127 10.3396 60.5664 9.97102C61.3355 9.97102 61.72 9.78679 62.2969 9.6025ZM74.7947 27.1082C73.8333 24.3441 72.6797 21.9486 71.3338 19.5531C70.7569 19.7374 70.3724 19.9217 69.7956 20.106C68.6419 20.4745 67.4883 21.0273 66.1424 21.5801C67.6805 23.9756 69.0265 26.5554 69.9878 29.1352C70.7569 28.7666 71.3338 28.3981 72.1029 28.2139C72.872 27.8453 73.8333 27.4768 74.7947 27.1082ZM70.1801 17.8947C68.4496 15.4992 66.5269 13.1036 64.2196 11.2609C63.4505 11.4452 62.4891 11.8138 61.3355 12.1823C60.3741 12.5509 59.4127 12.9194 58.4514 13.288C60.7587 15.1306 62.8737 17.3419 64.7964 19.7374C66.3346 19.1846 67.6805 18.6318 69.0265 18.2632C69.411 18.079 69.7956 17.8947 70.1801 17.8947ZM71.526 44.2454C71.3338 47.5624 70.9492 50.6949 70.1801 53.459C69.7956 54.7489 71.7183 55.4859 72.2951 54.1961C74.4102 50.1421 75.7561 45.5353 76.1406 40.7442C75.7561 40.9286 75.5638 41.1128 75.1793 41.2971C74.2179 42.2184 72.872 43.1398 71.526 44.2454Z" fill="white"/>
<path opacity="0.75" d="M75.1795 27.1078C74.6026 27.2921 73.8335 27.6606 73.2567 27.8449C72.2953 25.0809 70.9494 22.6853 69.4112 20.2898C69.4112 20.2898 69.6035 20.2898 69.6035 20.1055C70.3726 19.9213 71.1417 19.7369 71.7185 19.5527C73.2567 21.7639 74.4104 24.3438 75.1795 27.1078ZM64.7966 11.0763C64.0275 11.2605 63.0662 11.6291 61.9125 11.9976C64.2198 14.0246 66.3348 16.2358 68.2576 18.6314C68.4499 18.6314 68.8344 18.4471 69.0267 18.2628C69.6035 18.0785 70.1803 17.8943 70.7572 17.8943C69.0267 15.3145 67.1039 12.9189 64.7966 11.0763ZM75.7563 28.9505C75.1795 29.1348 74.4104 29.5034 73.8335 29.6876C74.6026 32.4517 75.1795 35.4 75.1795 38.5326C75.7563 38.3483 76.1408 37.9798 76.7177 37.7956C76.7177 37.6112 76.7177 37.6112 76.7177 37.427C76.9099 34.4786 76.5254 31.7146 75.7563 28.9505ZM75.3717 41.2966C75.3717 42.4023 75.1795 43.6922 74.9872 44.7978C74.9872 45.5349 75.9486 45.5349 76.1408 44.9821C76.5254 43.5079 76.7177 42.0337 76.9099 40.5595C76.3331 40.7439 75.9486 41.1124 75.3717 41.2966ZM32.4945 1.86269C31.9177 2.23124 31.3409 2.78404 30.5718 3.15259C32.4945 2.78404 34.6095 2.78404 36.5323 2.78404C39.801 2.78404 43.0696 3.15259 46.3383 3.88967H46.5306C47.6842 3.52113 48.6456 3.15259 49.607 2.78404C46.146 1.86269 42.6851 1.30988 39.0319 1.30988C36.9168 1.30988 34.6095 1.49415 32.4945 1.86269ZM53.4524 4.07395C53.2602 4.07395 53.2602 4.07395 53.0679 4.25821C52.2988 4.62676 51.3374 4.9953 50.3761 5.36384C53.837 6.65373 57.1057 8.31217 59.9898 10.5234C60.1821 10.5234 60.3743 10.3392 60.5666 10.3392C61.3357 10.1549 62.2971 9.97064 62.8739 9.78631C60.1821 7.20655 56.9134 5.36384 53.4524 4.07395Z" fill="white"/>
<defs>
<linearGradient id="paint0_linear" x1="78.5305" y1="37.5961" x2="0.294841" y2="37.5957" gradientUnits="userSpaceOnUse">
<stop stop-color="#E54E26"/>
<stop offset="0.0001" stop-color="#E54E26"/>
<stop offset="1" stop-color="#F9A980"/>
</linearGradient>
</defs>
</svg>
