<svg width="234" height="78" viewBox="0 0 234 78" fill="none" xmlns="http://www.w3.org/2000/svg">
<g clip-path="url(#clip0)">
<g style="mix-blend-mode:screen" opacity="0.39">
<path d="M20.7331 6.24383C22.2218 5.45172 23.7609 4.75859 25.3406 4.16895L24.2463 5.18718C23.7856 5.70589 23.3632 6.26304 22.9025 6.80097L22.3457 7.49259C22.0194 7.58865 21.693 7.6655 21.3859 7.78077C21.1907 7.8297 20.9845 7.80729 20.8043 7.71757C20.6242 7.62786 20.4819 7.47674 20.4032 7.29142C20.3245 7.1061 20.3145 6.89875 20.375 6.70669C20.4355 6.51464 20.5625 6.3505 20.7331 6.24383ZM49.0113 3.16993C46.9931 2.56599 44.9239 2.148 42.8296 1.92117C39.2342 1.52934 35.6013 1.65225 32.0406 2.28619C30.5417 3.33432 29.1581 4.53859 27.9131 5.8788L27.6635 6.14777C30.334 5.69307 33.0369 5.45535 35.7457 5.43693C38.0005 5.43387 40.2504 5.64616 42.4649 6.07092L43.5591 5.49456C44.5397 4.93402 45.5599 4.44602 46.6116 4.03447L49.0113 3.16993ZM70.3974 32.6601C71.159 35.5769 71.5461 38.5789 71.5493 41.5936C71.5493 41.9394 71.5493 42.266 71.5493 42.5926C72.3556 42.0162 73.1619 41.4783 73.9298 40.902L76.3871 39.6148C76.3994 38.1971 76.3353 36.7797 76.1951 35.3689C75.9973 33.6919 75.6895 32.0297 75.2736 30.3931L72.7204 31.4689C71.9089 31.7887 71.1308 32.1877 70.3974 32.6601ZM62.2768 10.067C59.3722 7.71704 56.138 5.80744 52.678 4.39949L47.6866 6.45516C47.2228 6.63099 46.7735 6.84297 46.3428 7.08915C49.8954 8.22458 53.2455 9.91706 56.268 12.1034L60.549 10.5281L62.2768 10.067ZM74.7169 28.3182C73.8672 25.5423 72.6877 22.8784 71.2037 20.3837L69.5911 20.8832L65.9436 22.401C67.5379 24.8951 68.827 27.5719 69.7831 30.3739C70.4563 29.9846 71.163 29.6567 71.8949 29.3941L74.7169 28.3182ZM70.0903 18.7123C68.3782 16.146 66.3604 13.7977 64.0814 11.7192L61.221 12.6029L58.3797 13.8133C60.7538 15.8015 62.8693 18.0798 64.6765 20.5951L68.9192 19.0197L70.0903 18.7123ZM71.4533 46.1084C71.3376 49.3457 70.9003 52.5635 70.1479 55.7143C70.0564 56.0004 70.0783 56.3108 70.209 56.5813C70.3396 56.8517 70.5691 57.0617 70.85 57.1677C71.1309 57.2737 71.4417 57.2678 71.7183 57.151C71.995 57.0343 72.2162 56.8157 72.3364 56.5404C74.5361 52.1336 75.8411 47.3342 76.1759 42.4197L75.216 42.9768C74.0834 44.0335 72.7204 44.9749 71.4533 46.1084Z" fill="white"/>
</g>
<g style="mix-blend-mode:screen" opacity="0.75">
<path d="M75.1392 28.1457L73.2194 28.8949C72.2375 26.1219 70.9497 23.4671 69.3799 20.9797L69.6486 20.8836L71.7412 20.2304C73.1754 22.7287 74.3157 25.3848 75.1392 28.1457ZM64.6764 11.5275L61.8928 12.392C64.2422 14.4086 66.3431 16.6981 68.1512 19.2122L68.9191 18.924L70.6085 18.4629C68.9136 15.9234 66.9222 13.5951 64.6764 11.5275ZM75.6959 30.259L73.7761 31.0659C74.6207 34.0644 75.0978 37.1546 75.1968 40.2683L76.7902 39.3846V39.0772C76.7789 36.0793 76.4116 33.0933 75.6959 30.1821V30.259ZM75.1968 43.2077C75.1968 44.4181 75.0432 45.6476 74.8896 46.8388C74.881 46.9721 74.9223 47.1038 75.0054 47.2083C75.0885 47.3128 75.2075 47.3826 75.3392 47.4042C75.4709 47.4258 75.6059 47.3975 75.718 47.325C75.8301 47.2524 75.9111 47.1408 75.9455 47.0117C76.2714 45.4461 76.4958 43.861 76.6174 42.2664L75.3119 43.0156L75.1968 43.2077ZM32.5012 1.92154L30.7158 3.36243C32.7102 3.05253 34.7256 2.89837 36.7439 2.90135C40.0286 2.8937 43.3005 3.31348 46.4771 4.15011H46.6499L49.7407 2.97819C46.2925 1.96549 42.718 1.44801 39.1244 1.44125C36.9068 1.40418 34.6903 1.56491 32.5012 1.92154ZM53.2922 4.16933L52.8891 4.2846L50.2782 5.37967C53.7182 6.69641 56.9509 8.5016 59.877 10.7398L60.4722 10.5284L62.8335 9.91366C59.9616 7.52715 56.7446 5.59034 53.2922 4.16933Z" fill="white"/>
</g>
<path d="M234 21.6713V38.9619C233.995 42.4081 232.623 45.7114 230.186 48.1464C227.75 50.5814 224.447 51.9491 221.003 51.9491H95.4314C94.8611 51.9491 94.3142 51.7224 93.911 51.3188C93.5078 50.9153 93.2812 50.368 93.2812 49.7973V32.5067C93.2812 29.0623 94.6485 25.759 97.0823 23.3234C99.5161 20.8878 102.817 19.5195 106.259 19.5195H231.831C232.403 19.5195 232.952 19.7456 233.358 20.1486C233.764 20.5516 233.995 21.0988 234 21.6713Z" fill="#39B54A"/>
<path d="M111.884 38.4241H108.947V45.4172H104.128V25.8595H111.807C112.678 25.7915 113.553 25.9045 114.378 26.1913C115.204 26.4781 115.96 26.9326 116.602 27.5261C117.243 28.1197 117.755 28.8396 118.104 29.6405C118.454 30.4414 118.635 31.3061 118.635 32.1802C118.635 33.0544 118.454 33.919 118.104 34.72C117.755 35.5209 117.243 36.2408 116.602 36.8343C115.96 37.4279 115.204 37.8824 114.378 38.1692C113.553 38.456 112.678 38.5689 111.807 38.5009L111.884 38.4241ZM111.673 30.1246H108.947V34.0822H111.673C111.932 34.0822 112.189 34.031 112.429 33.9316C112.669 33.8321 112.887 33.6864 113.071 33.5026C113.254 33.3189 113.4 33.1007 113.499 32.8606C113.599 32.6206 113.65 32.3632 113.65 32.1034C113.65 31.8435 113.599 31.5862 113.499 31.3461C113.4 31.106 113.254 30.8879 113.071 30.7042C112.887 30.5204 112.669 30.3746 112.429 30.2752C112.189 30.1758 111.932 30.1246 111.673 30.1246Z" fill="white"/>
<path d="M131.312 45.4939L127.837 38.1935H126.205V45.4939H121.387V25.8595H129.162C130.024 25.8012 130.889 25.9219 131.703 26.2139C132.517 26.5058 133.261 26.9628 133.89 27.5562C134.519 28.1496 135.019 28.8666 135.358 29.6622C135.698 30.4579 135.869 31.3151 135.862 32.1802C135.871 33.2519 135.574 34.3039 135.006 35.2126C134.438 36.1213 133.623 36.8488 132.656 37.3097L136.898 45.4939H131.312ZM128.951 30.1245H126.205V34.0821H128.951C129.21 34.0821 129.467 34.0309 129.707 33.9315C129.947 33.8321 130.165 33.6863 130.349 33.5025C130.532 33.3188 130.678 33.1006 130.777 32.8606C130.877 32.6205 130.928 32.3632 130.928 32.1033C130.928 31.8434 130.877 31.5861 130.777 31.346C130.678 31.106 130.532 30.8878 130.349 30.7041C130.165 30.5203 129.947 30.3746 129.707 30.2751C129.467 30.1757 129.21 30.1245 128.951 30.1245Z" fill="white"/>
<path d="M151.124 43.4575C150.417 44.1941 149.562 44.772 148.616 45.1529C147.669 45.5338 146.652 45.709 145.633 45.6669C144.613 45.714 143.595 45.5411 142.648 45.1599C141.7 44.7787 140.846 44.1981 140.143 43.4575C138.069 41.3826 138.223 38.6353 138.223 35.6767C138.223 32.7181 138.223 29.9132 140.143 27.992C140.844 27.2539 141.695 26.6748 142.639 26.2937C143.583 25.9126 144.597 25.7383 145.614 25.7826C146.633 25.7405 147.65 25.9157 148.596 26.2966C149.543 26.6775 150.398 27.2554 151.104 27.992C153.159 30.0477 153.024 32.8142 153.024 35.6767C153.024 38.5393 153.178 41.3826 151.124 43.4575ZM147.572 30.8546C147.334 30.5806 147.039 30.3628 146.707 30.2166C146.375 30.0705 146.015 29.9996 145.652 30.0092C145.289 29.9955 144.928 30.0645 144.595 30.2109C144.263 30.3573 143.968 30.5774 143.732 30.8546C143.291 31.4309 143.003 32.1033 143.003 35.6767C143.003 39.2501 143.291 39.9033 143.732 40.4797C143.965 40.7627 144.258 40.9894 144.591 41.1424C144.923 41.2955 145.286 41.3711 145.652 41.3634C146.018 41.3669 146.379 41.2895 146.711 41.1367C147.043 40.984 147.337 40.7596 147.572 40.4797C147.994 39.9033 148.282 39.2693 148.282 35.6767C148.282 32.0841 147.994 31.4309 147.572 30.8546Z" fill="white"/>
<path d="M168.939 43.5724C168.23 44.2259 167.398 44.7322 166.492 45.0619C165.585 45.3917 164.623 45.5384 163.66 45.4936H156.441V25.8591H163.717C164.68 25.8153 165.643 25.9625 166.549 26.2923C167.455 26.622 168.287 27.1277 168.997 27.7803C171.281 30.0665 171.032 32.5832 171.032 35.6571C171.032 38.731 171.281 41.2862 168.939 43.5724ZM165.637 31.2768C165.386 30.8988 165.038 30.5956 164.629 30.3995C164.22 30.2033 163.766 30.1214 163.314 30.1625H161.26V41.1901H163.372C163.821 41.2312 164.274 41.1514 164.682 40.9588C165.09 40.7663 165.44 40.4681 165.695 40.0951C166.079 39.5379 166.213 39.0192 166.213 35.6763C166.213 32.3335 166.079 31.8148 165.695 31.2768H165.637Z" fill="white"/>
<path d="M181.456 45.6668C180.498 45.7221 179.538 45.5797 178.637 45.2485C177.736 44.9174 176.912 44.4044 176.217 43.7415C175.523 43.0785 174.971 42.2798 174.598 41.3948C174.224 40.5098 174.036 39.5575 174.046 38.5968V25.8594H178.864V38.4239C178.813 38.7888 178.843 39.1604 178.952 39.5125C179.06 39.8646 179.244 40.1886 179.491 40.4616C179.739 40.7346 180.043 40.95 180.382 41.0925C180.722 41.235 181.088 41.3013 181.456 41.2865C181.825 41.3003 182.193 41.2338 182.534 41.0916C182.875 40.9493 183.181 40.7347 183.431 40.4625C183.681 40.1904 183.869 39.8672 183.982 39.5152C184.095 39.1632 184.131 38.7909 184.086 38.4239V25.8594H188.924V38.5968C188.925 39.5602 188.73 40.5137 188.35 41.3989C187.97 42.2841 187.414 43.0822 186.714 43.7443C186.015 44.4063 185.188 44.9184 184.284 45.249C183.379 45.5796 182.417 45.7217 181.456 45.6668Z" fill="white"/>
<path d="M199.367 45.6668C198.352 45.7001 197.341 45.5208 196.399 45.1404C195.457 44.7599 194.604 44.1867 193.896 43.4575C191.842 41.3826 191.976 38.6353 191.976 35.6767C191.976 32.7181 191.976 29.9131 193.896 27.9919C194.604 27.2627 195.457 26.6895 196.399 26.309C197.341 25.9286 198.352 25.7493 199.367 25.7826C201.191 25.685 202.982 26.2959 204.366 27.488C205.751 28.68 206.621 30.361 206.797 32.1801H201.882C201.806 31.5809 201.506 31.0326 201.044 30.6445C200.581 30.2564 199.99 30.057 199.387 30.086C199.024 30.0641 198.662 30.1274 198.329 30.2709C197.995 30.4143 197.7 30.6339 197.467 30.9121C197.025 31.4885 196.718 32.1801 196.718 35.7535C196.718 39.3269 197.025 40.0378 197.467 40.6141C197.702 40.89 197.998 41.108 198.331 41.2513C198.663 41.3945 199.025 41.4592 199.387 41.4402C199.989 41.4648 200.578 41.2638 201.039 40.8765C201.501 40.4892 201.802 39.9435 201.882 39.3461H206.797C206.599 41.1495 205.719 42.8087 204.337 43.9839C202.956 45.159 201.178 45.7611 199.367 45.6668Z" fill="white"/>
<path d="M218.373 30.1628V45.5323H213.535V30.1628H208.716V25.8594H223.191V30.1628H218.373Z" fill="white"/>
<path d="M107.871 15.1776C107.148 15.2325 106.421 15.1323 105.739 14.8839C105.057 14.6354 104.436 14.2444 103.917 13.7368L105.28 12.3535C105.634 12.6758 106.049 12.9235 106.501 13.082C106.953 13.2404 107.432 13.3063 107.91 13.2757C109.157 13.2757 109.829 12.7954 109.829 11.9308C109.831 11.7574 109.796 11.5855 109.726 11.4266C109.657 11.2676 109.555 11.1252 109.426 11.0087C109.153 10.7891 108.817 10.6614 108.466 10.6436L107.142 10.4515C106.398 10.3863 105.694 10.0908 105.126 9.60621C104.853 9.32541 104.642 8.99061 104.507 8.62333C104.371 8.25605 104.314 7.86444 104.339 7.4737C104.342 6.99355 104.448 6.51968 104.65 6.08398C104.851 5.64827 105.144 5.26085 105.508 4.94776C105.872 4.63468 106.298 4.40321 106.759 4.26892C107.219 4.13464 107.703 4.10066 108.178 4.16926C108.82 4.12587 109.463 4.21616 110.068 4.43442C110.673 4.65268 111.225 4.99415 111.692 5.43724L110.348 6.76286C110.044 6.49695 109.691 6.29383 109.309 6.16523C108.927 6.03662 108.523 5.98509 108.121 6.0136C106.988 6.0136 106.431 6.64759 106.431 7.39685C106.43 7.54058 106.458 7.68311 106.514 7.81539C106.57 7.94768 106.653 8.06684 106.758 8.16532C107.046 8.40959 107.4 8.56329 107.775 8.60719L109.061 8.7801C109.802 8.84358 110.505 9.1318 111.077 9.60621C111.366 9.9127 111.589 10.2757 111.731 10.6725C111.873 11.0693 111.931 11.4912 111.903 11.9116C111.903 13.9865 110.156 15.1776 107.871 15.1776Z" fill="#242424"/>
<path d="M118.123 15.178C117.606 15.1987 117.09 15.1146 116.606 14.9308C116.123 14.747 115.681 14.4673 115.308 14.1084C114.935 13.7495 114.639 13.3189 114.436 12.8424C114.234 12.3659 114.129 11.8534 114.13 11.3356V4.20801H116.261V11.278C116.241 11.5354 116.276 11.7942 116.366 12.0364C116.455 12.2787 116.596 12.4987 116.778 12.6813C116.961 12.8639 117.181 13.0048 117.423 13.0942C117.665 13.1836 117.923 13.2194 118.181 13.1991C118.437 13.2161 118.694 13.1781 118.935 13.0875C119.175 12.997 119.394 12.856 119.576 12.6741C119.758 12.4922 119.898 12.2736 119.989 12.0328C120.079 11.792 120.117 11.5346 120.1 11.278V4.20801H122.212V11.3548C122.211 11.8795 122.102 12.3983 121.892 12.8793C121.683 13.3603 121.377 13.7932 120.994 14.1514C120.611 14.5096 120.158 14.7855 119.665 14.962C119.171 15.1386 118.646 15.2121 118.123 15.178Z" fill="#242424"/>
<path d="M127.875 15.1777C127.149 15.2316 126.419 15.1311 125.734 14.8828C125.049 14.6345 124.425 14.2439 123.901 13.7369L125.284 12.3536C125.637 12.6768 126.052 12.9252 126.504 13.0836C126.956 13.2421 127.436 13.3075 127.914 13.2758C129.162 13.2758 129.833 12.7955 129.833 11.9309C129.841 11.7618 129.815 11.5929 129.755 11.4343C129.696 11.2758 129.605 11.131 129.488 11.0088C129.214 10.7892 128.878 10.6615 128.528 10.6438L127.223 10.4516C126.446 10.4064 125.705 10.1097 125.111 9.60631C124.845 9.32126 124.641 8.98532 124.509 8.61879C124.377 8.25225 124.32 7.86274 124.343 7.4738C124.343 6.99266 124.447 6.51721 124.648 6.07995C124.848 5.64269 125.141 5.25391 125.505 4.94019C125.87 4.62646 126.298 4.39519 126.76 4.26215C127.222 4.12912 127.707 4.09747 128.182 4.16937C128.824 4.12715 129.467 4.21799 130.071 4.43618C130.676 4.65438 131.229 4.99522 131.696 5.43735L130.352 6.76296C130.048 6.49706 129.695 6.29393 129.313 6.16533C128.931 6.03673 128.527 5.98519 128.125 6.0137C126.992 6.0137 126.435 6.64769 126.435 7.39695C126.434 7.54068 126.462 7.68321 126.518 7.8155C126.574 7.94779 126.657 8.06695 126.762 8.16543C127.045 8.40628 127.392 8.55978 127.76 8.6073L129.046 8.7802C129.788 8.84001 130.492 9.12867 131.062 9.60631C131.354 9.91187 131.579 10.2743 131.724 10.6709C131.87 11.0676 131.932 11.49 131.907 11.9117C131.907 13.9866 130.141 15.1777 127.875 15.1777Z" fill="#242424"/>
<path d="M140.143 15.0819V10.5287H136.418V15.0819H134.383V4.20801H136.514V8.64594H140.143V4.20801H142.254V15.0819H140.143Z" fill="#242424"/>
<path d="M145.134 15.0819V4.20801H147.265V15.0819H145.134Z" fill="#242424"/>
<path d="M107.065 63.5146V59.3841H105.145V63.5146H104.147V58.5195H108.082V63.5146H107.065Z" fill="#242424"/>
<path d="M113.688 63.1111C113.522 63.2685 113.326 63.3905 113.111 63.4697C112.897 63.549 112.669 63.5839 112.44 63.5722C112.195 63.5875 111.95 63.543 111.726 63.4426C111.502 63.3422 111.306 63.1889 111.154 62.9959V65.5318H110.156V58.5195H111.135V59.0382C111.291 58.8449 111.49 58.6916 111.718 58.5914C111.945 58.4911 112.192 58.4467 112.44 58.4619C112.832 58.4268 113.222 58.5393 113.534 58.7775C113.847 59.0157 114.059 59.3622 114.13 59.7491C114.178 60.1768 114.178 60.6085 114.13 61.0362C114.26 61.759 114.101 62.504 113.688 63.1111ZM112.191 59.2688C112.018 59.2574 111.847 59.2969 111.696 59.3822C111.546 59.4676 111.424 59.5951 111.346 59.7491C111.2 60.1419 111.135 60.56 111.154 60.9786C111.154 62.1121 111.461 62.5924 112.21 62.5924C112.959 62.5924 113.247 62.1121 113.247 60.921C113.247 59.7298 112.939 59.3456 112.191 59.3456V59.2688Z" fill="#242424"/>
<path d="M119.429 62.9763C119.231 63.1705 118.997 63.3233 118.74 63.4256C118.483 63.5279 118.208 63.5776 117.931 63.5718C117.656 63.5843 117.382 63.5375 117.127 63.4348C116.872 63.332 116.642 63.1757 116.453 62.9763C116.23 62.7124 116.062 62.4063 115.96 62.0762C115.858 61.7462 115.823 61.3989 115.858 61.0551C115.825 60.7114 115.861 60.3646 115.963 60.0349C116.065 59.7051 116.232 59.3989 116.453 59.1339C116.644 58.938 116.875 58.7852 117.13 58.6858C117.385 58.5864 117.658 58.5426 117.931 58.5575C118.207 58.5482 118.481 58.5943 118.738 58.6934C118.996 58.7924 119.23 58.9422 119.429 59.1339C119.866 59.6731 120.073 60.3637 120.004 61.0551C120.041 61.3975 120.008 61.7438 119.91 62.0736C119.811 62.4035 119.647 62.7103 119.429 62.9763ZM118.699 59.6718C118.601 59.5662 118.482 59.4824 118.35 59.4261C118.218 59.3698 118.075 59.3423 117.931 59.3452C117.785 59.3421 117.641 59.3715 117.508 59.4313C117.375 59.4911 117.257 59.5799 117.163 59.691C116.912 60.0988 116.804 60.5789 116.856 61.0551C116.804 61.5157 116.92 61.9797 117.182 62.3615C117.279 62.4622 117.395 62.5416 117.524 62.5945C117.653 62.6474 117.792 62.6728 117.931 62.6689C118.075 62.6718 118.218 62.6443 118.35 62.588C118.482 62.5317 118.601 62.4479 118.699 62.3423C118.955 61.9579 119.064 61.4941 119.006 61.0359C119.066 60.5592 118.958 60.0766 118.699 59.6718Z" fill="#242424"/>
<path d="M125.591 58.5195V62.6309H126.263V64.7826H125.303V63.5146H122.078V64.7826H121.118V62.6309H121.655C122.08 61.746 122.271 60.7673 122.212 59.7875V58.5195H125.591ZM123.172 60.191C123.207 61.0308 123.043 61.8671 122.692 62.6309H124.612V59.3841H123.21L123.172 60.191Z" fill="#242424"/>
<path d="M129.411 64.4944C129.335 64.7971 129.155 65.0633 128.902 65.246C128.649 65.4288 128.34 65.5164 128.029 65.4934H127.626V64.5905H127.875C128.278 64.5905 128.451 64.4752 128.586 64.0525L128.874 63.2648L127.107 58.5195H128.182L129.373 62.0353L130.544 58.5195H131.619L129.411 64.4944Z" fill="#242424"/>
<path d="M132.982 63.5146V58.5195H133.999V60.9018L135.919 58.5195H137.129L135.209 60.8634L137.34 63.5146H136.111L134.191 60.921V63.5146H132.982Z" fill="#242424"/>
<path d="M140.431 59.3841V63.5146H139.432V59.3841H137.839V58.5195H142.062V59.3841H140.431Z" fill="#242424"/>
<path d="M146.497 63.5146V60.0757L144.366 63.5146H143.349V58.5195H144.366V61.9008L146.497 58.5195H147.495V63.5146H146.497Z" fill="#242424"/>
<path d="M153.965 63.5721C153.198 63.6157 152.445 63.3531 151.872 62.842L152.467 62.208C152.839 62.5466 153.328 62.726 153.83 62.7075C154.349 62.7075 154.886 62.4578 154.886 61.9967C154.886 61.5356 154.541 61.3243 154.022 61.3243H153.273V60.575H154.003C154.483 60.575 154.809 60.3253 154.809 59.9026C154.809 59.4799 154.425 59.2686 153.83 59.2686C153.397 59.2696 152.975 59.4037 152.621 59.6529L152.064 59.0189C152.624 58.6241 153.3 58.428 153.984 58.4617C154.944 58.4617 155.769 58.9228 155.769 59.8065C155.771 60.0412 155.703 60.271 155.573 60.4662C155.442 60.6615 155.257 60.8132 155.04 60.9016C155.277 60.9857 155.483 61.142 155.627 61.3487C155.772 61.5554 155.848 61.8021 155.846 62.0543C155.822 62.2776 155.754 62.494 155.647 62.6911C155.539 62.8882 155.394 63.0622 155.219 63.2032C155.045 63.3441 154.844 63.4492 154.629 63.5125C154.413 63.5758 154.188 63.5961 153.965 63.5721Z" fill="#242424"/>
<path d="M162.143 64.4944C162.07 64.7991 161.891 65.0676 161.637 65.2509C161.384 65.4343 161.072 65.5204 160.761 65.4934H160.358V64.5905H160.626C161.029 64.5905 161.183 64.4752 161.337 64.0525L161.605 63.2648L159.858 58.5195H160.933L162.124 62.0353L163.276 58.5195H164.351L162.143 64.4944Z" fill="#242424"/>
<path d="M168.594 63.3994C168.308 63.5192 168.001 63.5781 167.691 63.5723C166.29 63.5723 165.464 62.6117 165.464 60.9787C165.464 59.3457 166.29 58.462 167.691 58.462C167.999 58.4597 168.304 58.5117 168.594 58.6157C168.871 58.7519 169.119 58.9412 169.323 59.1728L168.651 59.826C168.532 59.6801 168.383 59.5616 168.214 59.4787C168.045 59.3958 167.86 59.3504 167.672 59.3457C166.866 59.3457 166.463 59.9221 166.463 60.9979C166.463 62.0738 166.866 62.6694 167.672 62.6694C167.861 62.6716 168.049 62.6293 168.219 62.5459C168.389 62.4625 168.537 62.3403 168.651 62.1891L169.323 62.8615C169.119 63.0881 168.87 63.2711 168.594 63.3994Z" fill="#242424"/>
<path d="M173.297 63.5146H170.974V58.5195H171.972V60.4407H173.297C173.501 60.4407 173.703 60.481 173.892 60.5592C174.081 60.6374 174.252 60.752 174.397 60.8965C174.541 61.041 174.656 61.2126 174.734 61.4014C174.812 61.5902 174.852 61.7925 174.852 61.9969C174.852 62.2012 174.812 62.4036 174.734 62.5924C174.656 62.7812 174.541 62.9527 174.397 63.0972C174.252 63.2417 174.081 63.3564 173.892 63.4346C173.703 63.5128 173.501 63.553 173.297 63.553V63.5146ZM173.124 61.2284H171.972V62.6885H173.124C173.318 62.6885 173.503 62.6116 173.64 62.4747C173.777 62.3378 173.854 62.1521 173.854 61.9584C173.854 61.7648 173.777 61.5791 173.64 61.4422C173.503 61.3053 173.318 61.2284 173.124 61.2284Z" fill="#242424"/>
<path d="M179.901 62.9766C179.495 63.3575 178.96 63.5695 178.403 63.5695C177.847 63.5695 177.312 63.3575 176.906 62.9766C176.686 62.7112 176.522 62.4044 176.423 62.0744C176.325 61.7444 176.293 61.3979 176.33 61.0554C176.295 60.713 176.328 60.367 176.427 60.0373C176.525 59.7076 176.688 59.4007 176.906 59.1342C177.316 58.7616 177.85 58.5552 178.403 58.5552C178.957 58.5552 179.491 58.7616 179.901 59.1342C180.339 59.6734 180.546 60.364 180.477 61.0554C180.513 61.3979 180.481 61.7441 180.382 62.074C180.283 62.4038 180.12 62.7106 179.901 62.9766ZM179.171 59.6721C179.074 59.5665 178.955 59.4827 178.822 59.4264C178.69 59.3702 178.547 59.3426 178.403 59.3455C178.257 59.3395 178.112 59.3676 177.979 59.4277C177.845 59.4877 177.728 59.578 177.636 59.6914C177.384 60.0991 177.276 60.5792 177.328 61.0554C177.276 61.516 177.392 61.98 177.655 62.3618C177.75 62.4645 177.866 62.5452 177.995 62.5983C178.124 62.6514 178.264 62.6756 178.403 62.6692C178.547 62.6722 178.69 62.6446 178.822 62.5883C178.955 62.532 179.074 62.4483 179.171 62.3426C179.427 61.9582 179.536 61.4944 179.479 61.0362C179.539 60.5596 179.43 60.0769 179.171 59.6721Z" fill="#242424"/>
<path d="M183.376 59.3841V63.5146H182.377V58.5195H185.603V59.3841H183.376Z" fill="#242424"/>
<path d="M190.248 62.9766C189.848 63.3605 189.315 63.5749 188.761 63.5749C188.206 63.5749 187.673 63.3605 187.273 62.9766C187.05 62.7127 186.882 62.4066 186.78 62.0765C186.678 61.7465 186.643 61.3992 186.678 61.0554C186.645 60.7117 186.681 60.3649 186.783 60.0352C186.885 59.7054 187.052 59.3992 187.273 59.1342C187.679 58.7629 188.21 58.5571 188.761 58.5571C189.311 58.5571 189.842 58.7629 190.248 59.1342C190.469 59.399 190.634 59.7057 190.733 60.0359C190.832 60.366 190.863 60.7128 190.824 61.0554C190.861 61.3978 190.828 61.7441 190.729 62.0739C190.631 62.4038 190.467 62.7106 190.248 62.9766ZM189.519 59.6721C189.422 59.5649 189.303 59.4792 189.171 59.4206C189.039 59.3619 188.896 59.3316 188.751 59.3316C188.606 59.3316 188.463 59.3619 188.331 59.4206C188.199 59.4792 188.08 59.5649 187.983 59.6721C187.732 60.0799 187.624 60.5599 187.676 61.0362C187.632 61.4962 187.747 61.9574 188.002 62.3426C188.207 62.5444 188.483 62.6575 188.77 62.6575C189.058 62.6575 189.333 62.5444 189.538 62.3426C189.781 61.9526 189.889 61.4936 189.845 61.0362C189.912 60.5566 189.796 60.0694 189.519 59.6721Z" fill="#242424"/>
<path d="M198.408 63.3994C198.129 63.521 197.828 63.58 197.524 63.5723C196.104 63.5723 195.278 62.6117 195.278 60.9787C195.278 59.3457 196.123 58.4619 197.524 58.4619C197.834 58.4398 198.143 58.4929 198.428 58.6167C198.712 58.7405 198.962 58.9313 199.156 59.1728L198.484 59.826C198.365 59.68 198.216 59.5615 198.047 59.4786C197.878 59.3957 197.693 59.3504 197.505 59.3457C196.699 59.3457 196.296 59.922 196.296 60.9979C196.296 62.0737 196.699 62.6693 197.505 62.6693C197.695 62.6715 197.882 62.6293 198.052 62.5458C198.222 62.4624 198.37 62.3402 198.484 62.189L199.156 62.8614C198.945 63.0894 198.691 63.2723 198.408 63.3994Z" fill="#242424"/>
<path d="M203.284 63.5145H200.807V58.5195H203.188C203.376 58.495 203.568 58.5109 203.751 58.5662C203.933 58.6215 204.101 58.7149 204.244 58.8403C204.388 58.9656 204.503 59.12 204.582 59.2932C204.662 59.4664 204.703 59.6546 204.704 59.8451C204.718 60.0771 204.656 60.3074 204.528 60.5013C204.4 60.6952 204.213 60.8425 203.994 60.9209C204.233 61.0068 204.438 61.1668 204.58 61.3776C204.721 61.5884 204.792 61.8391 204.781 62.0929C204.79 62.2887 204.757 62.4842 204.684 62.6661C204.611 62.8479 204.5 63.0119 204.358 63.1469C204.216 63.2818 204.046 63.3845 203.861 63.4479C203.675 63.5114 203.479 63.5341 203.284 63.5145ZM202.976 59.3072H201.805V60.5559H202.976C203.456 60.5559 203.725 60.3446 203.725 59.9219C203.725 59.4993 203.495 59.3072 202.976 59.3072ZM202.976 61.3436H201.748V62.7269H202.976C203.074 62.741 203.174 62.7335 203.268 62.7049C203.362 62.6763 203.449 62.6272 203.522 62.5612C203.596 62.4952 203.654 62.4139 203.692 62.323C203.73 62.2321 203.748 62.1338 203.744 62.0352C203.802 61.5934 203.495 61.3436 203.034 61.3436H202.976Z" fill="#242424"/>
<path d="M206.624 56.4829H207.699V57.3667H206.624V56.4829ZM206.624 58.6154H207.622V63.5145H206.624V58.6154Z" fill="#242424"/>
<path d="M211.634 59.3841V63.5146H210.636V59.3841H209.062V58.5195H213.093V59.3841H211.634Z" fill="#242424"/>
<path d="M216.127 64.4944C216.051 64.7971 215.871 65.0633 215.618 65.246C215.365 65.4288 215.056 65.5164 214.745 65.4934H214.341V64.5905H214.591C215.013 64.5905 215.167 64.4752 215.321 64.0525L215.589 63.2648L213.842 58.5195H215.013L216.204 62.0353L217.355 58.5195H218.431L216.127 64.4944Z" fill="#242424"/>
<path d="M107.89 68.625V72.7363H108.582V74.9265H107.622V73.6585H104.377V74.9265H103.437V72.7363H103.955C104.399 71.8576 104.598 70.8753 104.531 69.893V68.625H107.89ZM105.587 70.2964C105.622 71.1363 105.458 71.9726 105.107 72.7363H107.026V69.4895H105.587V70.2964Z" fill="#242424"/>
<path d="M113.016 73.6201V69.4895H111.576V70.9496C111.576 73.0629 110.962 73.6201 109.983 73.6201H109.426V72.7363H109.599C110.021 72.7363 110.54 72.6211 110.54 70.6999V68.625H114.034V73.6201H113.016Z" fill="#242424"/>
<path d="M115.742 73.6196L116.817 71.564C116.506 71.4843 116.233 71.2988 116.044 71.0394C115.855 70.78 115.762 70.4628 115.781 70.1423C115.777 69.9338 115.818 69.7269 115.899 69.5349C115.98 69.3429 116.1 69.1699 116.252 69.027C116.404 68.8842 116.584 68.7746 116.78 68.7053C116.977 68.636 117.185 68.6085 117.393 68.6246H119.755V73.6196H118.737V71.6985H117.835L116.894 73.6196H115.742ZM118.756 69.4315H117.585C117.475 69.4139 117.363 69.4204 117.256 69.4505C117.149 69.4806 117.05 69.5335 116.966 69.6057C116.881 69.6778 116.813 69.7675 116.767 69.8684C116.72 69.9693 116.696 70.0792 116.696 70.1903C116.696 70.3015 116.72 70.4113 116.767 70.5123C116.813 70.6132 116.881 70.7028 116.966 70.775C117.05 70.8471 117.149 70.9001 117.256 70.9301C117.363 70.9602 117.475 70.9667 117.585 70.9492H118.756V69.4315Z" fill="#242424"/>
<path d="M128.72 73.6197V70.5459H125.86V73.6197H124.785V66.6074H125.841V69.6045H128.701V66.6074H129.757V73.6197H128.72Z" fill="#242424"/>
<path d="M135.305 73.0051C134.904 73.3891 134.371 73.6034 133.817 73.6034C133.262 73.6034 132.729 73.3891 132.329 73.0051C132.108 72.7401 131.941 72.4339 131.839 72.1041C131.737 71.7744 131.701 71.4276 131.734 71.084C131.697 70.74 131.731 70.3922 131.833 70.0618C131.935 69.7314 132.104 69.4255 132.329 69.1628C132.729 68.7788 133.262 68.5645 133.817 68.5645C134.371 68.5645 134.904 68.7788 135.305 69.1628C135.529 69.4255 135.698 69.7314 135.801 70.0618C135.903 70.3922 135.937 70.74 135.9 71.084C135.932 71.4276 135.896 71.7744 135.794 72.1041C135.692 72.4339 135.526 72.7401 135.305 73.0051ZM134.556 69.6623C134.352 69.4748 134.084 69.3719 133.807 69.3741C133.536 69.3748 133.276 69.4777 133.078 69.6623C132.801 70.0595 132.684 70.5467 132.751 71.0263C132.691 71.5117 132.806 72.0027 133.078 72.4096C133.276 72.5941 133.536 72.697 133.807 72.6977C134.084 72.7 134.352 72.597 134.556 72.4096C134.844 72.0099 134.968 71.5147 134.901 71.0263C134.943 70.5697 134.821 70.1132 134.556 69.7391V69.6623Z" fill="#242424"/>
<path d="M141.736 73.62L140.258 70.6614H138.933V73.62H137.858V66.6077H140.584C140.866 66.57 141.153 66.5956 141.424 66.6826C141.695 66.7696 141.944 66.9159 142.152 67.1108C142.359 67.3058 142.521 67.5445 142.625 67.8097C142.729 68.0749 142.773 68.3599 142.753 68.6442C142.769 69.0754 142.64 69.4994 142.385 69.8479C142.131 70.1964 141.767 70.4492 141.352 70.5654L142.964 73.6777L141.736 73.62ZM140.507 67.5491H138.933V69.7585H140.507C140.659 69.7749 140.813 69.7587 140.959 69.7108C141.104 69.6629 141.238 69.5845 141.35 69.4808C141.463 69.3772 141.552 69.2506 141.612 69.1096C141.672 68.9687 141.701 68.8165 141.697 68.6634C141.704 68.5087 141.677 68.3544 141.618 68.2111C141.56 68.0678 141.471 67.9388 141.358 67.833C141.245 67.7272 141.11 67.6471 140.963 67.5981C140.817 67.5491 140.661 67.5324 140.507 67.5491Z" fill="#242424"/>
<path d="M145.422 71.4108C145.4 71.5888 145.416 71.7696 145.47 71.9407C145.524 72.1118 145.615 72.2692 145.735 72.4023C145.855 72.5354 146.003 72.641 146.167 72.7119C146.332 72.7828 146.51 72.8174 146.689 72.8133C146.917 72.8232 147.144 72.7818 147.353 72.692C147.562 72.6022 147.749 72.4663 147.899 72.2945L148.532 72.8901C148.297 73.1637 148 73.3777 147.667 73.5146C147.333 73.6515 146.972 73.7074 146.612 73.6778C145.365 73.6778 144.366 73.0054 144.366 71.1034C144.366 69.4896 145.211 68.5675 146.478 68.5675C146.782 68.565 147.083 68.6277 147.361 68.7513C147.638 68.8749 147.887 69.0565 148.088 69.2839C148.29 69.5114 148.441 69.7794 148.531 70.07C148.621 70.3607 148.647 70.6672 148.609 70.9689V71.4108H145.422ZM147.534 70.0275C147.448 69.8358 147.307 69.6736 147.13 69.5609C146.952 69.4482 146.746 69.39 146.536 69.3936C146.328 69.3888 146.123 69.4467 145.948 69.5597C145.774 69.6728 145.637 69.8358 145.556 70.0275C145.449 70.2414 145.403 70.4807 145.422 70.7192H147.668C147.666 70.4823 147.621 70.2478 147.534 70.0275Z" fill="#242424"/>
<path d="M152.851 73.6775C152.497 73.6918 152.144 73.6326 151.813 73.5036C151.483 73.3747 151.183 73.1788 150.932 72.9282C150.26 72.2366 150.26 71.4489 150.26 70.1041C150.26 68.7593 150.26 67.9908 150.932 67.2992C151.183 67.0486 151.483 66.8527 151.813 66.7238C152.144 66.5948 152.497 66.5356 152.851 66.5499C153.465 66.5218 154.067 66.7285 154.534 67.1282C155.001 67.5278 155.299 68.0904 155.366 68.7016H154.272C154.229 68.4401 154.115 68.1953 153.943 67.9944C153.77 67.7934 153.545 67.644 153.293 67.5626C153.041 67.4812 152.772 67.4709 152.514 67.5329C152.257 67.5949 152.021 67.7267 151.834 67.9139C151.488 68.2982 151.392 68.7016 151.392 70.1041C151.392 71.5066 151.392 71.9292 151.834 72.2942C151.964 72.4326 152.122 72.5419 152.297 72.6147C152.473 72.6876 152.662 72.7224 152.851 72.7169C153.194 72.7221 153.527 72.605 153.791 72.3867C154.054 72.1684 154.232 71.8632 154.291 71.5258H155.366C155.29 72.1334 154.99 72.6907 154.525 73.0887C154.06 73.4867 153.463 73.6966 152.851 73.6775Z" fill="#242424"/>
<path d="M159.839 73.6199V73.1588C159.669 73.3413 159.459 73.4827 159.227 73.5726C158.994 73.6624 158.744 73.6983 158.495 73.6775C158.255 73.6976 158.012 73.667 157.784 73.5875C157.556 73.5081 157.347 73.3817 157.171 73.2164C157.036 73.0725 156.931 72.9033 156.862 72.7187C156.793 72.5341 156.761 72.3376 156.768 72.1406C156.768 71.3145 157.343 70.7189 158.495 70.7189H159.82V70.3539C159.82 69.7199 159.494 69.4125 158.726 69.4125C158.517 69.3869 158.305 69.418 158.113 69.5025C157.92 69.587 157.754 69.7218 157.631 69.8928L156.959 69.278C157.179 69.02 157.458 68.8201 157.773 68.6961C158.087 68.5721 158.428 68.5278 158.764 68.5672C160.127 68.5672 160.818 69.1435 160.818 70.277V73.6199H159.839ZM159.839 71.4105H158.668C158.073 71.4105 157.766 71.6795 157.766 72.1214C157.766 72.5632 158.054 72.8322 158.687 72.8322C158.853 72.8565 159.021 72.8431 159.181 72.7933C159.34 72.7434 159.487 72.6582 159.609 72.544C159.696 72.4453 159.762 72.3293 159.801 72.2035C159.841 72.0777 159.854 71.945 159.839 71.814V71.4105Z" fill="#242424"/>
<path d="M66.7193 11.5198C68.8343 13.6279 70.5648 15.736 72.103 18.2274C71.1416 18.4191 70.1802 18.8024 69.0266 18.994C67.2961 19.569 65.5656 20.3356 63.4506 21.1021C62.4892 21.4854 61.5279 22.0604 60.3742 22.6353C59.4128 23.2102 58.2592 23.7852 57.1055 24.3601C55.1828 25.8933 52.8755 27.2348 50.9528 29.1513C50.3759 29.5346 49.9914 30.1095 49.4146 30.4928C49.03 31.0677 48.4532 31.6427 48.0686 32.026C47.1073 33.1758 46.3382 34.1341 45.5691 35.4756C43.8386 37.7754 42.4927 40.2668 40.9545 42.5665C40.1854 43.7164 39.4163 44.8663 38.6472 46.0161C37.8781 47.166 37.109 48.3159 36.1476 49.2741C34.4171 51.3822 32.4944 53.1071 30.5716 54.6402C28.4566 55.9817 26.5339 57.5149 24.4189 58.4731C23.4575 59.0481 22.3038 59.4314 21.3425 60.0063C20.3811 60.5813 19.4197 60.7729 18.4584 61.1562C16.5356 61.9228 14.8051 62.6894 13.2669 63.0727C11.7287 63.4559 10.1905 63.8392 9.0369 64.2225C7.88326 62.881 6.72961 61.3478 5.76824 59.8147C5.96051 59.8147 6.15278 59.623 6.34506 59.623C8.07553 59.0481 9.806 58.0899 11.921 57.3233C12.8824 56.94 14.036 56.5567 14.9974 55.7901C15.9588 55.2152 17.1124 54.6402 18.2661 53.8736C20.5734 52.7238 22.4961 50.9989 24.8034 49.2741C26.9184 47.3577 29.0335 45.4412 30.7639 42.9498C31.7253 41.7999 32.4944 40.65 33.2635 39.3085C34.0326 38.1586 34.8017 36.8171 35.5708 35.6672C37.109 33.1758 38.2626 30.6844 39.8008 28.5763C40.5699 27.4265 41.339 26.2766 42.1081 25.3184C42.4927 24.7434 42.8772 24.3601 43.2618 23.7852C43.6463 23.4019 44.2231 22.827 44.6077 22.4437C46.3382 20.5272 48.2609 19.1857 50.1837 17.6525C51.145 17.0776 52.1064 16.5026 53.0678 15.9277C54.0291 15.3527 54.9905 14.7778 55.9519 14.3945C57.8746 13.6279 59.6051 12.8613 61.1433 12.0948C62.6815 11.5198 64.2197 11.1365 65.3733 10.7532C65.5656 10.7532 65.9502 10.5616 66.1424 10.5616C66.527 11.1365 66.7193 11.3282 66.7193 11.5198ZM4.80686 43.1414C5.76824 42.5665 6.72961 42.1832 7.88326 41.6083C9.99828 40.65 11.921 39.1169 14.036 37.7754C15.9588 36.0505 17.8815 34.5174 19.612 32.4093C20.5734 31.451 21.3425 30.3012 22.1116 29.1513C22.8807 28.0014 23.6498 26.8515 24.4189 25.7016C25.9571 23.4019 27.303 20.9105 29.0335 18.6107C29.8026 17.4609 30.7639 16.311 31.533 15.1611C31.9176 14.5862 32.4944 14.0112 32.8789 13.6279C33.4558 13.053 33.8403 12.6697 34.4171 12.0948C36.3399 9.98666 38.6472 8.64513 40.5699 7.30361C41.7236 6.72867 42.6849 6.15373 43.8386 5.57879C44.8 5.00385 45.9536 4.42891 46.915 4.04562C48.8377 3.27904 50.5682 2.7041 52.1064 2.12916C46.7227 0.212698 41.1468 -0.362241 35.5708 0.212697C34.994 0.59599 34.4171 0.979282 33.8403 1.17093C32.1098 2.7041 29.9948 4.04562 28.2644 5.96208C27.8798 6.34538 27.303 6.92031 26.9184 7.30361C26.5339 7.87855 26.1493 8.26184 25.7648 8.83678C24.9957 9.79501 24.2266 10.9449 23.4575 12.0948C21.9193 14.3945 20.7656 16.8859 19.2275 19.1857C18.4584 20.3356 17.8815 21.6771 16.9202 22.827C16.1511 23.9768 15.382 25.3184 14.4206 26.2766C12.3056 28.768 10.1906 30.6844 8.26781 32.6009C5.96051 34.1341 4.03777 36.0505 1.73047 37.2004C1.15365 37.5837 0.576824 37.7754 0 38.1586C0 40.4584 0 42.7582 0.384549 44.8663C0.769098 44.6746 1.34592 44.483 1.92275 44.2913C2.88412 43.908 3.84549 43.7164 4.80686 43.1414ZM69.9879 32.7926C69.0266 33.3675 68.0652 33.9424 66.9115 34.5174C65.1811 36.0505 63.066 37.3921 61.3356 39.3085C60.951 39.6918 60.3742 40.2668 59.9897 40.6501C59.6051 41.225 59.2206 41.6083 58.836 42.1832C58.0669 43.1415 57.2978 44.2913 56.5287 45.4412C54.9905 47.741 53.6446 50.2324 52.2987 52.5321C51.5296 53.682 50.9528 55.0235 49.9914 56.1734C49.2223 57.3233 48.4532 58.6648 47.4918 59.623C45.7613 61.9228 43.6463 63.8392 41.7236 65.7557C39.4163 67.2889 37.4935 69.2053 35.1862 70.3552C34.0326 70.9301 33.0712 71.5051 31.9176 72.08C30.9562 72.655 29.8026 73.0383 28.8412 73.4215C27.4953 73.9965 26.1493 74.5714 24.8034 75.1464C28.0721 76.4879 31.7253 77.2545 35.1862 77.6378H35.3785C36.3399 77.2545 37.3013 77.0628 38.2626 76.4879C39.224 75.913 40.1854 75.5297 41.339 74.9547C43.454 73.9965 45.3768 72.4633 47.4918 71.1218C49.4146 69.397 51.3373 67.8638 53.0678 65.7557C54.0291 64.7975 54.7982 63.6476 55.5673 62.4977C56.3364 61.3478 57.1055 60.198 57.8746 59.0481C59.4128 56.7483 60.7588 54.2569 62.4892 51.9572C63.2583 50.8073 64.2197 49.6574 64.9888 48.5075C65.3733 47.9326 65.9502 47.3577 66.3347 46.9744C66.9115 46.3994 67.2961 46.0161 67.8729 45.6329C69.7957 43.7164 72.103 42.1832 74.0257 40.8417C75.1793 40.2668 76.1407 39.6918 77.2944 39.1169C77.6789 38.9252 77.8712 38.7336 78.2557 38.5419C78.2557 35.4756 77.8712 32.4093 77.1021 29.5346C75.7562 30.1095 74.4102 30.6844 72.8721 31.2594C71.9107 31.6427 70.9493 32.4093 69.9879 32.7926ZM10.9596 23.9768C11.921 23.0186 12.6901 21.8687 13.4592 20.7188C14.2283 19.569 14.9974 18.4191 15.7665 17.2692C17.3047 14.9695 18.6506 12.4781 20.3811 10.1783C21.1502 9.02842 22.1116 7.87855 22.8807 6.72867C23.2652 6.15373 23.842 5.57879 24.2266 5.1955C24.8034 4.62056 25.188 4.23727 25.7648 3.85398C26.5339 3.08739 27.4953 2.32081 28.2644 1.55422C22.1116 3.27904 16.3433 6.53702 11.5365 11.5198C5.57596 17.4609 1.92275 24.9351 0.576824 32.6009C2.30729 31.6427 3.84549 30.4928 5.57596 29.3429C7.30643 27.6181 9.42145 25.8933 10.9596 23.9768ZM69.7957 47.741C69.4111 48.1243 68.8343 48.6992 68.4497 49.0825C68.0652 49.6574 67.6806 50.0407 67.2961 50.6157C66.527 51.5739 65.7579 52.7238 64.9888 53.8736C63.4506 56.1734 62.297 58.6648 60.7588 60.9645C59.9897 62.1144 59.4128 63.456 58.4515 64.6058C57.6824 65.7557 56.9133 67.0972 55.9519 68.0555C54.2214 70.3552 52.1064 72.2717 49.9914 74.1881C48.6455 75.1464 47.2995 76.2962 45.9536 77.2545C53.4523 75.9129 60.7588 72.2717 66.7193 66.5223C73.8334 59.4314 77.4866 50.424 78.0635 41.225C77.1021 41.7999 76.333 42.1832 75.3716 42.7582C73.6412 44.483 71.5261 45.8245 69.7957 47.741ZM64.412 23.0186C63.4506 23.4019 62.4892 23.9768 61.5279 24.5518C60.5665 25.1267 59.6051 25.7016 58.6437 26.2766C56.9133 27.8098 54.7982 29.1513 53.0678 31.0677C52.6832 31.451 52.1064 32.026 51.7218 32.4093C51.3373 32.9842 50.9528 33.3675 50.5682 33.9424C49.7991 34.9007 49.03 36.0505 48.2609 37.2004C46.7227 39.5002 45.5691 41.9916 44.0309 44.2913C43.2618 45.4412 42.6849 46.7827 41.7236 47.9326C40.9545 49.0825 40.1854 50.424 39.224 51.3822C37.4935 53.682 35.3785 55.5985 33.2635 57.5149C30.9562 59.0481 29.0335 60.9646 26.7262 62.1144C25.5725 62.6894 24.6111 63.2643 23.4575 63.8392C22.4961 64.4142 21.3425 64.7975 20.3811 65.1808C18.2661 65.9473 16.5356 66.9056 14.8051 67.4805C14.2283 67.6722 13.6515 67.8638 13.0747 68.0555C14.8051 69.5886 16.7279 70.9302 18.6506 72.2717C19.612 72.08 20.5734 71.6967 21.727 71.3134C23.2652 70.7385 24.9957 70.1636 26.9184 69.397C27.8798 69.0137 28.8412 68.822 29.8026 68.2471C30.7639 67.6722 31.7253 67.2889 32.8789 66.7139C34.994 65.7557 36.9167 64.2225 39.0317 62.881C40.9545 61.1562 42.8772 59.623 44.6077 57.5149C45.5691 56.5567 46.3382 55.4068 47.1073 54.2569C47.8764 53.1071 48.6455 51.9572 49.4146 50.8073C50.9528 48.5075 52.2987 46.0161 54.0291 43.7164C54.7982 42.5665 55.7596 41.4166 56.5287 40.2668C56.9133 39.6918 57.4901 39.1169 57.8746 38.7336C58.4515 38.1586 58.836 37.7754 59.4128 37.3921C61.3356 35.284 63.6429 33.9424 65.5656 32.6009C66.7193 32.026 67.6806 31.451 68.8343 30.8761C69.7957 30.3012 70.757 29.7262 71.9107 29.3429C73.6412 28.768 75.1793 28.193 76.5253 27.6181C75.7562 24.9351 74.6025 22.252 73.0643 19.7606C72.103 20.1439 70.9493 20.3356 69.6034 20.9105C68.0652 21.4854 66.3347 22.252 64.412 23.0186ZM10.1906 52.5321C11.1519 52.1488 12.1133 51.9572 13.0747 51.3822C14.036 50.8073 14.9974 50.424 16.1511 49.8491C18.2661 48.8908 20.1888 47.3577 22.3038 46.0161C24.2266 44.2913 26.1493 42.7582 27.8798 40.6501C28.8412 39.6918 29.6103 38.5419 30.3794 37.5837C31.1485 36.4338 31.9176 35.284 32.6867 34.1341C34.2249 31.8343 35.5708 29.3429 37.3013 27.0432C38.0704 25.8933 39.0317 24.7434 39.9931 23.5935C40.3777 23.0186 40.9545 22.4437 41.339 22.0604C41.9158 21.4854 42.3004 21.1021 42.8772 20.7188C44.8 18.8024 47.1073 17.2692 49.2223 15.9277C50.3759 15.3527 51.3373 14.7778 52.4909 14.2029C53.4523 13.6279 54.606 13.053 55.5673 12.8613C57.6824 12.0948 59.4128 11.5198 61.1433 10.7532C62.6815 10.3699 64.0274 9.98665 65.1811 9.79501C62.297 7.30361 59.2206 5.38715 55.9519 3.85398C54.606 3.85398 53.8369 4.04562 53.0678 4.23727C51.5296 4.81221 49.7991 5.57879 47.8764 6.34538C46.915 6.72867 45.9536 7.30361 44.9922 7.87855C44.0309 8.45348 43.0695 9.02842 42.1081 9.60336C40.3777 11.1365 38.2626 12.2864 36.5322 14.2029C36.1476 14.5862 35.5708 15.1611 35.1862 15.5444C34.6094 16.1193 34.2249 16.6943 33.8403 17.2692C33.0712 18.2274 32.3021 19.3773 31.533 20.5272C29.9948 22.827 28.8412 25.3184 27.303 27.6181C26.5339 28.768 25.9571 30.1095 24.9957 31.2594C24.2266 32.4093 23.4575 33.7508 22.4961 34.709C20.7656 37.0088 18.6506 38.9252 16.5356 40.8417C14.2283 42.3749 12.3056 44.2913 9.99828 45.4412C8.84463 46.0161 7.88326 46.5911 6.72961 47.166C5.76824 47.9326 4.80686 48.3159 3.65322 48.6992C2.88412 49.0825 2.11502 49.2741 1.34592 49.6574C1.92275 51.3822 2.49957 53.1071 3.26867 54.8319C3.84549 54.6402 4.42231 54.4486 4.99914 54.4486C6.72961 53.8736 8.26781 53.1071 10.1906 52.5321Z" fill="url(#paint0_linear)"/>
<path opacity="0.39" d="M20.7655 6.34556C22.3037 5.57897 23.8419 4.81239 25.3801 4.23745C24.9956 4.62074 24.611 5.00403 24.2265 5.19568C23.8419 5.77062 23.2651 6.34556 22.8806 6.72885C22.6883 6.92049 22.496 7.11214 22.3037 7.49543C22.1115 7.68708 21.7269 7.68708 21.3424 7.68708C20.381 8.07037 19.8042 6.72885 20.7655 6.34556ZM49.0299 3.08757C47.1072 2.51263 44.9921 2.12934 42.8771 1.93769C39.2239 1.5544 35.5707 1.74605 32.1098 2.32099C30.7638 3.47086 29.2256 4.42909 28.072 5.96226L27.8797 6.15391C30.5716 5.77062 33.2634 5.38732 35.9552 5.38732C38.2625 5.38732 40.5698 5.57897 42.6849 5.96226C43.0694 5.77062 43.4539 5.57897 43.8385 5.38732C44.7999 4.81239 45.9535 4.23745 46.9149 3.85415C47.4917 3.85415 48.2608 3.47086 49.0299 3.08757ZM70.5647 32.6011C71.3338 35.4758 71.7183 38.5421 71.7183 41.6085C71.7183 41.9918 71.7183 42.1834 71.7183 42.5667C72.4874 41.9918 73.2565 41.4168 74.0256 40.8419C74.7947 40.4586 75.7561 39.8836 76.5252 39.5004C76.5252 38.1588 76.5252 36.6257 76.3329 35.2841C76.1406 33.5593 75.7561 32.0261 75.3715 30.3013C74.6024 30.6846 73.6411 31.0679 72.872 31.4512C72.1029 31.6429 71.3338 32.0261 70.5647 32.6011ZM62.2969 9.98683C59.4127 7.68708 56.1441 5.77062 52.6831 4.23745C51.1449 4.81239 49.6067 5.57897 47.684 6.34556C47.2994 6.5372 46.7226 6.72885 46.3381 6.92049C49.9913 8.07037 53.26 9.79519 56.3363 11.9033C57.8745 11.3284 59.4127 10.7534 60.5664 10.3701C61.3355 10.3701 61.72 10.1785 62.2969 9.98683ZM74.7947 28.1932C73.8333 25.3185 72.6797 22.8271 71.3338 20.3357C70.7569 20.5274 70.3724 20.719 69.7956 20.9107C68.6419 21.294 67.4883 21.8689 66.1424 22.4438C67.6805 24.9352 69.0265 27.6183 69.9878 30.3013C70.7569 29.918 71.3338 29.5347 72.1029 29.3431C72.872 28.9598 73.8333 28.5765 74.7947 28.1932ZM70.1801 18.6109C68.4496 16.1195 66.5269 13.6281 64.2196 11.7116C63.4505 11.9033 62.4891 12.2866 61.3355 12.6699C60.3741 13.0532 59.4127 13.4365 58.4514 13.8198C60.7587 15.7362 62.8737 18.036 64.7964 20.5274C66.3346 19.9524 67.6805 19.3775 69.0265 18.9942C69.411 18.8026 69.7956 18.6109 70.1801 18.6109ZM71.526 46.0163C71.3338 49.466 70.9492 52.7239 70.1801 55.5986C69.7956 56.9402 71.7183 57.7067 72.2951 56.3652C74.4102 52.149 75.7561 47.3578 76.1406 42.375C75.7561 42.5667 75.5638 42.7583 75.1793 42.95C74.2179 43.9082 72.872 44.8664 71.526 46.0163Z" fill="white"/>
<path opacity="0.75" d="M75.1795 28.1928C74.6026 28.3844 73.8335 28.7677 73.2567 28.9594C72.2953 26.0847 70.9494 23.5933 69.4112 21.1019C69.4112 21.1019 69.6035 21.1019 69.6035 20.9102C70.3726 20.7186 71.1417 20.5269 71.7185 20.3353C73.2567 22.635 74.4104 25.3181 75.1795 28.1928ZM64.7966 11.5196C64.0275 11.7112 63.0662 12.0945 61.9125 12.4778C64.2198 14.5859 66.3348 16.8856 68.2576 19.3771C68.4499 19.3771 68.8344 19.1854 69.0267 18.9938C69.6035 18.8021 70.1803 18.6105 70.7572 18.6105C69.0267 15.9274 67.1039 13.436 64.7966 11.5196ZM75.7563 30.1092C75.1795 30.3009 74.4104 30.6842 73.8335 30.8758C74.6026 33.7505 75.1795 36.8169 75.1795 40.0748C75.7563 39.8832 76.1408 39.4999 76.7177 39.3083C76.7177 39.1166 76.7177 39.1166 76.7177 38.925C76.9099 35.8586 76.5254 32.9839 75.7563 30.1092ZM75.3717 42.9495C75.3717 44.0994 75.1795 45.4409 74.9872 46.5908C74.9872 47.3574 75.9486 47.3574 76.1408 46.7825C76.5254 45.2493 76.7177 43.7161 76.9099 42.1829C76.3331 42.3746 75.9486 42.7579 75.3717 42.9495ZM32.4945 1.93724C31.9177 2.32054 31.3409 2.89547 30.5718 3.27877C32.4945 2.89547 34.6095 2.89547 36.5323 2.89547C39.801 2.89547 43.0696 3.27877 46.3383 4.04535H46.5306C47.6842 3.66206 48.6456 3.27877 49.607 2.89547C46.146 1.93724 42.6851 1.3623 39.0319 1.3623C36.9168 1.3623 34.6095 1.55395 32.4945 1.93724ZM53.4524 4.237C53.2602 4.237 53.2602 4.237 53.0679 4.42864C52.2988 4.81194 51.3374 5.19523 50.3761 5.57852C53.837 6.92004 57.1057 8.64486 59.9898 10.9446C60.1821 10.9446 60.3743 10.753 60.5666 10.753C61.3357 10.5613 62.2971 10.3697 62.8739 10.178C60.1821 7.49498 56.9134 5.57852 53.4524 4.237Z" fill="white"/>
</g>
<defs>
<linearGradient id="paint0_linear" x1="78.5305" y1="39.1009" x2="0.294842" y2="39.1005" gradientUnits="userSpaceOnUse">
<stop stop-color="#E54E26"/>
<stop offset="0.0001" stop-color="#E54E26"/>
<stop offset="1" stop-color="#F9A980"/>
</linearGradient>
<clipPath id="clip0">
<rect width="234" height="78" fill="white"/>
</clipPath>
</defs>
</svg>
