<svg width="234" height="75" viewBox="0 0 234 75" fill="none" xmlns="http://www.w3.org/2000/svg">
<g clip-path="url(#clip0)">
<g style="mix-blend-mode:screen" opacity="0.39">
<path d="M20.7331 6.00353C22.2218 5.24189 23.7609 4.57542 25.3406 4.00845L24.2463 4.98752C23.7856 5.48629 23.3632 6.022 22.9025 6.53924L22.3457 7.20427C22.0194 7.29663 21.693 7.37052 21.3859 7.48136C21.1907 7.5284 20.9845 7.50686 20.8043 7.42059C20.6242 7.33433 20.4819 7.18903 20.4032 7.01083C20.3245 6.83264 20.3145 6.63326 20.375 6.44859C20.4355 6.26393 20.5625 6.1061 20.7331 6.00353ZM49.0113 3.04786C46.9931 2.46715 44.9239 2.06523 42.8296 1.84712C39.2342 1.47037 35.6013 1.58856 32.0406 2.19811C30.5417 3.20593 29.1581 4.36388 27.9131 5.65254L27.6635 5.91116C30.334 5.47396 33.0369 5.24538 35.7457 5.22767C38.0005 5.22472 40.2504 5.42885 42.4649 5.83727L43.5591 5.28308C44.5397 4.7441 45.5599 4.27487 46.6116 3.87914L49.0113 3.04786ZM70.3974 31.4038C71.159 34.2084 71.5461 37.0949 71.5493 39.9937C71.5493 40.3262 71.5493 40.6402 71.5493 40.9543C72.3556 40.4001 73.1619 39.8828 73.9298 39.3287L76.3871 38.091C76.3994 36.7278 76.3353 35.365 76.1951 34.0085C75.9973 32.3959 75.6894 30.7976 75.2736 29.224L72.7203 30.2585C71.9089 30.5659 71.1308 30.9496 70.3974 31.4038ZM62.2768 9.67964C59.3722 7.42008 56.138 5.58392 52.678 4.23013L47.6866 6.20673C47.2228 6.3758 46.7735 6.57963 46.3428 6.81634C49.8954 7.9081 53.2455 9.53548 56.268 11.6378L60.549 10.123L62.2768 9.67964ZM74.7169 27.2289C73.8672 24.5597 72.6877 21.9983 71.2037 19.5996L69.5911 20.0799L65.9436 21.5392C67.5379 23.9375 68.827 26.5113 69.7831 29.2055C70.4563 28.8312 71.163 28.5159 71.8948 28.2634L74.7169 27.2289ZM70.0903 17.9924C68.3782 15.5248 66.3604 13.2669 64.0814 11.2683L61.221 12.1181L58.3797 13.2819C60.7538 15.1936 62.8692 17.3843 64.6765 19.8028L68.9192 18.288L70.0903 17.9924ZM71.4533 44.3348C71.3376 47.4477 70.9003 50.5417 70.1479 53.5713C70.0564 53.8464 70.0783 54.1448 70.209 54.4049C70.3396 54.665 70.5691 54.8668 70.85 54.9688C71.1309 55.0707 71.4417 55.065 71.7183 54.9527C71.995 54.8405 72.2162 54.6303 72.3364 54.3656C74.5361 50.1284 75.8411 45.5135 76.1759 40.788L75.216 41.3237C74.0834 42.3397 72.7203 43.2449 71.4533 44.3348Z" fill="white"/>
</g>
<g style="mix-blend-mode:screen" opacity="0.75">
<path d="M75.1392 27.0627L73.2194 27.7832C72.2375 25.1168 70.9497 22.5641 69.3799 20.1723L69.6486 20.08L71.7412 19.4519C73.1754 21.8541 74.3157 24.408 75.1392 27.0627ZM64.6764 11.0837L61.8928 11.9149C64.2422 13.854 66.3431 16.0555 68.1512 18.4728L68.9191 18.1957L70.6085 17.7524C68.9136 15.3105 66.9222 13.0718 64.6764 11.0837ZM75.6959 29.0947L73.7761 29.8706C74.6207 32.7538 75.0978 35.7251 75.1968 38.7191L76.7902 37.8694V37.5738C76.7789 34.6912 76.4116 31.82 75.6959 29.0208V29.0947ZM75.1968 41.5455C75.1968 42.7093 75.0432 43.8915 74.8896 45.0369C74.881 45.165 74.9223 45.2917 75.0054 45.3921C75.0885 45.4926 75.2075 45.5598 75.3392 45.5805C75.4709 45.6012 75.6059 45.5741 75.718 45.5043C75.8301 45.4346 75.9111 45.3272 75.9455 45.2031C76.2714 43.6977 76.4958 42.1736 76.6174 40.6403L75.3119 41.3607L75.1968 41.5455ZM32.5012 1.8472L30.7158 3.23267C32.7102 2.93469 34.7256 2.78646 36.7439 2.78932C40.0286 2.78197 43.3005 3.1856 46.4771 3.99006H46.6499L49.7407 2.86321C46.2925 1.88946 42.718 1.39188 39.1244 1.38538C36.9068 1.34974 34.6903 1.50429 32.5012 1.8472ZM53.2922 4.00853L52.8891 4.11937L50.2782 5.17233C53.7182 6.43842 56.9509 8.17419 59.877 10.3263L60.4722 10.1231L62.8335 9.53193C59.9616 7.23721 56.7446 5.3749 53.2922 4.00853Z" fill="white"/>
</g>
<path d="M234 20.8375V37.4631C233.995 40.7768 232.623 43.953 230.186 46.2944C227.75 48.6357 224.447 49.9508 221.003 49.9508H95.4314C94.8611 49.9508 94.3142 49.7328 93.911 49.3448C93.5078 48.9568 93.2812 48.4306 93.2812 47.8818V31.2562C93.2812 27.9443 94.6485 24.768 97.0823 22.4261C99.5161 20.0842 102.817 18.7686 106.259 18.7686H231.831C232.403 18.7685 232.951 18.9859 233.358 19.3734C233.764 19.7609 233.995 20.2871 234 20.8375Z" fill="#39B54A"/>
<path d="M111.884 36.9459H108.947V43.6701H104.128V24.8647H111.807C112.678 24.7993 113.553 24.9079 114.378 25.1837C115.204 25.4594 115.961 25.8964 116.602 26.4672C117.243 27.0379 117.755 27.7301 118.104 28.5002C118.454 29.2703 118.635 30.1017 118.635 30.9423C118.635 31.7828 118.454 32.6142 118.104 33.3843C117.755 34.1544 117.243 34.8466 116.602 35.4173C115.961 35.9881 115.204 36.4251 114.378 36.7008C113.553 36.9766 112.678 37.0852 111.807 37.0198L111.884 36.9459ZM111.673 28.9657H108.947V32.7711H111.673C111.932 32.7711 112.189 32.7219 112.429 32.6262C112.669 32.5306 112.887 32.3905 113.071 32.2138C113.254 32.0371 113.4 31.8273 113.499 31.5965C113.599 31.3656 113.65 31.1182 113.65 30.8684C113.65 30.6185 113.599 30.3711 113.499 30.1402C113.4 29.9094 113.254 29.6996 113.071 29.5229C112.887 29.3463 112.669 29.2061 112.429 29.1105C112.189 29.0149 111.932 28.9657 111.673 28.9657Z" fill="white"/>
<path d="M131.312 43.7441L127.837 36.7244H126.205V43.7441H121.387V24.8648H129.162C130.024 24.8088 130.889 24.9248 131.703 25.2055C132.517 25.4863 133.261 25.9257 133.89 26.4962C134.519 27.0668 135.019 27.7562 135.358 28.5213C135.698 29.2864 135.869 30.1106 135.862 30.9424C135.871 31.9729 135.574 32.9845 135.006 33.8582C134.438 34.7319 133.623 35.4315 132.656 35.8746L136.898 43.7441H131.312ZM128.951 28.9658H126.205V32.7712H128.951C129.21 32.7712 129.467 32.722 129.707 32.6263C129.947 32.5307 130.165 32.3906 130.349 32.2139C130.532 32.0372 130.678 31.8275 130.777 31.5966C130.877 31.3658 130.928 31.1183 130.928 30.8685C130.928 30.6186 130.877 30.3712 130.777 30.1403C130.678 29.9095 130.532 29.6997 130.349 29.5231C130.165 29.3464 129.947 29.2062 129.707 29.1106C129.467 29.015 129.21 28.9658 128.951 28.9658Z" fill="white"/>
<path d="M151.124 41.7857C150.417 42.494 149.562 43.0497 148.616 43.4159C147.669 43.7821 146.652 43.9506 145.633 43.9101C144.613 43.9554 143.595 43.7892 142.648 43.4226C141.7 43.0561 140.846 42.4979 140.143 41.7857C138.069 39.7907 138.223 37.149 138.223 34.3042C138.223 31.4594 138.223 28.7623 140.143 26.9151C140.844 26.2054 141.695 25.6485 142.639 25.2821C143.583 24.9156 144.597 24.7481 145.614 24.7907C146.633 24.7502 147.65 24.9187 148.596 25.2849C149.543 25.6512 150.398 26.2068 151.104 26.9151C153.159 28.8917 153.024 31.5518 153.024 34.3042C153.024 37.0567 153.178 39.7907 151.124 41.7857ZM147.572 29.6675C147.334 29.4041 147.039 29.1947 146.707 29.0541C146.375 28.9136 146.015 28.8455 145.652 28.8547C145.289 28.8415 144.928 28.9078 144.595 29.0486C144.263 29.1894 143.968 29.401 143.733 29.6675C143.291 30.2217 143.003 30.8683 143.003 34.3042C143.003 37.7402 143.291 38.3683 143.733 38.9224C143.965 39.1946 144.258 39.4125 144.591 39.5597C144.923 39.7069 145.286 39.7796 145.652 39.7722C146.018 39.7756 146.379 39.7012 146.711 39.5542C147.043 39.4073 147.337 39.1916 147.572 38.9224C147.994 38.3683 148.282 37.7587 148.282 34.3042C148.282 30.8498 147.994 30.2217 147.572 29.6675Z" fill="white"/>
<path d="M168.939 41.8967C168.23 42.525 167.398 43.0118 166.492 43.3289C165.585 43.646 164.623 43.7871 163.66 43.744H156.441V24.8647H163.717C164.68 24.8226 165.643 24.9641 166.549 25.2812C167.455 25.5982 168.287 26.0844 168.997 26.712C171.281 28.9102 171.032 31.3302 171.032 34.2858C171.032 37.2415 171.281 39.6984 168.939 41.8967ZM165.637 30.074C165.386 29.7105 165.038 29.419 164.629 29.2304C164.22 29.0418 163.766 28.9631 163.314 29.0026H161.26V39.606H163.372C163.821 39.6455 164.274 39.5688 164.682 39.3836C165.09 39.1985 165.44 38.9118 165.695 38.5531C166.079 38.0174 166.213 37.5186 166.213 34.3043C166.213 31.09 166.079 30.5913 165.695 30.074H165.637Z" fill="white"/>
<path d="M181.456 43.9103C180.498 43.9635 179.538 43.8266 178.637 43.5082C177.736 43.1897 176.912 42.6965 176.217 42.0591C175.523 41.4216 174.971 40.6536 174.598 39.8027C174.224 38.9517 174.036 38.036 174.046 37.1123V24.8647H178.864V36.946C178.813 37.2969 178.843 37.6542 178.952 37.9927C179.06 38.3313 179.244 38.6428 179.491 38.9053C179.739 39.1678 180.043 39.3749 180.382 39.512C180.722 39.649 181.088 39.7127 181.456 39.6985C181.825 39.7118 182.193 39.6478 182.534 39.5111C182.875 39.3743 183.181 39.1679 183.431 38.9062C183.681 38.6446 183.869 38.3338 183.982 37.9953C184.095 37.6569 184.131 37.2989 184.086 36.946V24.8647H188.924V37.1123C188.925 38.0386 188.73 38.9555 188.35 39.8066C187.97 40.6577 187.414 41.4251 186.714 42.0617C186.015 42.6983 185.188 43.1907 184.284 43.5086C183.379 43.8265 182.417 43.9632 181.456 43.9103Z" fill="white"/>
<path d="M199.367 43.91C198.352 43.942 197.341 43.7696 196.399 43.4037C195.457 43.0379 194.604 42.4868 193.896 41.7856C191.842 39.7905 191.976 37.1489 191.976 34.304C191.976 31.4592 191.976 28.7622 193.896 26.9149C194.604 26.2137 195.457 25.6625 196.399 25.2967C197.341 24.9309 198.352 24.7585 199.367 24.7905C201.191 24.6966 202.982 25.2841 204.366 26.4303C205.751 27.5765 206.621 29.1928 206.797 30.942H201.882C201.806 30.3658 201.506 29.8386 201.044 29.4654C200.581 29.0922 199.99 28.9005 199.387 28.9284C199.024 28.9073 198.662 28.9682 198.329 29.1061C197.995 29.2441 197.7 29.4553 197.467 29.7228C197.025 30.277 196.718 30.942 196.718 34.3779C196.718 37.8139 197.025 38.4974 197.467 39.0516C197.702 39.3169 197.998 39.5265 198.331 39.6642C198.663 39.802 199.025 39.8641 199.387 39.8459C199.989 39.8696 200.578 39.6763 201.039 39.3039C201.501 38.9315 201.802 38.4067 201.882 37.8324H206.797C206.599 39.5664 205.719 41.1618 204.337 42.2917C202.956 43.4217 201.178 44.0006 199.367 43.91Z" fill="white"/>
<path d="M218.373 29.0027V43.781H213.535V29.0027H208.717V24.8647H223.192V29.0027H218.373Z" fill="white"/>
<path d="M107.871 14.5937C107.148 14.6465 106.421 14.5502 105.739 14.3113C105.057 14.0724 104.436 13.6963 103.917 13.2083L105.28 11.8782C105.634 12.1881 106.049 12.4263 106.501 12.5787C106.953 12.731 107.432 12.7943 107.91 12.7649C109.157 12.7649 109.829 12.3031 109.829 11.4718C109.831 11.305 109.796 11.1398 109.726 10.9869C109.657 10.8341 109.555 10.6972 109.426 10.5851C109.153 10.374 108.817 10.2512 108.466 10.2341L107.142 10.0494C106.398 9.98664 105.694 9.70253 105.126 9.23659C104.853 8.96659 104.642 8.64466 104.507 8.29151C104.371 7.93836 104.314 7.56181 104.339 7.1861C104.342 6.72442 104.448 6.26877 104.65 5.84983C104.851 5.43088 105.144 5.05836 105.508 4.75732C105.872 4.45628 106.298 4.23371 106.759 4.10458C107.219 3.97546 107.704 3.94279 108.178 4.00875C108.82 3.96703 109.463 4.05385 110.068 4.26371C110.673 4.47358 111.225 4.80192 111.692 5.22797L110.348 6.5026C110.044 6.24692 109.691 6.05161 109.309 5.92795C108.927 5.80429 108.523 5.75474 108.121 5.78215C106.988 5.78215 106.431 6.39176 106.431 7.1122C106.43 7.2504 106.458 7.38745 106.514 7.51465C106.57 7.64185 106.653 7.75643 106.758 7.85112C107.046 8.08599 107.4 8.23379 107.775 8.276L109.061 8.44225C109.802 8.50329 110.505 8.78043 111.077 9.23659C111.366 9.5313 111.589 9.88038 111.731 10.2619C111.873 10.6434 111.932 11.049 111.903 11.4533C111.903 13.4484 110.156 14.5937 107.871 14.5937Z" fill="white"/>
<path d="M118.123 14.5934C117.606 14.6134 117.09 14.5325 116.606 14.3558C116.123 14.1791 115.681 13.9101 115.308 13.565C114.935 13.2199 114.639 12.8059 114.436 12.3477C114.234 11.8895 114.129 11.3967 114.13 10.8989V4.04541H116.261V10.8434C116.241 11.091 116.276 11.3398 116.366 11.5727C116.455 11.8057 116.596 12.0172 116.778 12.1928C116.961 12.3684 117.181 12.5038 117.423 12.5898C117.665 12.6757 117.923 12.7102 118.181 12.6907C118.437 12.7071 118.694 12.6705 118.935 12.5834C119.175 12.4963 119.394 12.3608 119.576 12.1859C119.758 12.011 119.898 11.8008 119.989 11.5692C120.079 11.3377 120.117 11.0903 120.1 10.8434V4.04541H122.212V10.9173C122.211 11.4218 122.102 11.9207 121.892 12.3832C121.683 12.8457 121.377 13.2619 120.994 13.6063C120.611 13.9508 120.158 14.216 119.665 14.3858C119.171 14.5556 118.646 14.6262 118.123 14.5934Z" fill="white"/>
<path d="M127.875 14.5937C127.149 14.6455 126.419 14.5489 125.734 14.3101C125.049 14.0713 124.425 13.6958 123.901 13.2083L125.284 11.8782C125.637 12.189 126.052 12.4278 126.504 12.5801C126.956 12.7325 127.436 12.7954 127.914 12.7649C129.162 12.7649 129.833 12.3031 129.833 11.4718C129.841 11.3092 129.815 11.1467 129.755 10.9943C129.696 10.8419 129.605 10.7026 129.488 10.5851C129.214 10.374 128.878 10.2512 128.528 10.2341L127.223 10.0494C126.446 10.0058 125.705 9.72059 125.111 9.23658C124.845 8.96249 124.641 8.63947 124.509 8.28703C124.377 7.9346 124.32 7.56007 124.343 7.18608C124.343 6.72345 124.447 6.26629 124.648 5.84584C124.848 5.4254 125.141 5.05158 125.505 4.74992C125.87 4.44826 126.298 4.22588 126.76 4.09796C127.222 3.97005 127.707 3.93961 128.182 4.00874C128.824 3.96815 129.467 4.05549 130.071 4.2653C130.676 4.4751 131.229 4.80284 131.696 5.22795L130.352 6.50259C130.048 6.24691 129.695 6.0516 129.313 5.92794C128.931 5.80428 128.527 5.75473 128.125 5.78214C126.992 5.78214 126.435 6.39175 126.435 7.11219C126.434 7.25039 126.462 7.38744 126.518 7.51464C126.574 7.64184 126.657 7.75642 126.762 7.85111C127.045 8.0827 127.392 8.23029 127.76 8.27598L129.046 8.44224C129.788 8.49974 130.492 8.7773 131.062 9.23658C131.354 9.53038 131.579 9.87886 131.724 10.2603C131.87 10.6417 131.932 11.0478 131.907 11.4533C131.907 13.4484 130.141 14.5937 127.875 14.5937Z" fill="white"/>
<path d="M140.143 14.5011V10.123H136.418V14.5011H134.383V4.04541H136.514V8.31265H140.143V4.04541H142.254V14.5011H140.143Z" fill="white"/>
<path d="M145.134 14.5011V4.04541H147.265V14.5011H145.134Z" fill="white"/>
<path d="M107.065 61.0715V57.0998H105.145V61.0715H104.147V56.2686H108.082V61.0715H107.065Z" fill="white"/>
<path d="M113.688 60.6835C113.522 60.8348 113.326 60.9521 113.111 61.0284C112.897 61.1046 112.669 61.1381 112.44 61.1269C112.195 61.1416 111.95 61.0988 111.726 61.0023C111.502 60.9057 111.306 60.7583 111.154 60.5727V63.0111H110.156V56.2685H111.135V56.7673C111.291 56.5813 111.49 56.434 111.718 56.3376C111.945 56.2412 112.193 56.1985 112.44 56.2131C112.832 56.1793 113.222 56.2876 113.534 56.5166C113.847 56.7456 114.059 57.0788 114.13 57.4508C114.178 57.862 114.178 58.2772 114.13 58.6885C114.26 59.3835 114.101 60.0998 113.688 60.6835ZM112.191 56.9889C112.018 56.978 111.847 57.016 111.696 57.098C111.546 57.1801 111.424 57.3028 111.346 57.4508C111.2 57.8285 111.135 58.2306 111.154 58.633C111.154 59.7229 111.461 60.1848 112.21 60.1848C112.959 60.1848 113.247 59.7229 113.247 58.5776C113.247 57.4323 112.939 57.0628 112.191 57.0628V56.9889Z" fill="white"/>
<path d="M119.429 60.5542C119.231 60.741 118.997 60.8879 118.74 60.9863C118.483 61.0846 118.208 61.1324 117.931 61.1269C117.656 61.1389 117.382 61.0939 117.127 60.9951C116.872 60.8963 116.642 60.746 116.453 60.5542C116.23 60.3005 116.062 60.0062 115.96 59.6888C115.858 59.3715 115.823 59.0375 115.858 58.707C115.825 58.3765 115.861 58.0431 115.963 57.726C116.065 57.4089 116.232 57.1145 116.453 56.8597C116.644 56.6713 116.875 56.5243 117.13 56.4288C117.385 56.3332 117.658 56.2911 117.931 56.3055C118.207 56.2965 118.481 56.3409 118.738 56.4361C118.996 56.5313 119.23 56.6753 119.429 56.8597C119.866 57.3781 120.073 58.0422 120.004 58.707C120.041 59.0362 120.008 59.3692 119.91 59.6863C119.811 60.0035 119.647 60.2985 119.429 60.5542ZM118.699 57.3769C118.601 57.2753 118.482 57.1948 118.35 57.1407C118.218 57.0865 118.075 57.06 117.931 57.0629C117.785 57.0598 117.641 57.0881 117.508 57.1456C117.375 57.2031 117.257 57.2885 117.163 57.3954C116.912 57.7875 116.804 58.249 116.856 58.707C116.804 59.1498 116.92 59.596 117.182 59.9631C117.279 60.0599 117.395 60.1363 117.524 60.1872C117.653 60.2381 117.792 60.2624 117.931 60.2587C118.075 60.2615 118.218 60.235 118.35 60.1809C118.482 60.1268 118.601 60.0462 118.699 59.9446C118.955 59.5751 119.064 59.1291 119.006 58.6885C119.066 58.2302 118.958 57.7661 118.699 57.3769Z" fill="white"/>
<path d="M125.591 56.2686V60.2218H126.263V62.2907H125.303V61.0715H122.078V62.2907H121.118V60.2218H121.655C122.08 59.3709 122.271 58.4298 122.212 57.4878V56.2686H125.591ZM123.172 57.8757C123.207 58.6833 123.043 59.4874 122.692 60.2218H124.612V57.0998H123.21L123.172 57.8757Z" fill="white"/>
<path d="M129.411 62.0136C129.335 62.3047 129.155 62.5607 128.902 62.7364C128.649 62.9121 128.34 62.9963 128.029 62.9742H127.626V62.106H127.875C128.278 62.106 128.451 61.9952 128.586 61.5888L128.874 60.8314L127.107 56.2686H128.182L129.373 59.6491L130.544 56.2686H131.619L129.411 62.0136Z" fill="white"/>
<path d="M132.982 61.0715V56.2686H133.999V58.5592L135.919 56.2686H137.129L135.209 58.5223L137.34 61.0715H136.111L134.191 58.5777V61.0715H132.982Z" fill="white"/>
<path d="M140.431 57.0998V61.0715H139.432V57.0998H137.839V56.2686H142.062V57.0998H140.431Z" fill="white"/>
<path d="M146.497 61.0715V57.7649L144.366 61.0715H143.349V56.2686H144.366V59.5198L146.497 56.2686H147.495V61.0715H146.497Z" fill="white"/>
<path d="M153.965 61.1268C153.198 61.1687 152.445 60.9163 151.872 60.4249L152.467 59.8153C152.839 60.1408 153.328 60.3133 153.83 60.2956C154.349 60.2956 154.886 60.0554 154.886 59.6121C154.886 59.1687 154.541 58.9655 154.022 58.9655H153.273V58.2451H154.003C154.483 58.2451 154.809 58.0049 154.809 57.5985C154.809 57.1921 154.425 56.9889 153.83 56.9889C153.397 56.9898 152.975 57.1188 152.621 57.3584L152.064 56.7488C152.624 56.3692 153.3 56.1807 153.984 56.213C154.944 56.213 155.769 56.6564 155.769 57.5061C155.771 57.7318 155.703 57.9527 155.573 58.1405C155.442 58.3282 155.257 58.474 155.04 58.5591C155.277 58.6399 155.483 58.7902 155.627 58.989C155.772 59.1877 155.848 59.4249 155.846 59.6675C155.822 59.8822 155.754 60.0902 155.647 60.2798C155.539 60.4693 155.394 60.6366 155.219 60.7721C155.045 60.9077 154.844 61.0087 154.629 61.0696C154.413 61.1305 154.188 61.1499 153.965 61.1268Z" fill="white"/>
<path d="M162.143 62.0136C162.07 62.3066 161.891 62.5647 161.637 62.7411C161.384 62.9174 161.072 63.0001 160.761 62.9742H160.358V62.106H160.626C161.029 62.106 161.183 61.9952 161.337 61.5887L161.605 60.8314L159.858 56.2686H160.933L162.124 59.6491L163.276 56.2686H164.351L162.143 62.0136Z" fill="white"/>
<path d="M168.594 60.9605C168.308 61.0757 168.001 61.1323 167.691 61.1268C166.29 61.1268 165.464 60.2031 165.464 58.6329C165.464 57.0627 166.29 56.213 167.691 56.213C167.999 56.2107 168.304 56.2607 168.594 56.3607C168.871 56.4917 169.119 56.6737 169.323 56.8965L168.651 57.5245C168.532 57.3842 168.383 57.2703 168.214 57.1906C168.045 57.1108 167.86 57.0672 167.672 57.0627C166.866 57.0627 166.463 57.6169 166.463 58.6514C166.463 59.6859 166.866 60.2585 167.672 60.2585C167.861 60.2607 168.049 60.22 168.219 60.1398C168.389 60.0596 168.537 59.9421 168.651 59.7967L169.323 60.4433C169.119 60.6612 168.87 60.8371 168.594 60.9605Z" fill="white"/>
<path d="M173.297 61.0715H170.974V56.2686H171.972V58.1158H173.297C173.501 58.1158 173.703 58.1546 173.892 58.2297C174.081 58.3049 174.252 58.4152 174.397 58.5541C174.541 58.693 174.656 58.858 174.734 59.0395C174.812 59.2211 174.852 59.4157 174.852 59.6122C174.852 59.8086 174.812 60.0032 174.734 60.1848C174.656 60.3663 174.541 60.5313 174.397 60.6702C174.252 60.8091 174.081 60.9194 173.892 60.9946C173.703 61.0698 173.501 61.1085 173.297 61.1085V61.0715ZM173.124 58.8732H171.972V60.2772H173.124C173.318 60.2772 173.503 60.2032 173.64 60.0716C173.777 59.9399 173.854 59.7614 173.854 59.5752C173.854 59.389 173.777 59.2105 173.64 59.0788C173.503 58.9472 173.318 58.8732 173.124 58.8732Z" fill="white"/>
<path d="M179.901 60.5541C179.495 60.9203 178.96 61.1242 178.403 61.1242C177.847 61.1242 177.312 60.9203 176.906 60.5541C176.686 60.2989 176.522 60.0039 176.423 59.6866C176.325 59.3693 176.293 59.0361 176.33 58.7068C176.295 58.3776 176.328 58.0449 176.427 57.7279C176.525 57.4108 176.688 57.1157 176.906 56.8595C177.316 56.5012 177.85 56.3027 178.403 56.3027C178.957 56.3027 179.491 56.5012 179.901 56.8595C180.339 57.378 180.546 58.042 180.477 58.7068C180.513 59.0361 180.481 59.369 180.382 59.6862C180.283 60.0033 180.12 60.2984 179.901 60.5541ZM179.171 57.3767C179.074 57.2751 178.955 57.1946 178.822 57.1405C178.69 57.0864 178.547 57.0598 178.403 57.0627C178.257 57.0569 178.112 57.0839 177.979 57.1417C177.845 57.1994 177.728 57.2862 177.636 57.3952C177.384 57.7873 177.276 58.2489 177.328 58.7068C177.276 59.1497 177.392 59.5958 177.655 59.9629C177.75 60.0617 177.866 60.1393 177.995 60.1904C178.124 60.2414 178.264 60.2647 178.403 60.2585C178.547 60.2614 178.69 60.2349 178.822 60.1807C178.955 60.1266 179.074 60.0461 179.171 59.9445C179.427 59.5749 179.536 59.129 179.479 58.6883C179.539 58.23 179.43 57.766 179.171 57.3767Z" fill="white"/>
<path d="M183.376 57.0998V61.0715H182.377V56.2686H185.603V57.0998H183.376Z" fill="white"/>
<path d="M190.248 60.5541C189.848 60.9233 189.315 61.1295 188.761 61.1295C188.206 61.1295 187.673 60.9233 187.273 60.5541C187.05 60.3004 186.882 60.0061 186.78 59.6887C186.678 59.3714 186.643 59.0374 186.678 58.7069C186.645 58.3764 186.681 58.043 186.783 57.7259C186.885 57.4088 187.052 57.1144 187.273 56.8596C187.679 56.5026 188.21 56.3047 188.761 56.3047C189.311 56.3047 189.842 56.5026 190.248 56.8596C190.469 57.1142 190.634 57.4091 190.733 57.7266C190.832 58.044 190.863 58.3775 190.824 58.7069C190.861 59.0361 190.828 59.3691 190.729 59.6862C190.631 60.0034 190.467 60.2984 190.248 60.5541ZM189.519 57.3768C189.422 57.2737 189.303 57.1913 189.171 57.1349C189.039 57.0785 188.896 57.0494 188.751 57.0494C188.606 57.0494 188.463 57.0785 188.331 57.1349C188.199 57.1913 188.08 57.2737 187.983 57.3768C187.732 57.7689 187.624 58.2305 187.676 58.6884C187.632 59.1307 187.747 59.5742 188.002 59.9445C188.207 60.1386 188.483 60.2474 188.77 60.2474C189.058 60.2474 189.333 60.1386 189.538 59.9445C189.781 59.5696 189.889 59.1282 189.845 58.6884C189.912 58.2272 189.796 57.7588 189.519 57.3768Z" fill="white"/>
<path d="M198.408 60.9607C198.129 61.0777 197.828 61.1344 197.524 61.127C196.104 61.127 195.278 60.2033 195.278 58.6332C195.278 57.063 196.123 56.2132 197.524 56.2132C197.834 56.1919 198.143 56.243 198.428 56.362C198.712 56.481 198.962 56.6645 199.156 56.8967L198.484 57.5248C198.365 57.3844 198.216 57.2705 198.047 57.1908C197.878 57.1111 197.693 57.0675 197.505 57.063C196.699 57.063 196.296 57.6171 196.296 58.6516C196.296 59.6861 196.699 60.2588 197.505 60.2588C197.695 60.2609 197.882 60.2203 198.052 60.14C198.222 60.0598 198.37 59.9423 198.484 59.7969L199.156 60.4435C198.945 60.6627 198.691 60.8386 198.408 60.9607Z" fill="white"/>
<path d="M203.284 61.0715H200.807V56.2685H203.188C203.376 56.245 203.568 56.2603 203.751 56.3135C203.933 56.3667 204.101 56.4565 204.244 56.577C204.388 56.6975 204.503 56.846 204.582 57.0125C204.662 57.1791 204.703 57.36 204.704 57.5432C204.718 57.7663 204.656 57.9877 204.528 58.1742C204.4 58.3607 204.213 58.5022 203.994 58.5777C204.233 58.6602 204.438 58.814 204.58 59.0168C204.721 59.2195 204.792 59.4605 204.781 59.7045C204.79 59.8928 204.757 60.0808 204.684 60.2557C204.611 60.4306 204.5 60.5882 204.358 60.718C204.216 60.8477 204.046 60.9464 203.861 61.0074C203.675 61.0684 203.479 61.0903 203.284 61.0715ZM202.976 57.0259H201.805V58.2267H202.976C203.456 58.2267 203.725 58.0235 203.725 57.6171C203.725 57.2107 203.495 57.0259 202.976 57.0259ZM202.976 58.9841H201.748V60.3141H202.976C203.074 60.3277 203.174 60.3205 203.268 60.293C203.362 60.2655 203.449 60.2183 203.522 60.1548C203.596 60.0914 203.654 60.0132 203.692 59.9258C203.73 59.8384 203.748 59.7439 203.744 59.6491C203.802 59.2242 203.495 58.9841 203.034 58.9841H202.976Z" fill="white"/>
<path d="M206.624 54.3105H207.699V55.1603H206.624V54.3105ZM206.624 56.361H207.622V61.0717H206.624V56.361Z" fill="white"/>
<path d="M211.634 57.0998V61.0715H210.636V57.0998H209.062V56.2686H213.093V57.0998H211.634Z" fill="white"/>
<path d="M216.127 62.0136C216.051 62.3047 215.871 62.5607 215.618 62.7364C215.365 62.9121 215.056 62.9963 214.745 62.9742H214.341V62.106H214.591C215.013 62.106 215.167 61.9952 215.321 61.5888L215.589 60.8314L213.842 56.2686H215.013L216.204 59.6491L217.355 56.2686H218.43L216.127 62.0136Z" fill="white"/>
<path d="M107.89 65.9854V69.9385H108.582V72.0444H107.622V70.8252H104.377V72.0444H103.437V69.9385H103.955C104.399 69.0936 104.598 68.1491 104.531 67.2046V65.9854H107.89ZM105.587 67.5925C105.622 68.4001 105.458 69.2042 105.107 69.9385H107.027V66.8166H105.587V67.5925Z" fill="white"/>
<path d="M113.016 70.7883V66.8166H111.576V68.2206C111.576 70.2526 110.962 70.7883 109.983 70.7883H109.426V69.9386H109.599C110.021 69.9386 110.54 69.8277 110.54 67.9804V65.9854H114.034V70.7883H113.016Z" fill="white"/>
<path d="M115.742 70.7882L116.817 68.8116C116.506 68.7349 116.233 68.5566 116.044 68.3072C115.855 68.0578 115.762 67.7528 115.781 67.4446C115.777 67.2441 115.818 67.0452 115.899 66.8606C115.98 66.6759 116.1 66.5096 116.252 66.3722C116.404 66.2349 116.584 66.1295 116.78 66.0629C116.977 65.9962 117.185 65.9698 117.393 65.9852H119.754V70.7882H118.737V68.9409H117.835L116.894 70.7882H115.742ZM118.756 66.7611H117.585C117.475 66.7443 117.363 66.7505 117.256 66.7794C117.149 66.8083 117.05 66.8592 116.966 66.9286C116.881 66.998 116.813 67.0842 116.767 67.1812C116.72 67.2783 116.696 67.3839 116.696 67.4908C116.696 67.5977 116.72 67.7033 116.767 67.8003C116.813 67.8974 116.881 67.9836 116.966 68.0529C117.05 68.1223 117.149 68.1732 117.256 68.2021C117.363 68.231 117.475 68.2373 117.585 68.2205H118.756V66.7611Z" fill="white"/>
<path d="M128.72 70.788V67.8324H125.86V70.788H124.785V64.0454H125.841V66.9272H128.701V64.0454H129.757V70.788H128.72Z" fill="white"/>
<path d="M135.305 70.1971C134.905 70.5663 134.372 70.7724 133.817 70.7724C133.263 70.7724 132.73 70.5663 132.329 70.1971C132.108 69.9423 131.942 69.6479 131.84 69.3308C131.738 69.0137 131.702 68.6803 131.734 68.3498C131.697 68.0192 131.731 67.6847 131.833 67.367C131.936 67.0493 132.105 66.7551 132.329 66.5026C132.73 66.1334 133.263 65.9272 133.817 65.9272C134.372 65.9272 134.905 66.1334 135.305 66.5026C135.53 66.7551 135.699 67.0493 135.801 67.367C135.903 67.6847 135.937 68.0192 135.9 68.3498C135.933 68.6803 135.897 69.0137 135.795 69.3308C135.693 69.6479 135.526 69.9423 135.305 70.1971ZM134.556 66.9828C134.352 66.8026 134.085 66.7036 133.808 66.7058C133.537 66.7064 133.276 66.8054 133.078 66.9828C132.801 67.3648 132.685 67.8333 132.752 68.2944C132.691 68.7611 132.807 69.2332 133.078 69.6245C133.276 69.8019 133.537 69.9009 133.808 69.9016C134.085 69.9037 134.352 69.8047 134.556 69.6245C134.844 69.2402 134.968 68.764 134.902 68.2944C134.944 67.8554 134.821 67.4164 134.556 67.0567V66.9828Z" fill="white"/>
<path d="M141.736 70.7882L140.258 67.9433H138.933V70.7882H137.858V64.0456H140.584C140.866 64.0093 141.153 64.0339 141.424 64.1175C141.695 64.2012 141.944 64.3419 142.152 64.5293C142.359 64.7167 142.521 64.9463 142.625 65.2013C142.729 65.4563 142.773 65.7304 142.753 66.0037C142.769 66.4183 142.64 66.826 142.385 67.1611C142.131 67.4962 141.767 67.7392 141.352 67.851L142.964 70.8436L141.736 70.7882ZM140.507 64.9507H138.933V67.0751H140.507C140.659 67.0909 140.813 67.0753 140.959 67.0293C141.104 66.9832 141.238 66.9078 141.35 66.8082C141.463 66.7085 141.552 66.5868 141.612 66.4512C141.672 66.3157 141.701 66.1694 141.697 66.0222C141.704 65.8734 141.677 65.725 141.618 65.5872C141.56 65.4494 141.471 65.3254 141.358 65.2237C141.245 65.122 141.11 65.0449 140.963 64.9978C140.817 64.9507 140.661 64.9346 140.507 64.9507Z" fill="white"/>
<path d="M145.422 68.6637C145.4 68.8349 145.416 69.0087 145.47 69.1732C145.524 69.3377 145.615 69.4891 145.735 69.6171C145.855 69.7451 146.003 69.8466 146.167 69.9148C146.332 69.983 146.51 70.0162 146.689 70.0123C146.917 70.0219 147.144 69.982 147.353 69.8957C147.562 69.8093 147.749 69.6787 147.899 69.5135L148.532 70.0862C148.297 70.3492 148 70.555 147.667 70.6867C147.333 70.8183 146.972 70.8721 146.612 70.8435C145.365 70.8435 144.366 70.197 144.366 68.3682C144.366 66.8165 145.211 65.9298 146.478 65.9298C146.782 65.9274 147.083 65.9877 147.361 66.1065C147.638 66.2253 147.887 66.4 148.088 66.6187C148.29 66.8374 148.441 67.0951 148.531 67.3746C148.621 67.654 148.647 67.9487 148.609 68.2389V68.6637H145.422ZM147.534 67.3337C147.448 67.1493 147.307 66.9933 147.13 66.885C146.952 66.7766 146.746 66.7207 146.536 66.7241C146.328 66.7195 146.123 66.7751 145.948 66.8839C145.774 66.9926 145.637 67.1493 145.556 67.3337C145.449 67.5393 145.403 67.7694 145.422 67.9987H147.668C147.666 67.771 147.621 67.5455 147.534 67.3337Z" fill="white"/>
<path d="M152.851 70.8437C152.497 70.8574 152.144 70.8005 151.813 70.6765C151.483 70.5525 151.183 70.3642 150.932 70.1233C150.26 69.4582 150.26 68.7008 150.26 67.4077C150.26 66.1146 150.26 65.3757 150.932 64.7107C151.183 64.4698 151.483 64.2814 151.813 64.1574C152.144 64.0334 152.497 63.9765 152.851 63.9902C153.465 63.9632 154.067 64.162 154.534 64.5462C155.001 64.9305 155.299 65.4715 155.366 66.0592H154.272C154.229 65.8077 154.115 65.5724 153.943 65.3792C153.77 65.1859 153.545 65.0423 153.293 64.964C153.041 64.8857 152.772 64.8758 152.514 64.9354C152.257 64.995 152.021 65.1218 151.834 65.3018C151.488 65.6713 151.392 66.0592 151.392 67.4077C151.392 68.7563 151.392 69.1627 151.834 69.5136C151.964 69.6467 152.122 69.7517 152.297 69.8218C152.473 69.8918 152.662 69.9253 152.851 69.92C153.194 69.925 153.527 69.8125 153.791 69.6026C154.054 69.3927 154.232 69.0992 154.291 68.7747H155.366C155.29 69.359 154.99 69.8949 154.525 70.2775C154.06 70.6602 153.463 70.8621 152.851 70.8437Z" fill="white"/>
<path d="M159.839 70.7883V70.345C159.669 70.5204 159.459 70.6564 159.227 70.7428C158.994 70.8292 158.744 70.8637 158.495 70.8437C158.255 70.863 158.012 70.8336 157.784 70.7572C157.556 70.6808 157.347 70.5593 157.171 70.4004C157.036 70.2619 156.931 70.0993 156.862 69.9218C156.793 69.7443 156.761 69.5554 156.768 69.3659C156.768 68.5716 157.343 67.9989 158.495 67.9989H159.82V67.6479C159.82 67.0383 159.494 66.7427 158.726 66.7427C158.517 66.7181 158.305 66.748 158.113 66.8292C157.92 66.9105 157.754 67.0402 157.631 67.2046L156.959 66.6134C157.179 66.3653 157.458 66.1731 157.773 66.0539C158.087 65.9346 158.428 65.892 158.764 65.9299C160.127 65.9299 160.818 66.4841 160.818 67.574V70.7883H159.839ZM159.839 68.6639H158.668C158.073 68.6639 157.766 68.9225 157.766 69.3474C157.766 69.7723 158.054 70.0309 158.687 70.0309C158.853 70.0542 159.021 70.0414 159.181 69.9935C159.34 69.9455 159.487 69.8636 159.609 69.7538C159.696 69.6589 159.762 69.5473 159.801 69.4264C159.841 69.3055 159.854 69.1779 159.839 69.0519V68.6639Z" fill="white"/>
<path d="M66.7193 11.0768C68.8343 13.1038 70.5648 15.1308 72.103 17.5264C71.1416 17.7107 70.1802 18.0792 69.0266 18.2635C67.2961 18.8163 65.5656 19.5534 63.4506 20.2905C62.4892 20.6591 61.5279 21.2119 60.3742 21.7647C59.4128 22.3175 58.2592 22.8704 57.1055 23.4232C55.1828 24.8974 52.8755 26.1873 50.9528 28.0301C50.3759 28.3986 49.9914 28.9514 49.4146 29.32C49.03 29.8728 48.4532 30.4257 48.0686 30.7942C47.1073 31.8999 46.3382 32.8212 45.5691 34.1112C43.8386 36.3225 42.4927 38.718 40.9545 40.9293C40.1854 42.035 39.4163 43.1406 38.6472 44.2463C37.8781 45.3519 37.109 46.4576 36.1476 47.379C34.4171 49.406 32.4944 51.0645 30.5716 52.5387C28.4566 53.8286 26.5339 55.3028 24.4189 56.2242C23.4575 56.777 22.3038 57.1456 21.3425 57.6984C20.3811 58.2512 19.4197 58.4355 18.4584 58.804C16.5356 59.5411 14.8051 60.2782 13.2669 60.6468C11.7287 61.0153 10.1905 61.3839 9.0369 61.7524C7.88326 60.4625 6.72961 58.9883 5.76824 57.5141C5.96051 57.5141 6.15278 57.3298 6.34506 57.3298C8.07553 56.777 9.806 55.8556 11.921 55.1185C12.8824 54.75 14.036 54.3814 14.9974 53.6443C15.9588 53.0915 17.1124 52.5387 18.2661 51.8016C20.5734 50.6959 22.4961 49.0374 24.8034 47.379C26.9184 45.5362 29.0335 43.6935 30.7639 41.2979C31.7253 40.1922 32.4944 39.0866 33.2635 37.7967C34.0326 36.691 34.8017 35.4011 35.5708 34.2954C37.109 31.8999 38.2626 29.5043 39.8008 27.4772C40.5699 26.3716 41.339 25.2659 42.1081 24.3446C42.4927 23.7917 42.8772 23.4232 43.2618 22.8704C43.6463 22.5018 44.2231 21.949 44.6077 21.5804C46.3382 19.7377 48.2609 18.4478 50.1837 16.9736C51.145 16.4207 52.1064 15.8679 53.0678 15.3151C54.0291 14.7623 54.9905 14.2094 55.9519 13.8409C57.8746 13.1038 59.6051 12.3667 61.1433 11.6296C62.6815 11.0768 64.2197 10.7082 65.3733 10.3397C65.5656 10.3397 65.9502 10.1554 66.1424 10.1554C66.527 10.7082 66.7193 10.8925 66.7193 11.0768ZM4.80686 41.4822C5.76824 40.9293 6.72961 40.5608 7.88326 40.008C9.99828 39.0866 11.921 37.6124 14.036 36.3225C15.9588 34.664 17.8815 33.1898 19.612 31.1627C20.5734 30.2414 21.3425 29.1357 22.1116 28.0301C22.8807 26.9244 23.6498 25.8188 24.4189 24.7131C25.9571 22.5018 27.303 20.1062 29.0335 17.8949C29.8026 16.7893 30.7639 15.6836 31.533 14.578C31.9176 14.0252 32.4944 13.4723 32.8789 13.1038C33.4558 12.551 33.8403 12.1824 34.4171 11.6296C36.3399 9.60255 38.6472 8.31263 40.5699 7.0227C41.7236 6.46987 42.6849 5.91705 43.8386 5.36422C44.8 4.8114 45.9536 4.25857 46.915 3.89002C48.8377 3.15292 50.5682 2.60009 52.1064 2.04727C46.7227 0.204517 41.1468 -0.348309 35.5708 0.204517C34.994 0.573067 34.4171 0.941618 33.8403 1.12589C32.1098 2.60009 29.9948 3.89002 28.2644 5.73277C27.8798 6.10132 27.303 6.65415 26.9184 7.0227C26.5339 7.57552 26.1493 7.94407 25.7648 8.4969C24.9957 9.41828 24.2266 10.5239 23.4575 11.6296C21.9193 13.8409 20.7656 16.2365 19.2275 18.4478C18.4584 19.5534 17.8815 20.8433 16.9202 21.949C16.1511 23.0546 15.382 24.3446 14.4206 25.2659C12.3056 27.6615 10.1906 29.5043 8.26781 31.347C5.96051 32.8212 4.03777 34.664 1.73047 35.7696C1.15365 36.1382 0.576824 36.3225 0 36.691C0 38.9023 0 41.1136 0.384549 43.1406C0.769098 42.9564 1.34592 42.7721 1.92275 42.5878C2.88412 42.2193 3.84549 42.035 4.80686 41.4822ZM69.9879 31.5313C69.0266 32.0841 68.0652 32.637 66.9115 33.1898C65.1811 34.664 63.066 35.9539 61.3356 37.7967C60.951 38.1652 60.3742 38.718 59.9897 39.0866C59.6051 39.6394 59.2206 40.008 58.836 40.5608C58.0669 41.4822 57.2978 42.5878 56.5287 43.6935C54.9905 45.9048 53.6446 48.3003 52.2987 50.5117C51.5296 51.6173 50.9528 52.9072 49.9914 54.0129C49.2223 55.1185 48.4532 56.4085 47.4918 57.3298C45.7613 59.5411 43.6463 61.3839 41.7236 63.2266C39.4163 64.7008 37.4935 66.5436 35.1862 67.6492C34.0326 68.2021 33.0712 68.7549 31.9176 69.3077C30.9562 69.8605 29.8026 70.2291 28.8412 70.5976C27.4953 71.1505 26.1493 71.7033 24.8034 72.2561C28.0721 73.5461 31.7253 74.2831 35.1862 74.6517H35.3785C36.3399 74.2831 37.3013 74.0989 38.2626 73.5461C39.224 72.9932 40.1854 72.6247 41.339 72.0718C43.454 71.1505 45.3768 69.6763 47.4918 68.3863C49.4146 66.7279 51.3373 65.2537 53.0678 63.2266C54.0291 62.3053 54.7982 61.1996 55.5673 60.094C56.3364 58.9883 57.1055 57.8827 57.8746 56.777C59.4128 54.5657 60.7588 52.1701 62.4892 49.9588C63.2583 48.8532 64.2197 47.7475 64.9888 46.6419C65.3733 46.089 65.9502 45.5362 66.3347 45.1677C66.9115 44.6148 67.2961 44.2463 67.8729 43.8777C69.7957 42.035 72.103 40.5608 74.0257 39.2709C75.1793 38.718 76.1407 38.1652 77.2944 37.6124C77.6789 37.4281 77.8712 37.2438 78.2557 37.0596C78.2557 34.1112 77.8712 31.1628 77.1021 28.3986C75.7562 28.9514 74.4102 29.5043 72.8721 30.0571C71.9107 30.4256 70.9493 31.1628 69.9879 31.5313ZM10.9596 23.0546C11.921 22.1333 12.6901 21.0276 13.4592 19.922C14.2283 18.8163 14.9974 17.7107 15.7665 16.605C17.3047 14.3937 18.6506 11.9981 20.3811 9.78683C21.1502 8.68118 22.1116 7.57552 22.8807 6.46987C23.2652 5.91705 23.842 5.36422 24.2266 4.99567C24.8034 4.44285 25.188 4.0743 25.7648 3.70575C26.5339 2.96864 27.4953 2.23154 28.2644 1.49444C22.1116 3.15292 16.3433 6.2856 11.5365 11.0768C5.57596 16.7893 1.92275 23.976 0.576824 31.347C2.30729 30.4257 3.84549 29.32 5.57596 28.2143C7.30643 26.5559 9.42145 24.8974 10.9596 23.0546ZM69.7957 45.9048C69.4111 46.2733 68.8343 46.8261 68.4497 47.1947C68.0652 47.7475 67.6806 48.1161 67.2961 48.6689C66.527 49.5903 65.7579 50.6959 64.9888 51.8016C63.4506 54.0129 62.297 56.4085 60.7588 58.6198C59.9897 59.7254 59.4128 61.0153 58.4515 62.121C57.6824 63.2266 56.9133 64.5166 55.9519 65.4379C54.2214 67.6492 52.1064 69.492 49.9914 71.3347C48.6455 72.2561 47.2995 73.3618 45.9536 74.2831C53.4523 72.9932 60.7588 69.492 66.7193 63.9637C73.8334 57.1456 77.4866 48.4846 78.0635 39.6394C77.1021 40.1922 76.333 40.5608 75.3716 41.1136C73.6412 42.7721 71.5261 44.062 69.7957 45.9048ZM64.412 22.1333C63.4506 22.5018 62.4892 23.0546 61.5279 23.6075C60.5665 24.1603 59.6051 24.7131 58.6437 25.2659C56.9133 26.7401 54.7982 28.0301 53.0678 29.8728C52.6832 30.2414 52.1064 30.7942 51.7218 31.1627C51.3373 31.7156 50.9528 32.0841 50.5682 32.637C49.7991 33.5583 49.03 34.664 48.2609 35.7696C46.7227 37.9809 45.5691 40.3765 44.0309 42.5878C43.2618 43.6935 42.6849 44.9834 41.7236 46.089C40.9545 47.1947 40.1854 48.4846 39.224 49.406C37.4935 51.6173 35.3785 53.46 33.2635 55.3028C30.9562 56.777 29.0335 58.6198 26.7262 59.7254C25.5725 60.2782 24.6111 60.8311 23.4575 61.3839C22.4961 61.9367 21.3425 62.3053 20.3811 62.6738C18.2661 63.4109 16.5356 64.3323 14.8051 64.8851C14.2283 65.0694 13.6515 65.2537 13.0747 65.4379C14.8051 66.9121 16.7279 68.2021 18.6506 69.492C19.612 69.3077 20.5734 68.9392 21.727 68.5706C23.2652 68.0178 24.9957 67.465 26.9184 66.7279C27.8798 66.3593 28.8412 66.175 29.8026 65.6222C30.7639 65.0694 31.7253 64.7008 32.8789 64.148C34.994 63.2266 36.9167 61.7524 39.0317 60.4625C40.9545 58.804 42.8772 57.3298 44.6077 55.3028C45.5691 54.3814 46.3382 53.2758 47.1073 52.1701C47.8764 51.0645 48.6455 49.9588 49.4146 48.8532C50.9528 46.6419 52.2987 44.2463 54.0291 42.035C54.7982 40.9293 55.7596 39.8237 56.5287 38.718C56.9133 38.1652 57.4901 37.6124 57.8746 37.2438C58.4515 36.691 58.836 36.3225 59.4128 35.9539C61.3356 33.9269 63.6429 32.637 65.5656 31.347C66.7193 30.7942 67.6806 30.2414 68.8343 29.6886C69.7957 29.1357 70.757 28.5829 71.9107 28.2143C73.6412 27.6615 75.1793 27.1087 76.5253 26.5559C75.7562 23.976 74.6025 21.3962 73.0643 19.0006C72.103 19.3691 70.9493 19.5534 69.6034 20.1062C68.0652 20.6591 66.3347 21.3962 64.412 22.1333ZM10.1906 50.5117C11.1519 50.1431 12.1133 49.9588 13.0747 49.406C14.036 48.8532 14.9974 48.4846 16.1511 47.9318C18.2661 47.0104 20.1888 45.5362 22.3038 44.2463C24.2266 42.5878 26.1493 41.1136 27.8798 39.0866C28.8412 38.1652 29.6103 37.0596 30.3794 36.1382C31.1485 35.0325 31.9176 33.9269 32.6867 32.8212C34.2249 30.6099 35.5708 28.2143 37.3013 26.003C38.0704 24.8974 39.0317 23.7917 39.9931 22.6861C40.3777 22.1333 40.9545 21.5804 41.339 21.2119C41.9158 20.6591 42.3004 20.2905 42.8772 19.922C44.8 18.0792 47.1073 16.605 49.2223 15.3151C50.3759 14.7623 51.3373 14.2094 52.4909 13.6566C53.4523 13.1038 54.606 12.551 55.5673 12.3667C57.6824 11.6296 59.4128 11.0768 61.1433 10.3397C62.6815 9.9711 64.0274 9.60255 65.1811 9.41828C62.297 7.0227 59.2206 5.17995 55.9519 3.70575C54.606 3.70575 53.8369 3.89002 53.0678 4.0743C51.5296 4.62712 49.7991 5.36422 47.8764 6.10132C46.915 6.46987 45.9536 7.0227 44.9922 7.57552C44.0309 8.12835 43.0695 8.68118 42.1081 9.234C40.3777 10.7082 38.2626 11.8139 36.5322 13.6566C36.1476 14.0252 35.5708 14.578 35.1862 14.9465C34.6094 15.4994 34.2249 16.0522 33.8403 16.605C33.0712 17.5264 32.3021 18.632 31.533 19.7377C29.9948 21.949 28.8412 24.3446 27.303 26.5559C26.5339 27.6615 25.9571 28.9514 24.9957 30.0571C24.2266 31.1628 23.4575 32.4527 22.4961 33.3741C20.7656 35.5854 18.6506 37.4281 16.5356 39.2709C14.2283 40.7451 12.3056 42.5878 9.99828 43.6935C8.84463 44.2463 7.88326 44.7991 6.72961 45.3519C5.76824 46.089 4.80686 46.4576 3.65322 46.8261C2.88412 47.1947 2.11502 47.379 1.34592 47.7475C1.92275 49.406 2.49957 51.0645 3.26867 52.7229C3.84549 52.5387 4.42231 52.3544 4.99914 52.3544C6.72961 51.8016 8.26781 51.0645 10.1906 50.5117Z" fill="url(#paint0_linear)"/>
<path opacity="0.39" d="M20.7655 6.10146C22.3037 5.36436 23.8419 4.62726 25.3801 4.07443C24.9956 4.44298 24.611 4.81153 24.2265 4.99581C23.8419 5.54863 23.2651 6.10146 22.8806 6.47001C22.6883 6.65428 22.496 6.83856 22.3037 7.20711C22.1115 7.39138 21.7269 7.39138 21.3424 7.39138C20.381 7.75993 19.8042 6.47001 20.7655 6.10146ZM49.0299 2.96878C47.1072 2.41595 44.9921 2.0474 42.8771 1.86313C39.2239 1.49458 35.5707 1.67885 32.1098 2.23168C30.7638 3.33733 29.2256 4.25871 28.072 5.73291L27.8797 5.91718C30.5716 5.54863 33.2634 5.18008 35.9552 5.18008C38.2625 5.18008 40.5698 5.36436 42.6849 5.73291C43.0694 5.54863 43.4539 5.36436 43.8385 5.18008C44.7999 4.62726 45.9535 4.07443 46.9149 3.70588C47.4917 3.70588 48.2608 3.33733 49.0299 2.96878ZM70.5647 31.3472C71.3338 34.1113 71.7183 37.0597 71.7183 40.0081C71.7183 40.3766 71.7183 40.5609 71.7183 40.9295C72.4874 40.3766 73.2565 39.8238 74.0256 39.271C74.7947 38.9024 75.7561 38.3496 76.5252 37.9811C76.5252 36.6911 76.5252 35.2169 76.3329 33.927C76.1406 32.2685 75.7561 30.7943 75.3715 29.1359C74.6024 29.5044 73.6411 29.873 72.872 30.2415C72.1029 30.4258 71.3338 30.7943 70.5647 31.3472ZM62.2969 9.60268C59.4127 7.39138 56.1441 5.54863 52.6831 4.07443C51.1449 4.62726 49.6067 5.36436 47.684 6.10146C47.2994 6.28573 46.7226 6.47001 46.3381 6.65428C49.9913 7.75993 53.26 9.41841 56.3363 11.4454C57.8745 10.8926 59.4127 10.3398 60.5664 9.97124C61.3355 9.97124 61.72 9.78696 62.2969 9.60268ZM74.7947 27.1088C73.8333 24.3447 72.6797 21.9491 71.3338 19.5535C70.7569 19.7378 70.3724 19.9221 69.7956 20.1064C68.6419 20.4749 67.4883 21.0277 66.1424 21.5806C67.6805 23.9761 69.0265 26.556 69.9878 29.1359C70.7569 28.7673 71.3338 28.3988 72.1029 28.2145C72.872 27.8459 73.8333 27.4774 74.7947 27.1088ZM70.1801 17.8951C68.4496 15.4995 66.5269 13.1039 64.2196 11.2612C63.4505 11.4454 62.4891 11.814 61.3355 12.1825C60.3741 12.5511 59.4127 12.9196 58.4514 13.2882C60.7587 15.1309 62.8737 17.3422 64.7964 19.7378C66.3346 19.185 67.6805 18.6322 69.0265 18.2636C69.411 18.0793 69.7956 17.8951 70.1801 17.8951ZM71.526 44.2464C71.3338 47.5634 70.9492 50.696 70.1801 53.4602C69.7956 54.7501 71.7183 55.4872 72.2951 54.1973C74.4102 50.1432 75.7561 45.5363 76.1406 40.7452C75.7561 40.9295 75.5638 41.1137 75.1793 41.298C74.2179 42.2194 72.872 43.1408 71.526 44.2464Z" fill="white"/>
<path opacity="0.75" d="M75.1795 27.1086C74.6026 27.2929 73.8335 27.6614 73.2567 27.8457C72.2953 25.0816 70.9494 22.686 69.4112 20.2904C69.4112 20.2904 69.6035 20.2904 69.6035 20.1061C70.3726 19.9219 71.1417 19.7376 71.7185 19.5533C73.2567 21.7646 74.4104 24.3445 75.1795 27.1086ZM64.7966 11.0766C64.0275 11.2609 63.0662 11.6295 61.9125 11.998C64.2198 14.025 66.3348 16.2364 68.2576 18.6319C68.4499 18.6319 68.8344 18.4477 69.0267 18.2634C69.6035 18.0791 70.1803 17.8948 70.7571 17.8948C69.0267 15.315 67.1039 12.9194 64.7966 11.0766ZM75.7563 28.9513C75.1795 29.1356 74.4104 29.5042 73.8335 29.6884C74.6026 32.4526 75.1795 35.401 75.1795 38.5336C75.7563 38.3494 76.1408 37.9808 76.7177 37.7966C76.7177 37.6123 76.7177 37.6123 76.7177 37.428C76.9099 34.4796 76.5254 31.7155 75.7563 28.9513ZM75.3717 41.2978C75.3717 42.4034 75.1795 43.6934 74.9872 44.799C74.9872 45.5361 75.9486 45.5361 76.1408 44.9833C76.5254 43.5091 76.7177 42.0349 76.9099 40.5607C76.3331 40.745 75.9486 41.1135 75.3717 41.2978ZM32.4945 1.86288C31.9177 2.23143 31.3409 2.78426 30.5718 3.15281C32.4945 2.78426 34.6095 2.78426 36.5323 2.78426C39.801 2.78426 43.0696 3.15281 46.3383 3.88991H46.5306C47.6842 3.52136 48.6456 3.15281 49.607 2.78426C46.146 1.86288 42.6851 1.31006 39.0319 1.31006C36.9168 1.31006 34.6095 1.49433 32.4945 1.86288ZM53.4524 4.07419C53.2602 4.07419 53.2602 4.07419 53.0679 4.25846C52.2988 4.62701 51.3374 4.99556 50.3761 5.36411C53.837 6.65404 57.1057 8.31252 59.9898 10.5238C60.1821 10.5238 60.3743 10.3395 60.5666 10.3395C61.3357 10.1553 62.2971 9.97099 62.8739 9.78672C60.1821 7.20687 56.9134 5.36411 53.4524 4.07419Z" fill="white"/>
</g>
<defs>
<linearGradient id="paint0_linear" x1="78.5305" y1="37.597" x2="0.294842" y2="37.5966" gradientUnits="userSpaceOnUse">
<stop stop-color="#E54E26"/>
<stop offset="0.0001" stop-color="#E54E26"/>
<stop offset="1" stop-color="#F9A980"/>
</linearGradient>
<clipPath id="clip0">
<rect width="234" height="75" fill="white"/>
</clipPath>
</defs>
</svg>
