<svg width="27" height="26" viewBox="0 0 27 26" fill="none" xmlns="http://www.w3.org/2000/svg">
<path fill-rule="evenodd" clip-rule="evenodd" d="M9.16667 24.9166C10.3633 24.9166 11.3333 23.9465 11.3333 22.7499C11.3333 21.5533 10.3633 20.5833 9.16667 20.5833C7.97005 20.5833 7 21.5533 7 22.7499C7 23.9465 7.97005 24.9166 9.16667 24.9166Z" stroke="white" stroke-width="2" stroke-linecap="round" stroke-linejoin="round"/>
<path fill-rule="evenodd" clip-rule="evenodd" d="M22.1667 24.9166C23.3633 24.9166 24.3333 23.9465 24.3333 22.7499C24.3333 21.5533 23.3633 20.5833 22.1667 20.5833C20.97 20.5833 20 21.5533 20 22.7499C20 23.9465 20.97 24.9166 22.1667 24.9166Z" stroke="white" stroke-width="2" stroke-linecap="round" stroke-linejoin="round"/>
<path d="M6.64266 6.49992H25.4168L23.5968 15.5891C23.3924 16.6185 22.4795 17.3534 21.4302 17.3333H9.97933C8.8846 17.3425 7.95494 16.5337 7.81266 15.4483L6.166 2.96825C6.02475 1.89098 5.10749 1.0849 4.021 1.08325H1.5835" stroke="white" stroke-width="2" stroke-linecap="round" stroke-linejoin="round"/>
</svg>
