<svg width="32" height="32" viewBox="0 0 32 32" fill="none" xmlns="http://www.w3.org/2000/svg">
<path fill-rule="evenodd" clip-rule="evenodd" d="M10.6667 30.6668C12.1394 30.6668 13.3333 29.4729 13.3333 28.0002C13.3333 26.5274 12.1394 25.3335 10.6667 25.3335C9.19391 25.3335 8 26.5274 8 28.0002C8 29.4729 9.19391 30.6668 10.6667 30.6668Z" stroke="#FA4616" stroke-width="2" stroke-linecap="round" stroke-linejoin="round"/>
<path fill-rule="evenodd" clip-rule="evenodd" d="M26.6667 30.6668C28.1394 30.6668 29.3333 29.4729 29.3333 28.0002C29.3333 26.5274 28.1394 25.3335 26.6667 25.3335C25.1939 25.3335 24 26.5274 24 28.0002C24 29.4729 25.1939 30.6668 26.6667 30.6668Z" stroke="#FA4616" stroke-width="2" stroke-linecap="round" stroke-linejoin="round"/>
<path d="M7.56016 8.00016H30.6668L28.4268 19.1868C28.1752 20.4538 27.0516 21.3582 25.7602 21.3335H11.6668C10.3195 21.3449 9.17528 20.3495 9.00016 19.0135L6.9735 3.6535C6.79966 2.32762 5.67071 1.33552 4.3335 1.3335H1.3335" stroke="#FA4616" stroke-width="2" stroke-linecap="round" stroke-linejoin="round"/>
</svg>
