<svg width="14" height="16" viewBox="0 0 14 16" fill="none" xmlns="http://www.w3.org/2000/svg">
<path d="M6.25048 0.26607C6.68071 -0.0886898 7.3193 -0.0886899 7.74952 0.26607L13.6023 5.09222C14.4036 5.75299 13.9128 7.00641 12.8528 7.00641H1.14721C0.0871484 7.00641 -0.403641 5.75299 0.397687 5.09222L6.25048 0.26607Z" fill="#C5C5C5"/>
<path fill-rule="evenodd" clip-rule="evenodd" d="M3.56527 5.09868C2.30063 5.09868 1.27544 6.07482 1.27544 7.27895V13.8197C1.27544 15.0239 2.30063 16 3.56526 16H5.85509V11.6395H8.14491V16H10.4347C11.6994 16 12.7246 15.0239 12.7246 13.8197V7.27895C12.7246 6.07482 11.6994 5.09868 10.4347 5.09868H3.56527Z" fill="#C5C5C5"/>
</svg>
