<svg width="18" height="11" viewBox="0 0 18 11" fill="none" xmlns="http://www.w3.org/2000/svg">
<path d="M0.75 9.4375C0.75 9.25516 0.822433 9.08029 0.951364 8.95136C1.0803 8.82243 1.25516 8.75 1.4375 8.75H5.5625C5.74484 8.75 5.9197 8.82243 6.04864 8.95136C6.17757 9.08029 6.25 9.25516 6.25 9.4375C6.25 9.61984 6.17757 9.79471 6.04864 9.92364C5.9197 10.0526 5.74484 10.125 5.5625 10.125H1.4375C1.25516 10.125 1.0803 10.0526 0.951364 9.92364C0.822433 9.79471 0.75 9.61984 0.75 9.4375ZM0.75 5.3125C0.75 5.13016 0.822433 4.9553 0.951364 4.82636C1.0803 4.69743 1.25516 4.625 1.4375 4.625H11.0625C11.2448 4.625 11.4197 4.69743 11.5486 4.82636C11.6776 4.9553 11.75 5.13016 11.75 5.3125C11.75 5.49484 11.6776 5.6697 11.5486 5.79864C11.4197 5.92757 11.2448 6 11.0625 6H1.4375C1.25516 6 1.0803 5.92757 0.951364 5.79864C0.822433 5.6697 0.75 5.49484 0.75 5.3125ZM0.75 1.1875C0.75 1.00516 0.822433 0.830295 0.951364 0.701364C1.0803 0.572433 1.25516 0.5 1.4375 0.5H16.5625C16.7448 0.5 16.9197 0.572433 17.0486 0.701364C17.1776 0.830295 17.25 1.00516 17.25 1.1875C17.25 1.36984 17.1776 1.5447 17.0486 1.67364C16.9197 1.80257 16.7448 1.875 16.5625 1.875H1.4375C1.25516 1.875 1.0803 1.80257 0.951364 1.67364C0.822433 1.5447 0.75 1.36984 0.75 1.1875Z" fill="white"/>
</svg>
