<svg width="17" height="16" viewBox="0 0 17 16" fill="none" xmlns="http://www.w3.org/2000/svg">
<path fill-rule="evenodd" clip-rule="evenodd" d="M0.5 7.15789C0.5 3.2047 3.7047 0 7.65789 0C11.6111 0 14.8158 3.2047 14.8158 7.15789C14.8158 11.1111 11.6111 14.3158 7.65789 14.3158C3.7047 14.3158 0.5 11.1111 0.5 7.15789ZM7.65789 0.842105C4.16978 0.842105 1.34211 3.66978 1.34211 7.15789C1.34211 10.646 4.16978 13.4737 7.65789 13.4737C11.146 13.4737 13.9737 10.646 13.9737 7.15789C13.9737 3.66978 11.146 0.842105 7.65789 0.842105Z" fill="#E7590E"/>
<path fill-rule="evenodd" clip-rule="evenodd" d="M12.1181 11.6181C12.2825 11.4536 12.5491 11.4536 12.7135 11.6181L16.3767 15.2812C16.5411 15.4456 16.5411 15.7122 16.3767 15.8767C16.2122 16.0411 15.9456 16.0411 15.7812 15.8767L12.1181 12.2135C11.9536 12.0491 11.9536 11.7825 12.1181 11.6181Z" fill="#E7590E"/>
</svg>
