<svg width="26" height="26" viewBox="0 0 26 26" fill="none" xmlns="http://www.w3.org/2000/svg">
<path fill-rule="evenodd" clip-rule="evenodd" d="M1 11.7368C1 5.80705 5.80705 1 11.7368 1C17.6666 1 22.4737 5.80705 22.4737 11.7368C22.4737 17.6666 17.6666 22.4737 11.7368 22.4737C5.80705 22.4737 1 17.6666 1 11.7368ZM11.7368 2.26316C6.50467 2.26316 2.26316 6.50467 2.26316 11.7368C2.26316 16.969 6.50467 21.2105 11.7368 21.2105C16.969 21.2105 21.2105 16.969 21.2105 11.7368C21.2105 6.50467 16.969 2.26316 11.7368 2.26316Z" fill="#E7590E"/>
<path fill-rule="evenodd" clip-rule="evenodd" d="M18.4271 18.4271C18.6737 18.1804 19.0736 18.1804 19.3203 18.4271L24.815 23.9218C25.0617 24.1685 25.0617 24.5684 24.815 24.815C24.5684 25.0617 24.1685 25.0617 23.9218 24.815L18.4271 19.3203C18.1804 19.0736 18.1804 18.6737 18.4271 18.4271Z" fill="#E7590E"/>
<path fill-rule="evenodd" clip-rule="evenodd" d="M1 11.7368C1 5.80705 5.80705 1 11.7368 1C17.6666 1 22.4737 5.80705 22.4737 11.7368C22.4737 17.6666 17.6666 22.4737 11.7368 22.4737C5.80705 22.4737 1 17.6666 1 11.7368ZM11.7368 2.26316C6.50467 2.26316 2.26316 6.50467 2.26316 11.7368C2.26316 16.969 6.50467 21.2105 11.7368 21.2105C16.969 21.2105 21.2105 16.969 21.2105 11.7368C21.2105 6.50467 16.969 2.26316 11.7368 2.26316Z" stroke="#FA4616" stroke-linecap="round" stroke-linejoin="round"/>
<path fill-rule="evenodd" clip-rule="evenodd" d="M18.4271 18.4271C18.6737 18.1804 19.0736 18.1804 19.3203 18.4271L24.815 23.9218C25.0617 24.1685 25.0617 24.5684 24.815 24.815C24.5684 25.0617 24.1685 25.0617 23.9218 24.815L18.4271 19.3203C18.1804 19.0736 18.1804 18.6737 18.4271 18.4271Z" stroke="#FA4616" stroke-linecap="round" stroke-linejoin="round"/>
</svg>
