<svg width="17" height="17" viewBox="0 0 17 17" fill="none" xmlns="http://www.w3.org/2000/svg">
<path d="M6.375 6.375H7.4375V12.75H6.375V6.375Z" fill="#FA4616"/>
<path d="M9.5625 6.375H10.625V12.75H9.5625V6.375Z" fill="#FA4616"/>
<path d="M2.125 3.1875V4.25H3.1875V14.875C3.1875 15.1568 3.29944 15.427 3.4987 15.6263C3.69796 15.8256 3.96821 15.9375 4.25 15.9375H12.75C13.0318 15.9375 13.302 15.8256 13.5013 15.6263C13.7006 15.427 13.8125 15.1568 13.8125 14.875V4.25H14.875V3.1875H2.125ZM4.25 14.875V4.25H12.75V14.875H4.25Z" fill="#FA4616"/>
<path d="M6.375 1.0625H10.625V2.125H6.375V1.0625Z" fill="#FA4616"/>
</svg>
